<?xml version="1.0" encoding="utf-8"?>
<!-- Generator: Adobe Illustrator 21.1.0, SVG Export Plug-In . SVG Version: 6.00 Build 0)  -->
<svg version="1.1" id="Layer_1" xmlns="http://www.w3.org/2000/svg" xmlns:xlink="http://www.w3.org/1999/xlink" x="0px" y="0px"
	 viewBox="0 0 800 169.2" style="enable-background:new 0 0 800 169.2;" xml:space="preserve">
<style type="text/css">
	.st0{fill:#00A7E1;}
	.st1{fill:#FFFFFF;}
</style>
<g>
	<g>
		<path class="st0" d="M-47.6,272.5V115.1l-22.5,0.1c-5.1,0-9.5-2.9-11.4-7.6c-1.9-4.6-1-9.8,2.6-13.3l62.9-73l0.1-0.1
			c2.3-2.3,5.4-3.6,8.7-3.6c3.3,0,6.4,1.3,8.7,3.6l0.1,0.1l63.3,72.5c3.6,3.6,4.6,8.7,2.7,13.3c-1.9,4.7-6.3,7.6-11.4,7.6l-26.5,0.1
			v157.7H-47.6z"/>
		<path class="st1" d="M-7.3,20c2.5,0,5,0.9,6.9,2.8l63.4,72.5c6.2,6.2,1.9,16.8-6.9,16.8l-29,0.1l0,157.7h-72.3l0-157.4l-25,0.1
			c0,0,0,0,0,0c-8.7,0-13.1-10.5-7-16.7l62.9-73C-12.3,21-9.8,20-7.3,20 M-7.3,15c-4,0-7.7,1.6-10.5,4.4l-0.1,0.1l-0.1,0.1
			l-62.8,72.9c-4.2,4.3-5.3,10.4-3,16c2.3,5.6,7.6,9.1,13.7,9.1h0l0,0l20-0.1l0,152.4v5h5h72.3h5v-5l0-152.7l24-0.1
			c6.1,0,11.3-3.5,13.7-9.2c2.3-5.6,1.1-11.7-3.1-16L3.4,19.6l-0.1-0.1l-0.1-0.1C0.4,16.5-3.3,15-7.3,15L-7.3,15z"/>
	</g>
	<g>
		<path class="st0" d="M155.9,272.5V115.1l-22.5,0.1c-5.1,0-9.5-2.9-11.4-7.6c-1.9-4.6-1-9.8,2.6-13.3l62.9-73l0.1-0.1
			c2.3-2.3,5.4-3.6,8.7-3.6c3.3,0,6.4,1.3,8.7,3.6l0.1,0.1l63.3,72.5c3.6,3.6,4.6,8.7,2.7,13.3c-1.9,4.7-6.3,7.6-11.4,7.6l-26.5,0.1
			v157.7H155.9z"/>
		<path class="st1" d="M196.2,20c2.5,0,5,0.9,6.9,2.8l63.4,72.5c6.2,6.2,1.9,16.8-6.9,16.8l-29,0.1l0,157.7h-72.3l0-157.4l-25,0.1
			c0,0,0,0,0,0c-8.7,0-13.1-10.5-7-16.7l62.9-73C191.2,21,193.7,20,196.2,20 M196.2,15c-4,0-7.7,1.6-10.5,4.4l-0.1,0.1l-0.1,0.1
			l-62.8,72.9c-4.2,4.3-5.3,10.4-3,16c2.3,5.6,7.6,9.1,13.7,9.1h0l0,0l20-0.1l0,152.4v5h5h72.3h5v-5l0-152.7l24-0.1
			c6.1,0,11.3-3.5,13.7-9.2c2.3-5.6,1.1-11.7-3.1-16l-63.3-72.4l-0.1-0.1l-0.1-0.1C203.9,16.5,200.2,15,196.2,15L196.2,15z"/>
	</g>
	<g>
		<path class="st0" d="M359.4,272.5V115.1l-22.5,0.1c-5.1,0-9.5-2.9-11.4-7.6c-1.9-4.6-1-9.8,2.6-13.3l62.9-73l0.1-0.1
			c2.3-2.3,5.4-3.6,8.7-3.6c3.3,0,6.4,1.3,8.7,3.6l0.1,0.1l63.4,72.5c3.6,3.6,4.6,8.7,2.7,13.3c-1.9,4.7-6.3,7.6-11.4,7.6l-26.5,0.1
			v157.7H359.4z"/>
		<path class="st1" d="M399.7,20c2.5,0,5,0.9,6.9,2.8l63.4,72.5c6.2,6.2,1.9,16.8-6.9,16.8l-29,0.1V270h-72.3l0-157.4l-25,0.1
			c0,0,0,0,0,0c-8.7,0-13.1-10.5-7-16.7l62.9-73C394.7,21,397.2,20,399.7,20 M399.7,15c-4,0-7.7,1.6-10.5,4.4l-0.1,0.1l-0.1,0.1
			l-62.8,72.9c-4.2,4.3-5.3,10.4-3,16c2.3,5.6,7.6,9.1,13.7,9.1h0l0,0l20-0.1l0,152.4v5h5h72.3h5v-5V117.3l24-0.1
			c6.1,0,11.3-3.5,13.7-9.2c2.3-5.6,1.1-11.7-3.1-16l-63.3-72.4l-0.1-0.1l-0.1-0.1C407.4,16.5,403.7,15,399.7,15L399.7,15z"/>
	</g>
	<g>
		<path class="st0" d="M562.9,272.5V115.1l-22.5,0.1c-5.1,0-9.5-2.9-11.4-7.6c-1.9-4.6-1-9.8,2.6-13.3l62.9-73l0.1-0.1
			c2.3-2.3,5.4-3.6,8.7-3.6c3.3,0,6.4,1.3,8.7,3.6l0.1,0.1l63.4,72.5c3.6,3.6,4.6,8.7,2.7,13.3c-1.9,4.7-6.3,7.6-11.4,7.6l-26.5,0.1
			v157.7H562.9z"/>
		<path class="st1" d="M603.3,20c2.5,0,5,0.9,6.9,2.8l63.4,72.5c6.2,6.2,1.9,16.8-6.9,16.8l-29,0.1V270h-72.3l0-157.4l-25,0.1
			c0,0,0,0,0,0c-8.7,0-13.1-10.5-7-16.7l62.9-73C598.2,21,600.7,20,603.3,20 M603.3,15c-4,0-7.7,1.6-10.5,4.4l-0.1,0.1l-0.1,0.1
			l-62.8,72.9c-4.2,4.3-5.3,10.4-3,16c2.3,5.6,7.6,9.1,13.7,9.1h0l0,0l20-0.1l0,152.4v5h5h72.3h5v-5V117.3l24-0.1
			c6.1,0,11.3-3.5,13.7-9.2c2.3-5.6,1.1-11.7-3.1-16l-63.3-72.4l-0.1-0.1l-0.1-0.1C610.9,16.5,607.2,15,603.3,15L603.3,15z"/>
	</g>
	<g>
		<path class="st0" d="M766.4,272.5V115.1l-22.5,0.1c-5.1,0-9.5-2.9-11.4-7.6c-1.9-4.6-1-9.8,2.6-13.3l62.9-73l0.1-0.1
			c2.3-2.3,5.4-3.6,8.7-3.6c3.3,0,6.4,1.3,8.7,3.6l0.1,0.1l63.3,72.5c3.6,3.6,4.6,8.7,2.7,13.3c-1.9,4.7-6.3,7.6-11.4,7.6l-26.5,0.1
			v157.7H766.4z"/>
		<path class="st1" d="M806.8,20c2.5,0,5,0.9,6.9,2.8l63.4,72.5c6.2,6.2,1.9,16.8-6.9,16.8l-29,0.1V270h-72.3l0-157.4l-25,0.1
			c0,0,0,0,0,0c-8.7,0-13.1-10.5-7-16.7l62.9-73C801.7,21,804.2,20,806.8,20 M806.8,15c-4,0-7.7,1.6-10.5,4.4l-0.1,0.1l-0.1,0.1
			l-62.8,72.9c-4.2,4.3-5.3,10.4-3,16c2.3,5.6,7.6,9.1,13.7,9.1h0l0,0l20-0.1l0,152.4v5h5h72.3h5v-5V117.3l24-0.1
			c6.1,0,11.3-3.5,13.7-9.2c2.3-5.6,1.1-11.7-3.1-16l-63.3-72.4l-0.1-0.1l-0.1-0.1C814.4,16.5,810.7,15,806.8,15L806.8,15z"/>
	</g>
	<g>
		<path class="st0" d="M40.4,375.1V186.4l-25.8,0.1c-6.6,0-12.3-3.8-14.8-9.8c-2.5-6-1.2-12.6,3.3-17.3l75.4-87.6l0.1-0.1
			c3-3,7-4.7,11.3-4.7c4.2,0,8.2,1.6,11.2,4.6l0.1,0.1l76,87c4.6,4.6,5.9,11.2,3.4,17.3c-2.5,6.1-8.1,9.9-14.7,9.9l-30.5,0.1v189.1
			H40.4z"/>
		<path class="st1" d="M89.9,71.2c3,0,6,1.1,8.3,3.4l76,87c7.4,7.4,2.2,20.1-8.2,20.1l-34.7,0.1v189.1H44.6l0-188.7l-30,0.1
			c0,0,0,0-0.1,0c-10.5,0-15.7-12.6-8.4-20.1l75.4-87.6C83.9,72.4,86.9,71.2,89.9,71.2 M89.9,62.8c-5.4,0-10.5,2.1-14.3,6L75.4,69
			l-0.2,0.2L0,156.6c-5.6,5.8-7.2,14.3-4.1,21.7c3.1,7.5,10.4,12.4,18.6,12.4h0l0.1,0l21.6-0.1l0,180.3l0,8.4h8.4h86.7h8.4v-8.4
			V190.2l26.4-0.1c8.2,0,15.5-4.9,18.6-12.5c3.1-7.5,1.4-16-4.2-21.7l-75.8-86.8l-0.2-0.2l-0.2-0.2C100.3,64.9,95.3,62.8,89.9,62.8
			L89.9,62.8z"/>
	</g>
	<g>
		<path class="st0" d="M243.9,375.1l0-188.7l-25.8,0.1c-6.6,0-12.3-3.8-14.8-9.8c-2.5-6-1.2-12.6,3.3-17.3L282,71.9l0.1-0.1
			c3-3,7-4.7,11.3-4.7c4.2,0,8.2,1.6,11.2,4.6l0.1,0.1l76,87c4.6,4.6,5.9,11.2,3.4,17.3c-2.5,6.1-8.1,9.9-14.7,9.9L339,186v189.1
			H243.9z"/>
		<path class="st1" d="M293.4,71.2c3,0,6,1.1,8.3,3.4l76,87c7.4,7.4,2.2,20.1-8.2,20.1l-34.7,0.1v189.1h-86.7l0-188.7l-30,0.1
			c0,0,0,0-0.1,0c-10.5,0-15.7-12.6-8.4-20.1l75.4-87.6C287.4,72.4,290.4,71.2,293.4,71.2 M293.4,62.8c-5.4,0-10.5,2.1-14.3,6
			l-0.2,0.2l-0.2,0.2l-75.2,87.4c-5.6,5.8-7.2,14.3-4.1,21.7c3.1,7.5,10.4,12.4,18.6,12.4h0l0.1,0l21.6-0.1l0,180.3l0,8.4h8.4h86.7
			h8.4v-8.4V190.2l26.4-0.1c8.2,0,15.5-4.9,18.6-12.5c3.1-7.5,1.4-16-4.2-21.7L308,69.1l-0.2-0.2l-0.2-0.2
			C303.8,64.9,298.8,62.8,293.4,62.8L293.4,62.8z"/>
	</g>
	<g>
		<path class="st0" d="M447.4,375.1V186.4l-25.8,0.1c-6.6,0-12.3-3.8-14.8-9.8c-2.5-6-1.2-12.6,3.3-17.3l75.4-87.6l0.1-0.1
			c3-3,7-4.7,11.3-4.7c4.2,0,8.2,1.6,11.2,4.6l0.1,0.1l76,87c4.6,4.6,5.9,11.2,3.4,17.3c-2.5,6.1-8.1,9.9-14.7,9.9l-30.5,0.1v189.1
			H447.4z"/>
		<path class="st1" d="M496.9,71.2c3,0,6,1.1,8.3,3.4l76,87c7.4,7.4,2.2,20.1-8.2,20.1l-34.7,0.1l0,189.1h-86.7l0-188.7l-30,0.1
			c0,0,0,0-0.1,0c-10.5,0-15.7-12.6-8.4-20.1l75.4-87.6C490.9,72.4,493.9,71.2,496.9,71.2 M496.9,62.8c-5.4,0-10.5,2.1-14.3,6
			l-0.2,0.2l-0.2,0.2L407,156.6c-5.6,5.8-7.2,14.3-4.1,21.7c3.1,7.5,10.4,12.4,18.6,12.4h0l0.1,0l21.6-0.1l0,180.3l0,8.4h8.4h86.7
			h8.4v-8.4l0-180.7l26.4-0.1c8.2,0,15.5-4.9,18.6-12.5c3.1-7.5,1.4-16-4.2-21.7l-75.8-86.8l-0.2-0.2l-0.2-0.2
			C507.3,64.9,502.3,62.8,496.9,62.8L496.9,62.8z"/>
	</g>
	<g>
		<path class="st0" d="M650.9,375.1V186.4l-25.8,0.1c-6.6,0-12.3-3.8-14.8-9.8c-2.5-6-1.2-12.6,3.3-17.3L689,71.9l0.1-0.1
			c3-3,7-4.7,11.3-4.7c4.2,0,8.2,1.6,11.2,4.6l0.1,0.1l76,87c4.6,4.6,5.9,11.2,3.4,17.3c-2.5,6.1-8.1,9.9-14.7,9.9L746,186v189.1
			H650.9z"/>
		<path class="st1" d="M700.4,71.2c3,0,6,1.1,8.3,3.4l76,87c7.4,7.4,2.2,20.1-8.2,20.1l-34.7,0.1v189.1h-86.7l0-188.7l-30,0.1
			c0,0,0,0-0.1,0c-10.5,0-15.7-12.6-8.4-20.1l75.4-87.6C694.4,72.4,697.4,71.2,700.4,71.2 M700.4,62.8c-5.4,0-10.5,2.1-14.3,6
			l-0.2,0.2l-0.2,0.2l-75.2,87.4c-5.6,5.8-7.2,14.3-4.1,21.7c3.1,7.5,10.4,12.4,18.6,12.4h0l0.1,0l21.6-0.1l0,180.3l0,8.4h8.4h86.7
			h8.4v-8.4V190.2l26.4-0.1c8.2,0,15.5-4.9,18.6-12.5c3.1-7.5,1.4-16-4.2-21.7l-75.8-86.8l-0.2-0.2l-0.2-0.2
			C710.8,64.9,705.8,62.8,700.4,62.8L700.4,62.8z"/>
	</g>
</g>
</svg>
