<?xml version="1.0" encoding="utf-8"?>
<!-- Generator: Adobe Illustrator 21.1.0, SVG Export Plug-In . SVG Version: 6.00 Build 0)  -->
<svg version="1.1" id="Layer_1" xmlns="http://www.w3.org/2000/svg" xmlns:xlink="http://www.w3.org/1999/xlink" x="0px" y="0px"
	 viewBox="0 0 50 50" style="enable-background:new 0 0 50 50;" xml:space="preserve">
<style type="text/css">
	.st0{fill:#CAE5FF;}
	.st1{fill:#007EA7;}
</style>
<g>
	<g>
		<path class="st0" d="M33.5,12.2l-7.7-8.8c-0.5-0.5-1.2-0.5-1.7,0l-7.7,8.9c-0.7,0.8-0.2,2,0.9,2l3,0C20,19.3,22,22.7,25,25h4.2
			l0-10.8l3.5,0C33.8,14.2,34.3,12.9,33.5,12.2z"/>
		<path class="st1" d="M39.7,9.1L28,9.9c-1.1,0-1.6,1.3-0.8,2l2.2,2.1c-3.8,3.3-4.8,7.1-4.3,10.9l2.9,2.9l7.6-7.6l2.5,2.5
			c0.8,0.7,2,0.2,2-0.9l0.8-11.7C40.9,9.6,40.3,9.1,39.7,9.1z"/>
		<path class="st0" d="M46.7,24.1l-8.9-7.7c-0.8-0.7-2-0.2-2,0.9l0,3C30.7,20,27.3,22,25,25l0,4.2l10.8,0l0,3.5c0,1.1,1.3,1.6,2,0.8
			l8.8-7.7C47.1,25.3,47.1,24.6,46.7,24.1z"/>
		<path class="st1" d="M40.1,28c0-1.1-1.3-1.6-2-0.8l-2.1,2.2c-3.3-3.8-7.1-4.8-10.9-4.3l-2.9,2.9l7.6,7.6l-2.5,2.5
			c-0.8,0.8-0.2,2,0.9,2l11.7,0.8c0.7,0,1.2-0.5,1.2-1.2L40.1,28z"/>
		<path class="st0" d="M32.7,35.7l-3,0C30,30.7,28,27.3,25,25l-4.2,0l0,10.8l-3.5,0c-1.1,0-1.6,1.3-0.8,2l7.7,8.8
			c0.5,0.5,1.2,0.5,1.7,0l7.7-8.9C34.3,37,33.7,35.7,32.7,35.7z"/>
		<path class="st1" d="M20.7,35.9c3.8-3.3,4.8-7.1,4.3-10.9l-2.9-2.9l-7.6,7.6l-2.5-2.5c-0.8-0.7-2-0.2-2,0.9L9.1,39.7
			c0,0.7,0.5,1.2,1.2,1.2L22,40.1c1.1,0,1.6-1.3,0.8-2L20.7,35.9z"/>
		<path class="st0" d="M25,21.7l0-0.9l-10.8,0l0-3.5c0-1.1-1.3-1.6-2-0.8l-8.8,7.7c-0.5,0.5-0.5,1.2,0,1.7l8.9,7.7
			c0.8,0.7,2,0.2,2-0.9l0-3C19.3,30,22.7,28,25,25C24.9,23.9,24.9,22.8,25,21.7z"/>
		<path class="st1" d="M20.3,14.5L20.3,14.5L20.3,14.5c0-0.1,0-0.1,0-0.2l-3,0c-1.1,0-1.6-1.3-0.9-2l2.2-2.6l-8.4-0.6
			c-0.7,0-1.2,0.5-1.2,1.2L9.9,22c0,1.1,1.3,1.6,2,0.8l2.1-2.2c3.3,3.8,7.1,4.8,10.9,4.3C22.1,22.7,20,19.4,20.3,14.5z"/>
	</g>
</g>
</svg>
