<?xml version="1.0" encoding="utf-8"?>
<!-- Generator: Adobe Illustrator 21.1.0, SVG Export Plug-In . SVG Version: 6.00 Build 0)  -->
<svg version="1.1" id="Layer_1" xmlns="http://www.w3.org/2000/svg" xmlns:xlink="http://www.w3.org/1999/xlink" x="0px" y="0px"
	 viewBox="0 0 246 68" style="enable-background:new 0 0 246 68;" xml:space="preserve">
<style type="text/css">
	.st0{display:none;}
	.st1{display:inline;}
	.st2{fill:#FFFFFF;}
	.st3{opacity:0.5;fill:#FFFFFF;}
	.st4{opacity:0.5;}
	.st5{fill:#5BC0EB;}
	.st6{fill:none;stroke:#000000;stroke-width:2;stroke-miterlimit:10;}
	.st7{fill:none;stroke:#000000;stroke-width:6;stroke-miterlimit:10;}
</style>
<g>
	<g>
		<path d="M23.8,264l-10-3.7c-3.1-1.1-3.4-1.7-3.4-4v-0.8c0-1.9,1.8-4,4.8-4h5.4c2.8,0,4.6,1.7,4.6,2.9l0.1,4c0,1,0.8,1.8,1.8,1.8
			h0.2c1,0,1.8-0.9,1.8-1.8c0-0.2,0-1.2,0-2.3s0-2.1,0-2.3c0-1.2-0.6-2.4-1.8-3.6c-0.8-0.8-3-2.5-6.8-2.5H15c-4.4,0-8.3,3.6-8.3,7.8
			v1.3c0,4.2,2.1,5.8,5.6,7.1l9.9,3.6c3.2,1.2,3.4,1.9,3.4,3.9v1.6c0,1.8-1.3,3.8-4.9,3.8h-6.5c-2.4,0-4.1-1.7-4.1-2.9v-4.4
			c0-1-0.8-1.8-1.8-1.8H8.1c-1,0-1.8,0.9-1.8,1.8c0,0.2,0,1.3,0,2.4c0,1.2,0,2.3,0,2.5c0,1.3,1.1,3,1.9,3.7c1.2,1.1,3,2.4,6.2,2.4
			H21c5.6,0,8.6-3.9,8.6-7.6v-1.8C29.5,267,27.3,265.3,23.8,264z"/>
		<path d="M95.5,247.9H87c-0.9,0-1.7,0.8-1.7,1.7v0.3c0,0.9,0.7,1.7,1.6,1.7l0,0l0,0c1.3,0,2.3,1.1,2.3,2.4v20.3
			c0,1.3-1,2.3-2.3,2.4l0,0c-0.9,0-1.7,0.8-1.7,1.7v0.3c0,0.9,0.7,1.7,1.7,1.7h8.5c0.9,0,1.7-0.8,1.7-1.7v-0.3
			c0-0.9-0.7-1.7-1.6-1.7l0,0l0,0c-1.3,0-2.3-1.1-2.3-2.4V254c0-1.3,1-2.3,2.3-2.4l0,0c0.9,0,1.7-0.8,1.7-1.7v-0.3
			C97.2,248.7,96.4,247.9,95.5,247.9z M95.5,248.6L95.5,248.6L95.5,248.6C95.4,248.6,95.5,248.6,95.5,248.6z"/>
		<path d="M121.9,250.4c-1.5-1.3-4-2.7-7.3-2.7h-3.2c-6.9,0-11.6,4.7-11.6,11.8v9.9c0,6.4,4.9,11.2,11.3,11.2h3.4c5.1,0,10-4,10-8.2
			v-1.9c0-0.8-0.7-1.8-1.8-1.8h-0.2c-1,0-1.8,0.8-1.8,1.7l-0.1,1.7c-0.1,2.6-3.7,4.6-6,4.6h-3.4c-4.5,0-7.6-3.1-7.6-7.7v-9.4
			c0-5.3,2.9-8.3,7.8-8.3h3.2c2.2,0,6,2.1,6,4.4l0.1,1.8c0,1,0.8,1.8,1.8,1.8h0.2c1,0,1.8-0.9,1.8-1.8c0-0.2,0-0.7,0-1.2
			c0-0.6,0-1.1,0-1.3C124.7,254,123.7,251.9,121.9,250.4z"/>
		<path d="M150.5,273h-0.3c-0.9,0-1.7,0.7-1.7,1.6v0.4c0,0.9-0.7,1.6-1.6,1.6h-10.2c-1.4,0-2.2-0.9-2.2-2.4v-7.6
			c0-0.9,0.7-1.6,1.6-1.6h7.7c0.9,0,1.7-0.8,1.7-1.7V263c0-0.9-0.7-1.7-1.7-1.7h-7.7c-0.9,0-1.6-0.7-1.6-1.6v-6.2
			c0-0.9,0.7-1.6,1.6-1.6h10.5c0.9,0,1.6,0.7,1.6,1.6l0,0c0,0.9,0.8,1.7,1.7,1.7h0.3c0.9,0,1.7-0.7,1.7-1.7v-3.6
			c0-0.9-0.7-1.7-1.7-1.7h-21c-0.9,0-1.7,0.8-1.7,1.7v0.3c0,0.9,0.7,1.7,1.6,1.7l0,0h1.4v22.8c0,3.3,2.6,5.9,5.9,5.9h14
			c0.9,0,1.7-0.8,1.7-1.7v-4C152.2,273.7,151.4,273,150.5,273z"/>
		<path d="M179.5,264.2c-0.7-0.8-0.8-1.9-0.2-2.8c0.7-1.1,1.1-2.4,1.1-3.9v-1.6c0-4.7-3.6-8.1-8.5-8.1h-15.4c-0.9,0-1.7,0.8-1.7,1.7
			v0.3c0,0.9,0.7,1.7,1.6,1.7l0,0l0,0c1.3,0,2.3,1.1,2.3,2.4v20.3c0,1.3-1,2.3-2.3,2.4l0,0c-0.9,0-1.7,0.8-1.7,1.7v0.3
			c0,0.9,0.7,1.7,1.7,1.7h15.8c5.9,0,9.1-4.3,9.1-8.6v-2C181.5,267.4,180.7,265.6,179.5,264.2z M176.6,257.5c0,2.1-1.7,3.9-3.8,3.9
			h-7.7c-1.3,0-2.4-1.1-2.4-2.4v-5c0-1.3,1.1-2.4,2.4-2.4h6.7c2.9,0,4.8,1.7,4.8,4.5V257.5z M162.8,267.5c0-1.3,1.1-2.4,2.4-2.4h7.6
			c1.8,0,4.8,0.6,4.8,4.8v1.7c0,2.3-1.5,4.9-5.6,4.9h-6.9c-1.3,0-2.4-1.1-2.4-2.4L162.8,267.5L162.8,267.5z"/>
		<path d="M199.5,247.7h-3.8c-6.9,0-11.6,4.7-11.6,11.8v9.5c0,7.1,4.4,11.6,11.2,11.6h3.8c6.9,0,11.6-4.7,11.6-11.8v-9.5
			C210.7,252.2,206.3,247.7,199.5,247.7z M206.8,259.5v9c0,5.3-2.9,8.3-7.8,8.3h-3.5c-4.9,0-7.5-2.8-7.5-8v-9c0-5.3,2.9-8.3,7.8-8.3
			h3.5C204.1,251.5,206.8,254.3,206.8,259.5z"/>
		<path d="M238,247.9h-22.7c-0.9,0-1.7,0.8-1.7,1.7v4.9c0,0.9,0.8,1.7,1.7,1.7h0.3c0.9,0,1.7-0.7,1.7-1.6l0,0c0-1.6,1.3-2.8,2.9-2.8
			h1.6c1.6,0,2.9,1.3,2.9,2.9v19.2c0,1.6-1.3,2.8-2.8,2.9h-0.3c-0.9,0-1.7,0.8-1.7,1.7v0.3c0,0.9,0.7,1.7,1.7,1.7h10
			c0.9,0,1.7-0.8,1.7-1.7v-0.3c0-0.9-0.7-1.7-1.6-1.7l0,0h-0.3c-1.6,0-2.8-1.3-2.8-2.9v-19.4c0-1.6,1.3-2.9,2.9-2.9h1.6
			c1.6,0,2.8,1.2,2.9,2.8l0,0c0,0.9,0.8,1.7,1.7,1.7h0.3c0.9,0,1.7-0.7,1.7-1.7v-4.9C239.7,248.7,238.9,247.9,238,247.9z
			 M221.7,279.7L221.7,279.7L221.7,279.7L221.7,279.7z"/>
		<path d="M50,247.9H34.3c-0.9,0-1.7,0.8-1.7,1.7v0.3c0,0.9,0.7,1.7,1.6,1.7l0,0l0,0c1.3,0,2.4,1.1,2.4,2.4v25.7
			c0,0.9,0.8,1.7,1.7,1.7h0.3c0.9,0,1.7-0.7,1.7-1.7l0.1-6.9c0-1.3,1.1-2.4,2.4-2.4h7.3c5.4,0,8.8-4.5,8.8-8.6V257
			C59,251.7,55.2,247.9,50,247.9z M40.5,254.1c0-1.3,1.1-2.4,2.4-2.4h6.8c3.5,0,5.4,2,5.4,5.6v4.2c0,2-1.4,5.2-5.2,5.2h-7
			c-1.3,0-2.4-1.1-2.4-2.4V254.1z"/>
	</g>
	<path d="M81,276.7l-9.7-0.1c-1.4,0-2.2-0.9-2.2-2.4V254c0-1.3,1-2.3,2.3-2.4c0.9,0,1.7-0.8,1.7-1.7v-0.3c0-0.9-0.7-1.7-1.7-1.7
		h-8.5c-0.9,0-1.7,0.8-1.7,1.7v0.3c0,0.9,0.7,1.7,1.6,1.7l0,0l0,0c1.3,0,2.3,1.1,2.3,2.4v20.4c0,3.3,2.6,5.9,5.9,5.9h10
		c0.9,0,1.7-0.8,1.7-1.7v-0.3C82.7,277.4,81.9,276.7,81,276.7z"/>
	<path d="M81.5,248.6L81.5,248.6L81.5,248.6C81.4,248.6,81.5,248.6,81.5,248.6z"/>
</g>
<g>
	<path d="M-208.4,26.3c5.4,0,8.7,3.2,8.7,8.3V46h-3.8v-5.1h-9.9V46h-3.8V34.6C-217.1,29.4-213.8,26.3-208.4,26.3z M-208.4,29.6
		c-3.1,0-5,1.9-5,5v3.1h9.9l0-3.1C-203.5,31.5-205.3,29.6-208.4,29.6z"/>
	<path d="M-180.9,36.6V46h-3.7v-8.3c0-2.1-1.3-3.4-3.3-3.4c-2.5,0-3.9,1.8-3.9,4.3V46h-3.6V31h3.6v2.8c1.1-2,2.9-2.9,5.4-2.9
		C-183,30.9-180.9,33.1-180.9,36.6z"/>
	<path d="M-139.9,36.2c0,5.7-4.3,9.8-10.4,9.8h-8V26.4h8.1C-144.2,26.4-139.9,30.5-139.9,36.2z M-143.8,36.2c0-3.8-2.8-6.5-6.4-6.5
		h-4.3v13h4.5C-146.4,42.7-143.8,40-143.8,36.2z"/>
	<path d="M-208.4-27.5c5.4,0,8.7,3.2,8.7,8.3v11.4h-3.8v-5.1h-9.9v5.1h-3.8v-11.4C-217.1-24.3-213.8-27.5-208.4-27.5z M-208.4-24.1
		c-3.1,0-5,1.9-5,5v3.1h9.9l0-3.1C-203.5-22.2-205.3-24.1-208.4-24.1z"/>
	<path d="M-198.1-11.1h0.7c1.5,0,2.7-1.1,2.7-2.7c0-1.6-1.2-2.8-2.7-2.8h-0.6V-20h0.9c3.7,0,6.4,2.5,6.4,6.1c0,3.6-2.7,6.1-6.5,6.1
		h-0.9V-11.1z"/>
	<path d="M-176.4-27.5c5.4,0,8.7,3.2,8.7,8.3v11.4h-3.8v-5.1h-9.9v5.1h-3.8v-11.4C-185.1-24.3-181.8-27.5-176.4-27.5z M-176.4-24.1
		c-3.1,0-5,1.9-5,5v3.1h9.9l0-3.1C-171.5-22.2-173.3-24.1-176.4-24.1z"/>
	<path d="M-125.8,41.1l2.1,2c-1.7,2-3.9,3.1-6.6,3.1c-4.7,0-7.9-3.1-7.9-7.6c0-4.5,2.9-7.6,7.6-7.6c4.2-0.1,7,2.5,7.2,6.7l-10.7,3
		c0.7,1.6,2.2,2.6,4,2.6C-128.5,43.2-127,42.5-125.8,41.1z M-134.5,38.2l7.5-2.2c-0.6-1.6-1.8-2.3-3.4-2.3
		C-132.9,33.8-134.4,35.3-134.5,38.2z"/>
	<path d="M-114.1,34.1c-2.4,0-4.1,1.8-4.1,4.4c0,2.7,1.7,4.5,4.1,4.5c1.7,0,3.1-0.6,4-1.8l2.3,1.9c-1.3,1.9-3.6,3-6.5,3
		c-4.5,0-7.6-3.1-7.6-7.6c0-4.6,3.1-7.6,7.6-7.6c2.7,0,4.9,1,6.3,2.7l-2.2,2.1C-111.1,34.7-112.4,34.1-114.1,34.1z"/>
	<path d="M-101.5,26.7c0,1.2-0.8,2-2,2c-1.1,0-2-0.8-2-2s0.8-2,2-2C-102.3,24.7-101.5,25.6-101.5,26.7z M-101.7,31v15h-3.6V31
		H-101.7z"/>
	<path d="M-92.7,33.7c-1.2,0-2,0.4-2,1.3c0,2.5,7.9,1.2,7.9,6.6c0,3.1-2.7,4.5-5.9,4.5c-2.3,0-4.6-0.7-6.2-2.1l1.3-2.5
		c1.4,1.2,3.4,1.8,5.1,1.8c1.3,0,2.2-0.4,2.2-1.4c0-2.8-7.8-1.3-7.8-6.6c0-3.1,2.6-4.5,5.7-4.5c2,0,4,0.6,5.5,1.6l-1.3,2.6
		C-89.7,34.2-91.4,33.7-92.7,33.7z"/>
	<path d="M-79.9,26.7c0,1.2-0.8,2-2,2c-1.1,0-2-0.8-2-2s0.8-2,2-2C-80.7,24.7-79.9,25.6-79.9,26.7z M-80,31v15h-3.6V31H-80z"/>
	<path d="M-61.7,38.5c0,4.6-3.2,7.6-7.9,7.6c-4.7,0-7.9-3.1-7.9-7.6c0-4.5,3.2-7.6,7.9-7.6C-64.9,30.9-61.7,34-61.7,38.5z
		 M-73.9,38.5c0,2.7,1.7,4.5,4.3,4.5c2.5,0,4.2-1.8,4.2-4.5c0-2.7-1.7-4.5-4.2-4.5C-72.1,34-73.9,35.9-73.9,38.5z"/>
	<path d="M-44.7,36.6V46h-3.7v-8.3c0-2.1-1.3-3.4-3.3-3.4c-2.5,0-3.9,1.8-3.9,4.3V46h-3.6V31h3.6v2.8c1.1-2,2.9-2.9,5.4-2.9
		C-46.8,30.9-44.7,33.1-44.7,36.6z"/>
</g>
<text transform="matrix(1 0 0 1 33.8909 -72.8449)" style="font-family:'MontserratAlternates-Medium'; font-size:28px;">AnyDecision</text>
<text transform="matrix(1 0 0 1 11.7854 -44.5116)" style="font-family:'BigJohn'; font-size:28px;">Any Decision</text>
<text transform="matrix(1 0 0 1 286.2854 -44.5114)" style="font-family:'BigJohn'; font-size:28px;">Any decision</text>
<g>
	<path d="M13.6,44.5l9.8-21h2.5l9.9,21h-5.5L29,41.8h-8.6l-1.3,2.7H13.6z M22.6,37.1h4.3l-2.1-4.6L22.6,37.1z"/>
	<path d="M50.6,44.5l-6.9-9.9v9.9h-5.5v-21h5.2l6.9,9.9v-9.9h5.5v21H50.6z"/>
	<path d="M71.4,36.8v7.7h-5.5v-7.7l-7.7-13.3h6.4l4,7l4.1-7h6.4L71.4,36.8z"/>
	<path d="M94,23.5h7.8c5.8,0,10.5,4.7,10.5,10.5s-4.7,10.5-10.5,10.5H94V23.5z M99.5,39h2.3c2.7,0,5-2.2,5-5c0-2.7-2.2-5-5-5h-2.3
		V39z"/>
	<path d="M116.1,23.5h13v4.6h-7.5v3.4h6.7v4.6h-6.7V40h7.5v4.5h-13V23.5z"/>
	<path d="M146.6,30.4c-0.9-0.9-2.1-1.4-3.5-1.4c-2.9,0-4.9,2.1-4.9,4.9c0,2.9,2.1,4.9,4.9,4.9c1.4,0,2.7-0.5,3.5-1.4l3.9,3.9
		c-1.9,1.9-4.5,3.1-7.4,3.1c-5.8,0-10.5-4.7-10.5-10.5s4.7-10.5,10.5-10.5c2.9,0,5.5,1.1,7.4,3.1L146.6,30.4z"/>
	<path d="M186.5,44.5H181v-21h5.5V44.5z"/>
	<path class="st0" d="M172.2,29.9c0-0.9-0.7-1.6-1.6-1.6s-1.6,0.7-1.6,1.6c0,0.9,0.7,1.6,1.6,1.6c2,0,3.9,1,5.1,2.5
		c0.9,1.1,1.4,2.5,1.4,4.1c0,3.6-2.9,6.4-6.5,6.4s-6.5-2.8-6.5-6.5h4.9c0,0.9,0.7,1.6,1.6,1.6s1.6-0.7,1.6-1.6s-0.7-1.6-1.6-1.6
		c-3.6,0-6.4-2.9-6.4-6.4s2.9-6.5,6.4-6.5s6.5,2.9,6.5,6.4H172.2z"/>
	<path d="M160.3,44.5h-5.5v-21h5.5V44.5z"/>
	<path d="M200.8,23.5c5.8,0,10.5,4.7,10.5,10.5s-4.7,10.5-10.5,10.5s-10.5-4.7-10.5-10.5S195,23.5,200.8,23.5z M200.8,29
		c-2.7,0-5,2.2-5,5c0,2.7,2.2,5,5,5c2.8,0,5-2.3,5-5C205.8,31.2,203.5,29,200.8,29z"/>
	<path d="M227.5,44.5l-6.9-9.9v9.9h-5.5v-21h5.2l6.9,9.9v-9.9h5.5v21H227.5z"/>
	<path d="M175.7,34c-1.2-1.5-3-2.5-5.1-2.5c-0.9,0-1.6-0.7-1.6-1.6c0-0.9,0.7-1.6,1.6-1.6h4.4v-4.8h-4.5v0c-3.6,0-6.4,2.9-6.4,6.5
		c0,1.9,0.8,3.6,2.1,4.8c1.1,1,2.7,1.7,4.3,1.7c0.9,0,1.6,0.7,1.6,1.6s-0.7,1.6-1.6,1.6v4.9c3.6,0,6.5-2.9,6.5-6.4
		C177.1,36.5,176.6,35.1,175.7,34z"/>
</g>
<g class="st0">
	<path class="st1" d="M90.3,30.9v14.7c0,4.3-3,7.2-7.6,7.2c-2.2,0-4.8-0.9-6.4-2.2l1-2.7c1.4,1,3.4,1.7,5.1,1.8
		c2.7,0,4.3-1.6,4.3-4.2v-2.2c-1,1.7-2.6,2.5-4.9,2.6c-3.7,0-6-2.2-6-5.8v-9.3h3.7v8.2c0,2.1,1.3,3.4,3.3,3.4c2.4,0,3.9-1.7,3.9-4.5
		v-7.1H90.3z"/>
</g>
<text transform="matrix(1 0 0 1 57.0085 -104.3449)" style="font-family:'Strangeways'; font-size:28px;">Anydecision</text>
<path d="M-166.4,30.9v7.4c0,2.5-1.5,4.3-3.9,4.3c-2.1,0-3.3-1.3-3.3-3.4v-8.3h-3.7v9.4c0,3.6,2.1,5.8,5.5,5.8c2.4,0,4.3-1,5.4-2.9
	v2.5c0,2.6-1.7,4.2-4.3,4.2c-1.7-0.1-3.7-0.8-5.1-1.8l-1,2.7c1.6,1.3,4.2,2.2,6.4,2.2c4.5,0,7.6-2.7,7.6-6.9v-15H-166.4z"/>
<path d="M-165.3-25.2l3.1,0c5.2,0,8.3,3.3,8.3,8.7c0,5.4-3.2,8.7-8.3,8.7l-3.1,0v-3.8l3.1,0c3.1,0,5-1.9,5-4.9c0-3.1-1.9-5-5-5
	l-3.1,0V-25.2z"/>
<g>
	<path d="M-117.1-17.6c0,5.7-4.3,9.8-10.4,9.8h-8v-19.6h8.1C-121.4-27.4-117.1-23.3-117.1-17.6z M-121-17.5c0-3.8-2.8-6.5-6.4-6.5
		h-4.3v13h4.5C-123.7-11.1-121-13.7-121-17.5z"/>
</g>
<g>
	<path d="M-136.2-7v-5.1h-8.4V-7h-5.3v-12.1c0-5.6,3.6-9.1,9.4-9.1c5.8,0,9.5,3.6,9.5,9.1V-7H-136.2z M-136.2-16.8l0-2.4
		c0-2.7-1.6-4.2-4.2-4.2c-2.7,0-4.2,1.5-4.2,4.2v2.4H-136.2z"/>
	<path class="st2" d="M-140.4-27.5c5.4,0,8.7,3.2,8.7,8.3v11.4h-3.8v-5.1h-9.9v5.1h-3.8v-11.4C-149.1-24.3-145.8-27.5-140.4-27.5
		 M-145.4-16h9.9l0-3.1c0-3.1-1.9-5-4.9-5c-3.1,0-5,1.9-5,5V-16 M-140.4-29c-6.2,0-10.2,3.9-10.2,9.8v11.4v1.5h1.5h3.8h1.5v-1.5
		v-3.6h6.9v3.6v1.5h1.5h3.8h1.5v-1.5v-11.4C-130.2-25.1-134.2-29-140.4-29L-140.4-29z M-143.9-17.5v-1.6c0-2.2,1.2-3.5,3.5-3.5
		c2.2,0,3.4,1.2,3.4,3.5l0,1.6H-143.9L-143.9-17.5z"/>
</g>
<g>
	<path d="M282.5,69.9h5.5v21h-5.5V69.9z"/>
	<path d="M300,76.3c0-0.9-0.7-1.6-1.6-1.6s-1.6,0.7-1.6,1.6c0,0.9,0.7,1.6,1.6,1.6c2,0,3.9,1,5.1,2.5c0.9,1.1,1.4,2.5,1.4,4.1
		c0,3.6-2.9,6.4-6.5,6.4s-6.5-2.8-6.5-6.5h4.9c0,0.9,0.7,1.6,1.6,1.6s1.6-0.7,1.6-1.6s-0.7-1.6-1.6-1.6c-3.6,0-6.4-2.9-6.4-6.4
		s2.9-6.5,6.4-6.5s6.5,2.9,6.5,6.4H300z"/>
	<path d="M308.8,69.9h5.5v21h-5.5V69.9z"/>
</g>
<g>
	<path d="M347.3,63.6l0,5.5l-21,0v-5.5L347.3,63.6z"/>
	<path d="M340.9,81.1c0.9,0,1.6-0.7,1.6-1.6s-0.7-1.6-1.6-1.6c-0.9,0-1.6,0.7-1.6,1.6c0,2-1,3.9-2.5,5.1c-1.1,0.9-2.5,1.4-4.1,1.4
		c-3.6,0-6.4-2.9-6.4-6.5s2.8-6.5,6.5-6.5v4.9c-0.9,0-1.6,0.7-1.6,1.6s0.7,1.6,1.6,1.6s1.6-0.7,1.6-1.6c0-3.6,2.9-6.4,6.4-6.4
		s6.5,2.9,6.5,6.4s-2.9,6.5-6.4,6.5V81.1z"/>
	<path d="M347.3,89.9v5.5l-21,0v-5.5L347.3,89.9z"/>
</g>
<g>
	<rect x="359.3" y="63.6" width="21" height="5.5"/>
	<rect x="367.1" y="63.6" class="st3" width="5.5" height="5.5"/>
	<path d="M380.3,89.9v5.5l-21,0v-5.5L380.3,89.9z"/>
	<path class="st4" d="M365.7,86c-3.6,0-6.4-2.9-6.4-6.5s2.9-6.4,6.5-6.4s6.4,2.9,6.4,6.4c0,0.9,0.7,1.6,1.6,1.6s1.6-0.7,1.6-1.6
		s-0.7-1.6-1.6-1.6v-4.8c3.7,0,6.5,2.8,6.5,6.4s-2.8,6.5-6.4,6.5c-1.5,0-2.9-0.5-4.1-1.4c-1.5-1.2-2.4-3-2.4-5.1
		c0-0.9-0.8-1.6-1.7-1.6c-0.9,0-1.6,0.7-1.6,1.6s0.7,1.6,1.6,1.6V86z"/>
	<path d="M373.9,81.1c0.9,0,1.6-0.7,1.6-1.6s-0.7-1.6-1.6-1.6c-0.9,0-1.7,0.7-1.7,1.6c0,2-0.9,3.9-2.4,5.1c-1.1,0.9-2.5,1.4-4.1,1.4
		c-3.6,0-6.4-2.9-6.4-6.5s2.8-6.4,6.5-6.4v4.8c-0.9,0-1.6,0.7-1.6,1.6s0.7,1.6,1.6,1.6s1.6-0.7,1.6-1.6c0-3.6,2.9-6.4,6.4-6.4
		s6.5,2.9,6.5,6.4s-2.9,6.5-6.4,6.5V81.1z"/>
</g>
<g>
	<g>
		<rect x="396.5" y="63.5" width="7.7" height="5.5"/>
		<rect x="409.7" y="63.5" width="7.7" height="5.5"/>
	</g>
	<path d="M417.5,89.7v5.5l-21,0v-5.5H417.5z"/>
	<path d="M411,72.9c-1.5,0-2.9,0.5-4,1.4c-1.1-0.9-2.5-1.4-4-1.4c-3.6,0-6.5,2.9-6.5,6.4s2.9,6.5,6.4,6.5c1.5,0,2.9-0.5,4.1-1.4
		c1.1,0.9,2.5,1.4,4.1,1.4c3.6,0,6.4-2.9,6.4-6.5S414.6,72.9,411,72.9z M403,81c-0.9,0-1.6-0.7-1.6-1.6c0-0.9,0.7-1.5,1.6-1.6
		c0.9,0,1.6,0.7,1.6,1.6C404.6,80.2,403.9,81,403,81z M411,81c-0.9,0-1.6-0.7-1.6-1.6c0-0.9,0.8-1.5,1.6-1.6c0.9,0,1.6,0.7,1.6,1.6
		C412.6,80.2,411.9,81,411,81z"/>
</g>
<g>
	<g>
		<rect x="433.3" y="63.5" class="st5" width="7.7" height="5.5"/>
		<rect x="446.6" y="63.5" class="st5" width="7.7" height="5.5"/>
	</g>
	<path class="st5" d="M454.3,89.7v5.5l-21,0v-5.5H454.3z"/>
	<path class="st5" d="M437.2,82c-0.9,0-1.6-0.7-1.6-1.6c0-0.9,0.7-1.5,1.6-1.6c0.9,0,1.6,0.7,1.6,1.6C438.8,81.2,438,82,437.2,82z"
		/>
	<path class="st5" d="M450.5,82c-0.9,0-1.6-0.7-1.6-1.6c0-0.9,0.8-1.5,1.6-1.6c0.9,0,1.6,0.7,1.6,1.6C452,81.2,451.3,82,450.5,82z"
		/>
</g>
<g>
	<path class="st4" d="M340.9,121.1c0.9,0,1.6-0.7,1.6-1.6s-0.7-1.6-1.6-1.6c-0.9,0-1.6,0.7-1.6,1.6c0,2-1,3.9-2.5,5.1
		c-1.1,0.9-2.5,1.4-4.1,1.4c-3.6,0-6.4-2.9-6.4-6.5s2.8-6.5,6.5-6.5v4.9c-0.9,0-1.6,0.7-1.6,1.6s0.7,1.6,1.6,1.6s1.6-0.7,1.6-1.6
		c0-3.6,2.9-6.4,6.4-6.4s6.5,2.9,6.5,6.4s-2.9,6.5-6.4,6.5V121.1z"/>
	<rect x="326.3" y="103.5" width="21" height="5.5"/>
	<path d="M342.4,119.5c0-0.9-0.7-1.6-1.6-1.6c-0.9,0-1.6,0.7-1.6,1.6c0,2-1,3.9-2.5,5.1c-1.1,0.9-2.5,1.4-4.1,1.4
		c-3.6,0-6.4-2.9-6.4-6.5l4.9,0c0,0.9,0.7,1.6,1.6,1.6s1.6-0.7,1.6-1.6c0-3.6,2.9-6.4,6.4-6.4s6.5,2.9,6.5,6.4L342.4,119.5z"/>
	<rect x="334" y="103.5" class="st3" width="5.5" height="5.5"/>
</g>
<g>
	<path class="st5" d="M341.1,154.7c0-0.9-0.7-1.6-1.6-1.6c-0.9,0-1.6,0.7-1.6,1.6c0,2-1,3.9-2.5,5.1c-1.1,0.9-2.5,1.4-4.1,1.4
		c-3.6,0-6.4-2.9-6.4-6.5h4.9c0,0.9,0.7,1.6,1.6,1.6c0.9,0,1.6-0.7,1.6-1.6c0-3.6,2.9-6.4,6.4-6.4s6.5,2.9,6.5,6.4H341.1z"/>
	<g>
		<rect x="324.9" y="138.7" class="st5" width="7.7" height="5.5"/>
		<rect x="338.2" y="138.7" class="st5" width="7.7" height="5.5"/>
	</g>
</g>
<g>
	<g>
		<rect x="413.3" y="110.1" class="st5" width="7.7" height="5.5"/>
		<rect x="426.6" y="110.1" class="st5" width="7.7" height="5.5"/>
	</g>
</g>
<g>
	<path class="st5" d="M434.3,136.3v5.5h-21v-5.5H434.3z"/>
</g>
<path class="st5" d="M417.7,131.3c2.4,0,4.3-1.9,4.3-4.3c0-1.4-0.6-2.6-1.6-3.4c-0.8-0.6-1.7-0.9-2.7-0.9c-2.4,0-4.3,1.9-4.3,4.4
	C413.3,129.4,415.3,131.3,417.7,131.3z M417.7,125.4c0.9,0,1.6,0.7,1.6,1.6c0,0.9-0.8,1.5-1.6,1.6c-0.9,0-1.6-0.7-1.6-1.6
	C416.1,126.1,416.8,125.4,417.7,125.4z"/>
<path class="st5" d="M430,131.3c2.4,0,4.3-1.9,4.3-4.3c0-1.4-0.6-2.6-1.6-3.4c-0.8-0.6-1.7-0.9-2.7-0.9c-2.4,0-4.3,1.9-4.3,4.4
	C425.6,129.4,427.6,131.3,430,131.3z M430,125.4c0.9,0,1.6,0.7,1.6,1.6c0,0.9-0.8,1.5-1.6,1.6c-0.9,0-1.6-0.7-1.6-1.6
	C428.4,126.1,429.1,125.4,430,125.4z"/>
<path d="M13.6,104.5l9.8-21h2.5l9.9,21h-5.5l-1.3-2.7h-8.6l-1.3,2.7H13.6z M22.6,97.1h4.3l-2.1-4.6L22.6,97.1z"/>
<path d="M50.6,104.5l-6.9-9.9v9.9h-5.5v-21h5.2l6.9,9.9v-9.9h5.5v21H50.6z"/>
<path d="M71.4,96.8v7.7h-5.5v-7.7l-7.7-13.3h6.4l4,7l4.1-7h6.4L71.4,96.8z"/>
<path d="M94,83.5h7.8c2.6,0,5,0.9,6.8,2.5c2.3,1.9,3.7,4.8,3.7,8c0,3.2-1.4,6-3.6,7.9c-1.8,1.6-4.2,2.6-6.9,2.6H94V83.5z M99.5,99
	h2.3c2.7,0,5-2.2,5-5c0-2.7-2.2-5-5-5h-2.3V99z"/>
<path d="M116.1,83.5h13v4.6h-7.5v3.4h6.7v4.6h-6.7v3.9h7.5v4.5h-13V83.5z"/>
<path d="M146.6,90.4c-0.8-0.8-1.9-1.3-3.2-1.4c-2.8-0.1-5.2,2.2-5.2,4.9c0,2.9,2.1,4.9,4.9,4.9c1.4,0,2.7-0.5,3.5-1.4
	c0,0,3.9,3.9,3.9,3.9c-2.3,2.3-5.6,3.6-9.3,3c-4.6-0.8-8.1-4.6-8.6-9.2c-0.6-6.3,4.3-11.6,10.4-11.6c2.9,0,5.5,1.1,7.4,3.1
	L146.6,90.4z"/>
<path d="M200.8,83.5c5.8,0,10.5,4.7,10.5,10.5s-4.7,10.5-10.5,10.5s-10.5-4.7-10.5-10.5S195,83.5,200.8,83.5z M200.8,89
	c-2.7,0-5,2.2-5,5c0,2.7,2.2,5,5,5c2.8,0,5-2.3,5-5C205.8,91.2,203.5,89,200.8,89z"/>
<path d="M227.5,104.5l-6.9-9.9v9.9h-5.5v-21h5.2l6.9,9.9v-9.9h5.5v21H227.5z"/>
<path d="M160.3,85.9L160.3,85.9c0-1.3-1.1-2.4-2.4-2.4h0c-1.3,0-2.4,1.1-2.4,2.4v0c0,1.3,1.1,2.4,2.4,2.4h0
	C159.2,88.3,160.3,87.3,160.3,85.9z"/>
<path d="M183.5,104.5L183.5,104.5c1.3,0,2.4-1.1,2.4-2.4v0c0-1.3-1.1-2.4-2.4-2.4l0,0c-1.3,0-2.4,1.1-2.4,2.4v0
	C181.1,103.4,182.1,104.5,183.5,104.5z"/>
<path d="M179.5,83.5L179.5,83.5l-9,0v0c-3.6,0-6.4,2.9-6.4,6.5c0,1.9,0.8,3.6,2.1,4.8c1.1,1,2.6,1.7,4.3,1.7c0.8,0,1.5,0.5,1.6,1.3
	c0.2,1-0.6,1.9-1.6,1.9h-8.8c-0.9,0-1.6-0.7-1.6-1.6v-4.9h-4.8l0,4.9c0,3.6,2.9,6.4,6.5,6.4h8.7v0c3.6,0,6.5-2.9,6.5-6.4
	c0-1.5-0.5-2.9-1.4-4.1c-1.2-1.5-3-2.5-5-2.5c-0.7,0-1.4-0.5-1.6-1.3c-0.2-1,0.6-1.9,1.5-1.9h8.8c0.9,0,1.7,0.7,1.7,1.7l0,4.8h4.8
	V90C185.9,86.4,183.1,83.5,179.5,83.5z"/>
<g>
	<path d="M-157.9,236.8h3.6c1.2,0,2.3,0.4,3.2,1.2c1,0.9,1.7,2.2,1.7,3.7c0,1.5-0.7,2.8-1.7,3.7c-0.9,0.7-2,1.2-3.2,1.2h-3.6V236.8z
		 M-155.3,244h1.1c1.3,0,2.3-1,2.3-2.3c0-1.3-1-2.3-2.3-2.3h-1.1V244z"/>
	<path d="M-147.6,236.8h6.1v2.1h-3.5v1.6h3.1v2.2h-3.1v1.8h3.5v2.1h-6.1V236.8z"/>
	<path d="M-133.5,240c-0.4-0.4-0.9-0.6-1.5-0.6c-1.3-0.1-2.4,1-2.4,2.3c0,1.3,1,2.3,2.3,2.3c0.7,0,1.2-0.2,1.6-0.6
		c0,0,1.8,1.8,1.8,1.8c-1.1,1.1-2.6,1.7-4.3,1.4c-2.1-0.4-3.8-2.1-4-4.3c-0.3-2.9,2-5.4,4.8-5.4c1.3,0,2.5,0.5,3.4,1.4L-133.5,240z"
		/>
	<path d="M-108.3,236.8c2.7,0,4.9,2.2,4.9,4.9c0,2.7-2.2,4.9-4.9,4.9c-2.7,0-4.9-2.2-4.9-4.9C-113.2,239-111,236.8-108.3,236.8z
		 M-108.3,239.3c-1.3,0-2.3,1-2.3,2.3c0,1.3,1,2.3,2.3,2.3c1.3,0,2.3-1.1,2.3-2.3C-106,240.4-107,239.3-108.3,239.3z"/>
	<path d="M-95.9,246.5l-3.2-4.6v4.6h-2.6v-9.8h2.4l3.2,4.6v-4.6h2.6v9.8H-95.9z"/>
	<path d="M-118.2,236.8L-118.2,236.8l-4.2,0v0c-1.7,0-3,1.3-3,3c0,0.9,0.4,1.7,1,2.2c0.5,0.5,1.2,0.8,2,0.8c0.4,0,0.7,0.2,0.8,0.6
		c0.1,0.5-0.3,0.9-0.7,0.9h-4.1c-0.4,0-0.7-0.3-0.7-0.7v-5.6h-2.2l0,5.7c0,1.7,1.3,3,3,3h4.1v0c1.7,0,3-1.3,3-3
		c0-0.7-0.2-1.4-0.6-1.9c-0.5-0.7-1.4-1.2-2.3-1.2c-0.3,0-0.7-0.2-0.7-0.6c-0.1-0.5,0.3-0.9,0.7-0.9h4.1c0.4,0,0.8,0.3,0.8,0.8
		l0,5.6h2.2v-5.6C-115.2,238.1-116.5,236.8-118.2,236.8z"/>
	<g>
		<path d="M-128.3,239.5c-0.9,0-1.6-0.7-1.6-1.6c0-0.4,0.2-0.8,0.5-1.1s0.7-0.5,1.1-0.5c0.9,0,1.6,0.7,1.6,1.6
			C-126.6,238.8-127.4,239.5-128.3,239.5z"/>
		<path class="st2" d="M-128.3,236.8c0.6,0,1.1,0.5,1.1,1.1v0c0,0.6-0.5,1.1-1.1,1.1h0c-0.6,0-1.1-0.5-1.1-1.1v0
			C-129.4,237.3-128.9,236.8-128.3,236.8L-128.3,236.8 M-128.3,235.8L-128.3,235.8c-0.6,0-1.1,0.2-1.5,0.6c-0.4,0.4-0.6,0.9-0.6,1.5
			c0,1.2,1,2.1,2.1,2.1c1.2,0,2.1-1,2.1-2.1C-126.1,236.7-127.1,235.8-128.3,235.8L-128.3,235.8z"/>
	</g>
	<g>
		<path d="M-116.4,247c-0.9,0-1.6-0.7-1.6-1.6c0-0.4,0.2-0.8,0.5-1.1c0.3-0.3,0.7-0.5,1.1-0.5c0.9,0,1.6,0.7,1.6,1.6
			S-115.5,247-116.4,247z"/>
		<g>
			<path class="st2" d="M-116.4,244.3c0.6,0,1.1,0.5,1.1,1.1v0c0,0.6-0.5,1.1-1.1,1.1c-0.6,0-1.1-0.5-1.1-1.1v0
				C-117.5,244.8-117,244.3-116.4,244.3L-116.4,244.3 M-116.4,243.3c-0.6,0-1.1,0.2-1.5,0.6c-0.4,0.4-0.6,0.9-0.6,1.5
				c0,1.2,1,2.1,2.1,2.1c1.2,0,2.1-1,2.1-2.1C-114.2,244.2-115.2,243.3-116.4,243.3L-116.4,243.3z"/>
		</g>
	</g>
</g>
<text transform="matrix(1 0 0 1 -77.5257 -61.1098)"><tspan x="0" y="0" style="font-family:'BigJohn'; font-size:28px;">Any</tspan><tspan x="0" y="15.6" style="font-family:'BigJohn'; font-size:13px;">Decision</tspan></text>
<g>
	<path d="M-157.9,172.4l9.8-21h2.5l9.9,21h-5.5l-1.3-2.7h-8.6l-1.3,2.7H-157.9z M-148.9,165h4.3l-2.1-4.6L-148.9,165z"/>
	<path d="M-121.6,172.4l-6.7-9.9v9.9h-5.5v-21h5.5l6.7,9.9v-9.9h5.5v21H-121.6z"/>
	<path d="M-101.1,164.7v7.7h-5.5v-7.7l-7.7-13.3h6.4l4,7l4.1-7h6.4L-101.1,164.7z"/>
</g>
<g>
	<path d="M-120,183.1c-0.5-0.7-1.4-1.2-2.4-1.2c-0.4,0-0.7-0.3-0.7-0.7c0-0.4,0.3-0.7,0.7-0.7h2v-2.3h-2.1v0c-1.7,0-3,1.3-3,3
		c0,0.9,0.4,1.7,1,2.2c0.5,0.5,1.2,0.8,2,0.8c0.4,0,0.7,0.3,0.7,0.7s-0.3,0.7-0.7,0.7v2.3c1.7,0,3-1.3,3-3
		C-119.3,184.3-119.6,183.7-120,183.1z"/>
	<path d="M-157.9,178.3h3.6c2.7,0,4.9,2.2,4.9,4.9c0,2.7-2.2,4.9-4.9,4.9h-3.6V178.3z M-155.3,185.5h1.1c1.3,0,2.3-1,2.3-2.3
		c0-1.3-1-2.3-2.3-2.3h-1.1V185.5z"/>
	<path d="M-147.6,178.3h6.1v2.1h-3.5v1.6h3.1v2.2h-3.1v1.8h3.5v2.1h-6.1V178.3z"/>
	<path d="M-133.5,181.5c-0.4-0.4-1-0.6-1.6-0.6c-1.3,0-2.3,1-2.3,2.3s1,2.3,2.3,2.3c0.7,0,1.2-0.2,1.6-0.7l1.8,1.8
		c-0.9,0.9-2.1,1.4-3.5,1.4c-2.7,0-4.9-2.2-4.9-4.9c0-2.7,2.2-4.9,4.9-4.9c1.3,0,2.5,0.5,3.4,1.4L-133.5,181.5z"/>
	<path d="M-129.7,178.3h2.6v9.8h-2.6V178.3z"/>
	<path d="M-117.5,178.3h2.6v9.8h-2.6V178.3z"/>
	<path d="M-108.3,178.3c2.7,0,4.9,2.2,4.9,4.9s-2.2,4.9-4.9,4.9c-2.7,0-4.9-2.2-4.9-4.9S-111,178.3-108.3,178.3z M-108.3,180.8
		c-1.3,0-2.3,1-2.3,2.3c0,1.3,1,2.3,2.3,2.3c1.3,0,2.3-1.1,2.3-2.3C-106,181.9-107,180.8-108.3,180.8z"/>
	<path d="M-96,188l-3.1-4.6v4.6h-2.6v-9.8h2.6l3.1,4.6v-4.6h2.6v9.8H-96z"/>
</g>
<line class="st6" x1="-157.9" y1="175.2" x2="-93.5" y2="175.2"/>
<g>
	<path d="M-245.3,226.8l-5.7-15.7l1.3-1.3l15.7,5.6l-2.8,2.8l-2-0.7l-4.4,4.4l0.8,2L-245.3,226.8z M-244.5,218.5l2.2-2.2l-3.4-1.3
		L-244.5,218.5z"/>
	<path d="M-226.9,208.4l-8.4-1.7l5.1,5.1l-2.8,2.8l-10.7-10.7l2.8-2.8l8.4,1.7l-5-5l2.8-2.8l10.7,10.7L-226.9,208.4z"/>
	<path d="M-220.4,194.1l3.9,3.9l-2.8,2.8l-3.9-3.9l-10.6-2.8l3.2-3.2l5.6,1.5l-1.5-5.6l3.2-3.2L-220.4,194.1z"/>
</g>
<g>
	<path d="M-238.3,228.1l1.7-1.7c1.3-1.3,3.3-1.3,4.6,0c1.3,1.3,1.3,3.3,0,4.6l-1.7,1.7L-238.3,228.1z M-233.7,230.3l0.5-0.5
		c0.6-0.6,0.6-1.6,0-2.2c-0.6-0.6-1.6-0.6-2.2,0l-0.5,0.5L-233.7,230.3z"/>
	<path d="M-233.5,223.3l2.8-2.8l1,1l-1.6,1.6l0.7,0.7l1.4-1.4l1,1l-1.4,1.4l0.8,0.8l1.6-1.6l1,1l-2.8,2.8L-233.5,223.3z"/>
	<path d="M-225.3,218.2c-0.4,0-0.8,0.2-1.1,0.5c-0.6,0.6-0.6,1.5,0,2.1c0.6,0.6,1.5,0.6,2.1,0c0.3-0.3,0.5-0.7,0.5-1.1l1.7,0
		c0,0.8-0.3,1.7-0.9,2.3c-1.3,1.3-3.3,1.3-4.6,0c-1.3-1.3-1.3-3.3,0-4.6c0.6-0.6,1.4-0.9,2.3-0.9L-225.3,218.2z"/>
	<path d="M-225.1,214.9l1.2-1.2l4.6,4.6l-1.2,1.2L-225.1,214.9z"/>
	<path d="M-219.4,209.2l1.2-1.2l4.6,4.6l-1.2,1.2L-219.4,209.2z"/>
	<path d="M-215.1,204.9c1.3-1.3,3.3-1.3,4.6,0s1.3,3.3,0,4.6c-1.3,1.3-3.3,1.3-4.6,0S-216.3,206.2-215.1,204.9z M-213.9,206.1
		c-0.6,0.6-0.6,1.6,0,2.2c0.6,0.6,1.6,0.6,2.2,0c0.6-0.6,0.6-1.6,0-2.2C-212.3,205.5-213.3,205.5-213.9,206.1z"/>
	<path d="M-204.8,203.7l-3.6-0.7l2.2,2.2l-1.2,1.2l-4.6-4.6l1.2-1.2l3.6,0.7l-2.2-2.2l1.2-1.2l4.6,4.6L-204.8,203.7z"/>
	<path d="M-217.1,213.2C-217.1,213.2-217.1,213.2-217.1,213.2C-217.1,213.2-217.1,213.2-217.1,213.2c-0.1-0.1-0.2-0.2-0.3-0.2
		c0,0-0.1,0-0.1-0.1c-0.1,0-0.2-0.1-0.2-0.1c0,0-0.1,0-0.1,0c-0.1,0-0.2-0.1-0.3-0.1c0,0-0.1,0-0.1,0c0,0,0,0,0,0
		c-0.1,0-0.1,0-0.2,0c0,0-0.1,0-0.1,0c0,0,0,0,0,0c-0.1,0-0.2,0-0.3,0c0,0,0,0-0.1,0c-0.4,0.1-0.7,0.2-1,0.5c-0.2,0.2-0.5,0.2-0.7,0
		c-0.2-0.2-0.2-0.5,0-0.7l1-1l-1.1-1.1l-1,1l0,0c0,0-0.1,0.1-0.1,0.1c0,0.1-0.1,0.1-0.1,0.2c-0.1,0.1-0.1,0.2-0.1,0.2
		c0,0,0,0.1-0.1,0.1c0,0.1-0.1,0.2-0.1,0.3c0,0,0,0.1,0,0.1c0,0.1,0,0.1,0,0.2c0,0.1,0,0.1,0,0.2c0,0,0,0.1,0,0.1
		c0,0.5,0.2,0.9,0.6,1.3c0,0,0,0,0,0c0,0,0,0,0,0c0,0,0,0,0,0c0.1,0.1,0.2,0.2,0.3,0.2c0,0,0.1,0,0.1,0.1c0.1,0,0.2,0.1,0.2,0.1
		c0,0,0.1,0,0.1,0c0.1,0,0.2,0.1,0.3,0.1c0,0,0.1,0,0.1,0c0,0,0,0,0,0c0.1,0,0.1,0,0.2,0c0,0,0.1,0,0.1,0c0,0,0,0,0,0
		c0.1,0,0.2,0,0.3,0c0,0,0,0,0.1,0c0.4-0.1,0.7-0.2,1-0.5c0.2-0.2,0.5-0.2,0.7,0c0.2,0.2,0.2,0.5,0,0.7l-1,1l1.1,1.1l1-1l0,0
		c0,0,0.1-0.1,0.1-0.2c0-0.1,0.1-0.1,0.1-0.2c0.1-0.1,0.1-0.2,0.1-0.2c0,0,0-0.1,0-0.1c0-0.1,0.1-0.2,0.1-0.3c0,0,0-0.1,0-0.1
		c0-0.1,0-0.1,0-0.2c0-0.1,0-0.1,0-0.2c0,0,0-0.1,0-0.1C-216.5,214-216.7,213.6-217.1,213.2C-217.1,213.2-217.1,213.2-217.1,213.2z"
		/>
</g>
<g>
	<path d="M-157.9,230.9l9.8-21h2.5l9.9,21h-5.5l-1.3-2.7h-8.6l-1.3,2.7H-157.9z M-148.9,223.5h4.3l-2.1-4.6L-148.9,223.5z"/>
	<path d="M-121.6,230.9l-6.7-9.9v9.9h-5.5v-21h5.5l6.7,9.9v-9.9h5.5v21H-121.6z"/>
	<path d="M-101.1,223.2v7.7h-5.5v-7.7l-7.7-13.3h6.4l4,7l4.1-7h6.4L-101.1,223.2z"/>
</g>
<line class="st6" x1="-157.9" y1="233.7" x2="-93.5" y2="233.7"/>
<polygon class="st7" points="-67.6,173.5 -38,173.5 -38,203.1 "/>
<polygon class="st7" points="-44,209.1 -62,209.1 -73.6,209.1 -73.6,179.5 "/>
<line class="st7" x1="-59.8" y1="193.3" x2="-71.6" y2="193.3"/>
<rect x="-250.9" y="183.8" class="st6" width="50" height="50"/>
<line class="st6" x1="-250.9" y1="233.8" x2="-200.9" y2="183.8"/>
<text transform="matrix(1 0 0 1 32.9131 -131.5)"><tspan x="0" y="0" style="font-family:'RobotoSlab-Regular'; font-size:28px;">any</tspan><tspan x="49.3" y="0" style="font-family:'Roboto-Thin'; font-size:28px;">decision</tspan></text>
<text transform="matrix(1 0 0 1 32.9131 165.8333)"><tspan x="0" y="0" style="font-family:'RobotoSlab-Regular'; font-size:28px;">any</tspan><tspan x="49.3" y="0" style="font-family:'Roboto-Thin'; font-size:28px;">decision</tspan></text>
<rect x="447" y="230.9" width="10.8" height="0.7"/>
<path d="M441.6,255.3c0-0.2,0.1-0.4,0.2-0.5s0.3-0.2,0.5-0.2s0.4,0.1,0.5,0.2s0.2,0.3,0.2,0.5s-0.1,0.4-0.2,0.5s-0.3,0.2-0.5,0.2
	s-0.4-0.1-0.5-0.2S441.6,255.5,441.6,255.3z"/>
<path d="M461.3,255.3c0-0.2,0.1-0.4,0.2-0.5s0.3-0.2,0.5-0.2s0.4,0.1,0.5,0.2s0.2,0.3,0.2,0.5s-0.1,0.4-0.2,0.5s-0.3,0.2-0.5,0.2
	s-0.4-0.1-0.5-0.2S461.3,255.5,461.3,255.3z"/>
<rect x="447" y="254.9" width="10.8" height="0.7"/>
<rect x="447" y="272.1" width="10.4" height="0.7"/>
<rect x="447" y="296.2" width="10.8" height="0.7"/>
<rect x="412.7" y="272.1" width="25" height="0.7"/>
<rect x="466.7" y="272.1" width="26.7" height="0.7"/>
<rect x="397.5" y="296.2" width="95.9" height="0.7"/>
<g>
	<path d="M397.5,243.1c0-2.4,0.5-4.2,1.5-5.5s2.4-2,4.1-2c1.1,0,2.1,0.3,2.9,0.8s1.5,1.2,2.1,2.2v-8.9h0.7v21h-0.7v-2.4
		c-0.5,0.8-1.2,1.5-2.1,1.9s-1.9,0.7-3,0.7c-1.7,0-3.1-0.7-4.1-2s-1.5-3.2-1.5-5.6V243.1z M398.2,243.4c0,2.1,0.4,3.8,1.2,5
		s2,1.8,3.5,1.8c1.2,0,2.3-0.3,3.1-0.8s1.5-1.3,1.9-2.4v-6.9c-0.8-2.5-2.5-3.7-5-3.7c-1.5,0-2.7,0.6-3.5,1.8
		S398.2,241.1,398.2,243.4z"/>
	<path d="M418.6,251c-1.2,0-2.3-0.3-3.3-1s-1.8-1.5-2.3-2.6s-0.8-2.4-0.8-3.7V243c0-1.4,0.3-2.6,0.8-3.8s1.3-2,2.3-2.7s2-1,3.1-1
		c1.6,0,3,0.6,4,1.8s1.6,2.7,1.6,4.6v0.8h-11.1v0.8c0,1.2,0.3,2.3,0.8,3.3s1.2,1.8,2.1,2.4c0.9,0.6,1.9,0.9,2.9,0.9
		c1,0,1.8-0.2,2.5-0.5c0.7-0.3,1.3-0.8,1.9-1.5l0.5,0.4C422.4,250.2,420.7,251,418.6,251z M418.3,236.3c-1.4,0-2.7,0.5-3.7,1.6
		s-1.6,2.4-1.8,4.1h10.3v-0.2c0-1-0.2-1.9-0.6-2.8s-1-1.5-1.8-2S419.2,236.3,418.3,236.3z"/>
	<path d="M432.6,250.2c1.3,0,2.4-0.4,3.3-1.1s1.3-1.7,1.4-3h0.7c-0.1,1.4-0.6,2.6-1.7,3.5s-2.3,1.3-3.8,1.3c-1.9,0-3.3-0.7-4.4-2
		s-1.6-3.2-1.6-5.5V243c0-2.2,0.5-4,1.6-5.4s2.5-2,4.4-2c1.6,0,2.9,0.5,3.9,1.4s1.6,2.2,1.6,3.7h-0.7c-0.1-1.3-0.5-2.4-1.4-3.2
		s-2-1.2-3.4-1.2c-1.6,0-2.9,0.6-3.9,1.8s-1.4,2.8-1.4,5v0.5c0,2.1,0.5,3.7,1.4,4.9S431,250.2,432.6,250.2z"/>
	<path d="M441.6,231.3c0-0.2,0.1-0.4,0.2-0.5s0.3-0.2,0.5-0.2s0.4,0.1,0.5,0.2s0.2,0.3,0.2,0.5s-0.1,0.4-0.2,0.5s-0.3,0.2-0.5,0.2
		s-0.4-0.1-0.5-0.2S441.6,231.5,441.6,231.3z"/>
	<rect x="442" y="235.9" width="0.7" height="14.8"/>
	<path d="M456.7,247.1c0-1.8-1.5-3-4.6-3.7c-1.8-0.4-3.1-0.9-3.8-1.5s-1.1-1.5-1.1-2.5c0-1.1,0.5-2,1.4-2.7s2.1-1.1,3.6-1.1
		c1.6,0,2.9,0.4,3.8,1.1s1.4,1.8,1.4,3.1h-0.8c0-1-0.4-1.8-1.3-2.5s-1.9-1-3.3-1c-1.3,0-2.3,0.3-3.1,0.8s-1.1,1.3-1.1,2.1
		c0,0.7,0.1,1.2,0.4,1.6s0.7,0.7,1.4,1s1.6,0.6,2.8,0.9s2.2,0.6,2.9,1s1.2,0.8,1.5,1.4s0.5,1.2,0.5,1.9c0,1.2-0.5,2.1-1.4,2.8
		s-2.2,1.1-3.8,1.1c-1.7,0-3-0.4-4-1.1s-1.5-1.7-1.5-2.9h0.7c0.1,1,0.5,1.8,1.4,2.4s2,0.9,3.4,0.9c1.3,0,2.4-0.3,3.2-0.9
		S456.7,247.9,456.7,247.1z"/>
	<path d="M461.3,231.3c0-0.2,0.1-0.4,0.2-0.5s0.3-0.2,0.5-0.2s0.4,0.1,0.5,0.2s0.2,0.3,0.2,0.5s-0.1,0.4-0.2,0.5s-0.3,0.2-0.5,0.2
		s-0.4-0.1-0.5-0.2S461.3,231.5,461.3,231.3z M462.4,250.7h-0.7v-14.8h0.7V250.7z"/>
	<path d="M466.1,243c0-1.4,0.3-2.7,0.8-3.8s1.3-2,2.3-2.6s2.1-0.9,3.4-0.9c1.2,0,2.4,0.3,3.3,0.9s1.8,1.5,2.3,2.6s0.8,2.4,0.8,3.8
		v0.7c0,1.4-0.3,2.7-0.8,3.8s-1.3,2-2.3,2.6s-2.1,0.9-3.4,0.9s-2.4-0.3-3.4-0.9s-1.8-1.5-2.3-2.6s-0.8-2.4-0.8-3.8V243z
		 M466.9,243.6c0,1.2,0.2,2.4,0.7,3.4s1.2,1.8,2,2.4s1.9,0.9,3,0.9c1.7,0,3.1-0.6,4.1-1.9s1.6-2.9,1.6-4.9V243
		c0-1.2-0.2-2.3-0.7-3.4s-1.2-1.8-2-2.4s-1.9-0.9-3-0.9c-1.7,0-3.1,0.6-4.1,1.9s-1.6,2.9-1.6,4.9V243.6z"/>
	<path d="M483.4,239.3c0.5-1.1,1.2-2.1,2.1-2.7s2-1,3.1-1c1.6,0,2.8,0.4,3.5,1.3s1.2,2.3,1.2,4.1v9.7h-0.7V241c0-1.6-0.3-2.8-1-3.5
		s-1.6-1.1-3-1.1c-1.3,0-2.4,0.5-3.3,1.4s-1.6,2.1-1.9,3.5v9.5h-0.7v-14.8h0.7V239.3z"/>
</g>
<g>
	<path d="M397.5,284.4c0-2.4,0.5-4.2,1.5-5.5s2.4-2,4.1-2c1.1,0,2.1,0.3,2.9,0.8s1.5,1.2,2.1,2.2v-8.9h0.7v21h-0.7v-2.4
		c-0.5,0.8-1.2,1.5-2.1,1.9s-1.9,0.7-3,0.7c-1.7,0-3.1-0.7-4.1-2s-1.5-3.2-1.5-5.6V284.4z M398.2,284.7c0,2.1,0.4,3.8,1.2,5
		s2,1.8,3.5,1.8c1.2,0,2.3-0.3,3.1-0.8s1.5-1.3,1.9-2.4v-6.9c-0.8-2.5-2.5-3.7-5-3.7c-1.5,0-2.7,0.6-3.5,1.8
		S398.2,282.3,398.2,284.7z"/>
	<path d="M418.6,292.2c-1.2,0-2.3-0.3-3.3-1s-1.8-1.5-2.3-2.6s-0.8-2.4-0.8-3.7v-0.6c0-1.4,0.3-2.6,0.8-3.8s1.3-2,2.3-2.7s2-1,3.1-1
		c1.6,0,3,0.6,4,1.8s1.6,2.7,1.6,4.6v0.8h-11.1v0.8c0,1.2,0.3,2.3,0.8,3.3s1.2,1.8,2.1,2.4c0.9,0.6,1.9,0.9,2.9,0.9
		c1,0,1.8-0.2,2.5-0.5c0.7-0.3,1.3-0.8,1.9-1.5l0.5,0.4C422.4,291.4,420.7,292.2,418.6,292.2z M418.3,277.6c-1.4,0-2.7,0.5-3.7,1.6
		s-1.6,2.4-1.8,4.1h10.3v-0.2c0-1-0.2-1.9-0.6-2.8s-1-1.5-1.8-2S419.2,277.6,418.3,277.6z"/>
	<path d="M432.6,291.5c1.3,0,2.4-0.4,3.3-1.1s1.3-1.7,1.4-3h0.7c-0.1,1.4-0.6,2.6-1.7,3.5s-2.3,1.3-3.8,1.3c-1.9,0-3.3-0.7-4.4-2
		s-1.6-3.2-1.6-5.5v-0.5c0-2.2,0.5-4,1.6-5.4s2.5-2,4.4-2c1.6,0,2.9,0.5,3.9,1.4s1.6,2.2,1.6,3.7h-0.7c-0.1-1.3-0.5-2.4-1.4-3.2
		s-2-1.2-3.4-1.2c-1.6,0-2.9,0.6-3.9,1.8s-1.4,2.8-1.4,5v0.5c0,2.1,0.5,3.7,1.4,4.9S431,291.5,432.6,291.5z"/>
	<path d="M441.6,272.5c0-0.2,0.1-0.4,0.2-0.5s0.3-0.2,0.5-0.2s0.4,0.1,0.5,0.2s0.2,0.3,0.2,0.5s-0.1,0.4-0.2,0.5s-0.3,0.2-0.5,0.2
		s-0.4-0.1-0.5-0.2S441.6,272.7,441.6,272.5z"/>
	<rect x="442" y="277.1" width="0.7" height="14.8"/>
	<path d="M456.7,288.3c0-1.8-1.5-3-4.6-3.7c-1.8-0.4-3.1-0.9-3.8-1.5s-1.1-1.5-1.1-2.5c0-1.1,0.5-2,1.4-2.7s2.1-1.1,3.6-1.1
		c1.6,0,2.9,0.4,3.8,1.1s1.4,1.8,1.4,3.1h-0.8c0-1-0.4-1.8-1.3-2.5s-1.9-1-3.3-1c-1.3,0-2.3,0.3-3.1,0.8s-1.1,1.3-1.1,2.1
		c0,0.7,0.1,1.2,0.4,1.6s0.7,0.7,1.4,1s1.6,0.6,2.8,0.9s2.2,0.6,2.9,1s1.2,0.8,1.5,1.4s0.5,1.2,0.5,1.9c0,1.2-0.5,2.1-1.4,2.8
		s-2.2,1.1-3.8,1.1c-1.7,0-3-0.4-4-1.1s-1.5-1.7-1.5-2.9h0.7c0.1,1,0.5,1.8,1.4,2.4s2,0.9,3.4,0.9c1.3,0,2.4-0.3,3.2-0.9
		S456.7,289.2,456.7,288.3z"/>
	<path d="M461.3,272.5c0-0.2,0.1-0.4,0.2-0.5s0.3-0.2,0.5-0.2s0.4,0.1,0.5,0.2s0.2,0.3,0.2,0.5s-0.1,0.4-0.2,0.5s-0.3,0.2-0.5,0.2
		s-0.4-0.1-0.5-0.2S461.3,272.7,461.3,272.5z M462.4,291.9h-0.7v-14.8h0.7V291.9z"/>
	<path d="M466.1,284.2c0-1.4,0.3-2.7,0.8-3.8s1.3-2,2.3-2.6s2.1-0.9,3.4-0.9c1.2,0,2.4,0.3,3.3,0.9s1.8,1.5,2.3,2.6s0.8,2.4,0.8,3.8
		v0.7c0,1.4-0.3,2.7-0.8,3.8s-1.3,2-2.3,2.6s-2.1,0.9-3.4,0.9s-2.4-0.3-3.4-0.9s-1.8-1.5-2.3-2.6s-0.8-2.4-0.8-3.8V284.2z
		 M466.9,284.8c0,1.2,0.2,2.4,0.7,3.4s1.2,1.8,2,2.4s1.9,0.9,3,0.9c1.7,0,3.1-0.6,4.1-1.9s1.6-2.9,1.6-4.9v-0.4
		c0-1.2-0.2-2.3-0.7-3.4s-1.2-1.8-2-2.4s-1.9-0.9-3-0.9c-1.7,0-3.1,0.6-4.1,1.9s-1.6,2.9-1.6,4.9V284.8z"/>
	<path d="M483.4,280.6c0.5-1.1,1.2-2.1,2.1-2.7s2-1,3.1-1c1.6,0,2.8,0.4,3.5,1.3s1.2,2.3,1.2,4.1v9.7h-0.7v-9.7c0-1.6-0.3-2.8-1-3.5
		s-1.6-1.1-3-1.1c-1.3,0-2.4,0.5-3.3,1.4s-1.6,2.1-1.9,3.5v9.5h-0.7v-14.8h0.7V280.6z"/>
</g>
<path d="M361.2,289.9c0-0.1,0-7.9,0-7.9c0-1.6-0.5-2.9-1.6-3.7c-1-0.9-2.4-1.3-4.1-1.3c-1.1,0-2.1,0.2-3.1,0.5
	c-0.9,0.3-1.8,0.8-2.4,1.3l-0.1,0.1v3.1h2.7v-1.6c0.3-0.2,0.6-0.4,1.1-0.6c0.5-0.2,1-0.2,1.6-0.2c0.9,0,1.6,0.2,2,0.7
	c0.5,0.4,0.7,1,0.7,1.8v1.4h-2.4c-2,0-3.5,0.4-4.6,1.1c-1.2,0.8-1.8,1.9-1.8,3.3c0,1.4,0.4,2.5,1.2,3.2c0.8,0.8,2,1.2,3.6,1.2
	c0.9,0,1.7-0.2,2.5-0.7c0.6-0.3,1.1-0.7,1.5-1.1c0,0.1,0,1.5,0,1.5h4.2v-2.1H361.2z M353.2,286.3c0.6-0.5,1.4-0.7,2.4-0.7h2.5v2
	c-0.3,0.5-0.8,1-1.4,1.3c-0.7,0.4-1.4,0.6-2.2,0.6c-0.7,0-1.3-0.1-1.6-0.4c-0.3-0.3-0.5-0.7-0.5-1.2
	C352.4,287.3,352.6,286.7,353.2,286.3z"/>
<path d="M377.8,289.9v-7.2c0-1.9-0.4-3.4-1.3-4.3c-0.9-0.9-2.2-1.4-3.8-1.4c-1,0-1.8,0.2-2.6,0.7c-0.6,0.3-1.1,0.8-1.5,1.3v-1.7
	h-5.1v2.1h2.2v10.5h-2.2v2.1h7.4v-2.1h-2.2v-8.5c0.3-0.6,0.7-1,1.3-1.3c0.5-0.3,1.2-0.5,1.9-0.5c0.9,0,1.7,0.2,2.1,0.7
	c0.5,0.5,0.7,1.3,0.7,2.5v7.1h-2.2v2.1h7.4v-2.1H377.8z"/>
<path d="M389.2,277.2v2.1l1.5,0l-2.7,8.2l-2.7-8.2l1.5,0v-2.1h-6.3v2.1h1.4l4.6,12.1l-0.6,1.4c-0.2,0.6-0.5,1.1-0.9,1.6
	c-0.3,0.4-0.7,0.6-1.2,0.6c-0.1,0-1.4-0.2-1.4-0.2l-0.3,2.6c0,0,0.6,0.1,1,0.2c0.3,0.1,0.6,0.1,0.8,0.1c1.2,0,2.2-0.4,2.9-1.1
	c0.7-0.7,1.2-1.6,1.6-2.6l5.4-14.7l1.3,0v-2.1H389.2z"/>
<path d="M361.2,248.6c0-0.1,0-7.9,0-7.9c0-1.6-0.5-2.9-1.6-3.7c-1-0.9-2.4-1.3-4.1-1.3c-1.1,0-2.1,0.2-3.1,0.5
	c-0.9,0.3-1.8,0.8-2.4,1.3l-0.1,0.1v3.1h2.7V239c0.3-0.2,0.6-0.4,1.1-0.6c0.5-0.2,1-0.2,1.6-0.2c0.9,0,1.6,0.2,2,0.7
	c0.5,0.4,0.7,1,0.7,1.8v1.4h-2.4c-2,0-3.5,0.4-4.6,1.1c-1.2,0.8-1.8,1.9-1.8,3.3c0,1.4,0.4,2.5,1.2,3.2c0.8,0.8,2,1.2,3.6,1.2
	c0.9,0,1.7-0.2,2.5-0.7c0.6-0.3,1.1-0.7,1.5-1.1c0,0.1,0,1.5,0,1.5h4.2v-2.1H361.2z M353.2,245c0.6-0.5,1.4-0.7,2.4-0.7h2.5v2
	c-0.3,0.5-0.8,1-1.4,1.3c-0.7,0.4-1.4,0.6-2.2,0.6c-0.7,0-1.3-0.1-1.6-0.4c-0.3-0.3-0.5-0.7-0.5-1.2
	C352.4,246,352.6,245.5,353.2,245z"/>
<path d="M377.8,248.6v-7.2c0-1.9-0.4-3.4-1.3-4.3c-0.9-0.9-2.2-1.4-3.8-1.4c-1,0-1.8,0.2-2.6,0.7c-0.6,0.3-1.1,0.8-1.5,1.3v-1.7
	h-5.1v2.1h2.2v10.5h-2.2v2.1h7.4v-2.1h-2.2v-8.5c0.3-0.6,0.7-1,1.3-1.3c0.5-0.3,1.2-0.5,1.9-0.5c0.9,0,1.7,0.2,2.1,0.7
	c0.5,0.5,0.7,1.3,0.7,2.5v7.1h-2.2v2.1h7.4v-2.1H377.8z"/>
<path d="M389.2,235.9v2.1l1.5,0l-2.7,8.2l-2.7-8.2l1.5,0v-2.1h-6.3v2.1h1.4l4.6,12.1l-0.6,1.4c-0.2,0.6-0.5,1.1-0.9,1.6
	c-0.3,0.4-0.7,0.6-1.2,0.6c-0.1,0-1.4-0.2-1.4-0.2l-0.3,2.6c0,0,0.6,0.1,1,0.2c0.3,0.1,0.6,0.1,0.8,0.1c1.2,0,2.2-0.4,2.9-1.1
	c0.7-0.7,1.2-1.6,1.6-2.6l5.4-14.7l1.3,0v-2.1H389.2z"/>
</svg>
