<?xml version="1.0" encoding="utf-8"?>
<!-- Generator: Adobe Illustrator 21.1.0, SVG Export Plug-In . SVG Version: 6.00 Build 0)  -->
<svg version="1.1" id="Layer_1" xmlns="http://www.w3.org/2000/svg" xmlns:xlink="http://www.w3.org/1999/xlink" x="0px" y="0px"
	 viewBox="0 0 59 26.2" style="enable-background:new 0 0 59 26.2;" xml:space="preserve">
<style type="text/css">
	.st0{fill:#FFFFFF;}
</style>
<g>
	<path class="st0" d="M13.2,21.1H11v-7.8H3v7.8H0.9v-16H3v6.3h8V5.1h2.1V21.1z"/>
	<path class="st0" d="M25.9,15.1c0,2-0.5,3.5-1.5,4.6c-1,1.1-2.3,1.7-4,1.7c-1.7,0-3-0.6-4-1.7c-1-1.1-1.5-2.7-1.5-4.6
		s0.5-3.5,1.5-4.6c1-1.1,2.3-1.7,4-1.7c1.7,0,3,0.6,4,1.7C25.4,11.6,25.9,13.1,25.9,15.1z M23.8,15.1c0-1.6-0.3-2.7-0.9-3.5
		c-0.6-0.8-1.5-1.1-2.5-1.1c-1.1,0-1.9,0.4-2.6,1.1c-0.6,0.8-0.9,1.9-0.9,3.5c0,1.5,0.3,2.6,0.9,3.4c0.6,0.8,1.5,1.2,2.5,1.2
		c1.1,0,1.9-0.4,2.5-1.2C23.5,17.7,23.8,16.6,23.8,15.1z"/>
	<path class="st0" d="M45.2,21.1h-2v-6.8c0-0.5,0-1-0.1-1.5c0-0.5-0.1-0.9-0.3-1.1c-0.2-0.3-0.4-0.5-0.7-0.7
		c-0.3-0.2-0.8-0.2-1.3-0.2c-0.6,0-1.1,0.1-1.7,0.4c-0.6,0.3-1.1,0.6-1.7,1.1c0,0.2,0,0.4,0.1,0.6c0,0.2,0,0.4,0,0.6v7.7h-2v-6.8
		c0-0.5,0-1-0.1-1.5c0-0.5-0.1-0.9-0.3-1.1c-0.2-0.3-0.4-0.5-0.7-0.7c-0.3-0.2-0.8-0.2-1.3-0.2c-0.6,0-1.1,0.1-1.7,0.4
		c-0.6,0.3-1.1,0.6-1.7,1v9h-2v-12h2v1.3c0.6-0.5,1.3-0.9,1.9-1.2c0.6-0.3,1.3-0.4,2-0.4c0.8,0,1.5,0.2,2.1,0.5
		c0.6,0.3,1,0.8,1.3,1.4c0.8-0.7,1.6-1.2,2.2-1.5c0.7-0.3,1.4-0.5,2.2-0.5c1.3,0,2.3,0.4,2.9,1.2c0.6,0.8,0.9,1.9,0.9,3.3V21.1z"/>
	<path class="st0" d="M58.1,15.3h-8.8c0,0.7,0.1,1.4,0.3,1.9s0.5,1,0.9,1.3c0.4,0.3,0.8,0.6,1.3,0.8c0.5,0.2,1.1,0.3,1.7,0.3
		c0.8,0,1.6-0.2,2.5-0.5c0.8-0.3,1.4-0.6,1.8-1h0.1v2.2c-0.7,0.3-1.4,0.5-2.1,0.7s-1.5,0.3-2.2,0.3c-2,0-3.5-0.5-4.7-1.6
		c-1.1-1.1-1.7-2.6-1.7-4.6c0-2,0.5-3.5,1.6-4.7c1.1-1.2,2.5-1.7,4.2-1.7c1.6,0,2.9,0.5,3.7,1.4c0.9,0.9,1.3,2.3,1.3,4V15.3z
		 M56.1,13.7c0-1.1-0.3-1.9-0.8-2.5c-0.5-0.6-1.3-0.9-2.4-0.9c-1.1,0-1.9,0.3-2.6,1c-0.6,0.6-1,1.4-1.1,2.4H56.1z"/>
</g>
<g>
	<path class="st0" d="M16.2,21.1H14v-7.8H6v7.8H3.9v-16H6v6.3h8V5.1h2.1V21.1z"/>
	<path class="st0" d="M29.3,15.3h-8.8c0,0.7,0.1,1.4,0.3,1.9c0.2,0.5,0.5,1,0.9,1.3c0.4,0.3,0.8,0.6,1.3,0.8
		c0.5,0.2,1.1,0.3,1.7,0.3c0.8,0,1.6-0.2,2.5-0.5c0.8-0.3,1.4-0.6,1.8-1h0.1v2.2c-0.7,0.3-1.4,0.5-2.1,0.7s-1.5,0.3-2.2,0.3
		c-2,0-3.5-0.5-4.7-1.6c-1.1-1.1-1.7-2.6-1.7-4.6c0-2,0.5-3.5,1.6-4.7c1.1-1.2,2.5-1.7,4.2-1.7c1.6,0,2.9,0.5,3.7,1.4s1.3,2.3,1.3,4
		V15.3z M27.4,13.7c0-1.1-0.3-1.9-0.8-2.5c-0.5-0.6-1.3-0.9-2.4-0.9c-1.1,0-1.9,0.3-2.6,1c-0.6,0.6-1,1.4-1.1,2.4H27.4z"/>
	<path class="st0" d="M33.8,21.1h-2V4.9h2V21.1z"/>
	<path class="st0" d="M46.7,14.9c0,1-0.1,1.9-0.4,2.7s-0.7,1.5-1.2,2c-0.5,0.5-1,0.9-1.7,1.2c-0.6,0.3-1.3,0.4-2,0.4
		c-0.6,0-1.2-0.1-1.7-0.2c-0.5-0.1-1-0.3-1.5-0.6v5h-2V9.1h2v1.3c0.5-0.5,1.1-0.8,1.8-1.1s1.4-0.5,2.1-0.5c1.4,0,2.6,0.5,3.4,1.6
		C46.3,11.5,46.7,13,46.7,14.9z M44.6,15c0-1.4-0.2-2.5-0.7-3.2c-0.5-0.7-1.3-1.1-2.3-1.1c-0.6,0-1.2,0.1-1.8,0.4
		c-0.6,0.3-1.2,0.6-1.7,1v6.8c0.6,0.3,1.1,0.4,1.5,0.5c0.4,0.1,0.9,0.1,1.4,0.1c1.1,0,2-0.4,2.6-1.1C44.3,17.6,44.6,16.5,44.6,15z"
		/>
	
		<rect x="49" y="7.3" transform="matrix(-3.596229e-07 -1 1 -3.596229e-07 41.7368 60.0006)" class="st0" width="3.7" height="3.7"/>
	<polygon class="st0" points="55.1,9.1 54.1,9.1 54.1,5.9 50.9,5.9 50.9,4.9 55.1,4.9 	"/>
</g>
<g>
	<path class="st0" d="M25,14.5c0,1.2-0.1,2.2-0.4,3c-0.3,0.9-0.7,1.6-1.3,2.2c-0.6,0.5-1.2,0.9-1.9,1.2c-0.7,0.3-1.6,0.4-2.6,0.4
		c-1,0-1.9-0.1-2.6-0.4c-0.7-0.3-1.4-0.7-1.9-1.2c-0.6-0.6-1-1.3-1.3-2.1c-0.3-0.8-0.4-1.9-0.4-3.1V4.9h2.1v9.7
		c0,0.9,0.1,1.6,0.2,2.1c0.1,0.5,0.3,1,0.6,1.4c0.3,0.5,0.7,0.8,1.3,1.1c0.5,0.2,1.2,0.4,1.9,0.4c0.8,0,1.4-0.1,2-0.3
		c0.5-0.2,1-0.6,1.3-1.1c0.3-0.4,0.5-0.9,0.6-1.4s0.2-1.2,0.2-2V4.9H25V14.5z"/>
	<path class="st0" d="M37.5,17.5c0,1.1-0.5,2-1.4,2.7c-0.9,0.7-2.1,1.1-3.7,1.1c-0.9,0-1.7-0.1-2.4-0.3c-0.7-0.2-1.4-0.4-1.9-0.7
		v-2.3h0.1c0.6,0.5,1.3,0.9,2.1,1.1c0.8,0.3,1.5,0.4,2.2,0.4c0.9,0,1.6-0.1,2.1-0.4s0.8-0.7,0.8-1.4c0-0.5-0.1-0.8-0.4-1.1
		c-0.3-0.2-0.8-0.5-1.6-0.6c-0.3-0.1-0.7-0.1-1.1-0.2c-0.5-0.1-0.9-0.2-1.3-0.3c-1.1-0.3-1.8-0.7-2.2-1.2s-0.7-1.2-0.7-2
		c0-0.5,0.1-1,0.3-1.4c0.2-0.4,0.5-0.8,0.9-1.2c0.4-0.3,0.9-0.6,1.5-0.8c0.6-0.2,1.3-0.3,2.1-0.3c0.7,0,1.4,0.1,2.2,0.3
		c0.7,0.2,1.3,0.4,1.8,0.6v2.2h-0.1c-0.5-0.4-1.1-0.7-1.9-1s-1.5-0.4-2.2-0.4c-0.7,0-1.4,0.1-1.9,0.4s-0.8,0.7-0.8,1.3
		c0,0.5,0.2,0.9,0.5,1.1c0.3,0.3,0.8,0.5,1.5,0.6c0.4,0.1,0.8,0.2,1.3,0.3c0.5,0.1,0.8,0.2,1.2,0.2c0.9,0.2,1.7,0.6,2.2,1.1
		C37.2,15.9,37.5,16.6,37.5,17.5z"/>
	
		<rect x="40.2" y="7.3" transform="matrix(-3.596224e-07 -1 1 -3.596224e-07 32.9176 51.1814)" class="st0" width="3.7" height="3.7"/>
	<polygon class="st0" points="46.3,9.1 45.3,9.1 45.3,5.9 42,5.9 42,4.9 46.3,4.9 	"/>
</g>
</svg>
