<?xml version="1.0" encoding="utf-8"?>
<!-- Generator: Adobe Illustrator 21.1.0, SVG Export Plug-In . SVG Version: 6.00 Build 0)  -->
<svg version="1.1" id="Layer_1" xmlns="http://www.w3.org/2000/svg" xmlns:xlink="http://www.w3.org/1999/xlink" x="0px" y="0px"
	 viewBox="0 0 105.4 36.7" style="enable-background:new 0 0 105.4 36.7;" xml:space="preserve">
<style type="text/css">
	.st0{fill:#FFFFFF;}
</style>
<g>
	<g>
		<path class="st0" d="M30.7,18.2c0,1.5-0.3,2.8-1,4c-0.6,1.2-1.5,2.1-2.5,2.8c-0.7,0.5-1.6,0.8-2.5,1s-2.1,0.3-3.6,0.3H17V10.1h4
			c1.6,0,2.8,0.1,3.7,0.3c0.9,0.2,1.7,0.5,2.4,0.9c1.1,0.7,2,1.6,2.6,2.7C30.3,15.3,30.7,16.7,30.7,18.2z M28.4,18.2
			c0-1.3-0.2-2.3-0.7-3.2c-0.4-0.9-1.1-1.5-2-2c-0.6-0.4-1.3-0.6-2-0.8C23,12.1,22.2,12,21.2,12h-2v12.4h2c1,0,1.9-0.1,2.7-0.2
			c0.8-0.2,1.5-0.4,2.1-0.8c0.8-0.5,1.4-1.2,1.8-2C28.2,20.5,28.4,19.4,28.4,18.2z"/>
		<path class="st0" d="M43.2,20.2c0,2-0.5,3.5-1.5,4.7c-1,1.1-2.4,1.7-4.1,1.7c-1.7,0-3.1-0.6-4.1-1.7S32,22.2,32,20.2
			s0.5-3.5,1.5-4.7s2.4-1.7,4.1-1.7s3,0.6,4.1,1.7C42.7,16.7,43.2,18.3,43.2,20.2z M41.1,20.2c0-1.6-0.3-2.7-0.9-3.5
			c-0.6-0.8-1.5-1.1-2.6-1.1s-2,0.4-2.6,1.1c-0.6,0.8-0.9,1.9-0.9,3.5c0,1.5,0.3,2.7,0.9,3.4c0.6,0.8,1.5,1.2,2.6,1.2
			s1.9-0.4,2.5-1.2C40.8,22.9,41.1,21.8,41.1,20.2z"/>
		<path class="st0" d="M55.4,26.3h-2v-6.9c0-0.6,0-1.1-0.1-1.6s-0.2-0.9-0.4-1.1c-0.2-0.3-0.4-0.5-0.8-0.7c-0.3-0.1-0.8-0.2-1.3-0.2
			c-0.6,0-1.1,0.1-1.7,0.4c-0.6,0.3-1.2,0.6-1.7,1v9h-2v-12h2v1.3c0.6-0.5,1.3-0.9,2-1.2s1.4-0.4,2.1-0.4c1.3,0,2.3,0.4,3,1.2
			s1,1.9,1,3.4L55.4,26.3L55.4,26.3z"/>
		<path class="st0" d="M67.7,26.3h-2V25c-0.2,0.1-0.4,0.3-0.7,0.5s-0.6,0.4-0.9,0.5c-0.3,0.2-0.7,0.3-1.2,0.4
			c-0.4,0.1-1,0.2-1.5,0.2c-1.1,0-2-0.4-2.8-1.1s-1.1-1.6-1.1-2.8c0-0.9,0.2-1.7,0.6-2.2c0.4-0.6,1-1,1.7-1.3s1.6-0.5,2.7-0.7
			c1-0.1,2.1-0.2,3.3-0.3V18c0-0.5-0.1-0.8-0.2-1.1c-0.2-0.3-0.4-0.5-0.7-0.7c-0.3-0.2-0.6-0.3-1-0.3c-0.4-0.1-0.8-0.1-1.3-0.1
			s-1.1,0.1-1.8,0.2s-1.3,0.3-2,0.6h-0.1v-2.1c0.4-0.1,1-0.2,1.7-0.4c0.8-0.1,1.5-0.2,2.2-0.2c0.9,0,1.6,0.1,2.2,0.2
			c0.6,0.1,1.2,0.4,1.6,0.7c0.5,0.3,0.8,0.8,1,1.3s0.4,1.2,0.4,2v8.2H67.7z M65.7,23.3v-3.4c-0.6,0-1.4,0.1-2.2,0.2
			c-0.8,0.1-1.5,0.2-2,0.3c-0.6,0.2-1.1,0.4-1.4,0.8c-0.4,0.4-0.5,0.8-0.5,1.4c0,0.7,0.2,1.2,0.6,1.6c0.4,0.4,1.1,0.5,1.9,0.5
			c0.7,0,1.4-0.1,2-0.4C64.6,24,65.2,23.7,65.7,23.3z"/>
		<path class="st0" d="M76.8,26.1c-0.4,0.1-0.8,0.2-1.2,0.2c-0.5,0.1-0.9,0.1-1.2,0.1c-1.2,0-2.2-0.3-2.8-1c-0.6-0.7-1-1.7-1-3.2
			v-6.4h-1.4v-1.7h1.4v-3.5h2v3.5h4.2v1.7h-4.2v5.5c0,0.6,0,1.1,0,1.5s0.1,0.7,0.3,1c0.2,0.3,0.4,0.5,0.7,0.6
			c0.3,0.1,0.7,0.2,1.3,0.2c0.3,0,0.7,0,1-0.1c0.4-0.1,0.6-0.2,0.8-0.2h0.1C76.8,24.3,76.8,26.1,76.8,26.1z"/>
		<path class="st0" d="M88.4,20.4h-8.9c0,0.7,0.1,1.4,0.3,1.9c0.2,0.6,0.5,1,0.9,1.4c0.4,0.3,0.8,0.6,1.3,0.8
			c0.5,0.2,1.1,0.3,1.7,0.3c0.8,0,1.6-0.2,2.5-0.5c0.8-0.3,1.4-0.7,1.8-1h0.1v2.2c-0.7,0.3-1.4,0.5-2.1,0.7s-1.5,0.3-2.3,0.3
			c-2,0-3.6-0.5-4.7-1.6s-1.7-2.6-1.7-4.6s0.5-3.5,1.6-4.7s2.5-1.7,4.3-1.7c1.6,0,2.9,0.5,3.8,1.4c0.9,1,1.3,2.3,1.3,4.1L88.4,20.4
			L88.4,20.4z M86.4,18.9c0-1.1-0.3-1.9-0.8-2.5s-1.3-0.9-2.4-0.9s-2,0.3-2.6,1c-0.6,0.6-1,1.4-1.1,2.4H86.4z"/>
	</g>
</g>
</svg>
