<?xml version="1.0" encoding="utf-8"?>
<!-- Generator: Adobe Illustrator 21.1.0, SVG Export Plug-In . SVG Version: 6.00 Build 0)  -->
<svg version="1.1" xmlns="http://www.w3.org/2000/svg" xmlns:xlink="http://www.w3.org/1999/xlink" x="0px" y="0px"
	 viewBox="0 0 312 68" style="enable-background:new 0 0 312 68;" xml:space="preserve">
<style type="text/css">
	.st0{fill:#00A7E1;}
	.st1{fill:#CAE5FF;}
	.st2{fill:#007EA7;}
	.st3{display:none;}
	.st4{display:inline;fill:#FFFFFF;}
	.st5{display:inline;}
	.st6{fill:#FFFFFF;}
</style>
<g id="Layer_1">
	<rect x="0" y="130" class="st0" width="332.4" height="68"/>
	<text transform="matrix(1 0 0 1 7.5218 175.9)" class="st1" style="font-family:'RobotoSlab-Regular'; font-size:45px;">any     decision</text>
	<g>
		<path class="st1" d="M123.2,150.1l-7.7-8.8c-0.5-0.5-1.2-0.5-1.7,0l-7.7,8.9c-0.7,0.8-0.2,2,0.9,2l3,0c-0.4,5,1.7,8.4,4.6,10.7
			h4.2v-10.8l3.5,0C123.4,152.1,123.9,150.8,123.2,150.1z"/>
		<path class="st2" d="M129.3,147l-11.7,0.9c-1.1,0-1.6,1.3-0.8,2l2.2,2.1c-3.8,3.3-4.8,7.1-4.3,10.9l2.9,2.9l7.6-7.6l2.5,2.5
			c0.8,0.7,2,0.2,2-0.9l0.8-11.7C130.5,147.5,130,147,129.3,147z"/>
		<path class="st1" d="M136.3,162l-8.9-7.7c-0.8-0.7-2-0.2-2,0.9l0,3c-5-0.4-8.4,1.7-10.7,4.6v4.2h10.8l0,3.5c0,1.1,1.3,1.6,2,0.8
			l8.8-7.7C136.7,163.3,136.7,162.5,136.3,162z"/>
		<path class="st2" d="M129.7,165.9c0-1.1-1.3-1.6-2-0.8l-2.1,2.2c-3.3-3.8-7.1-4.8-10.9-4.3l-2.9,2.9l7.6,7.6l-2.5,2.5
			c-0.8,0.8-0.2,2,0.9,2l11.7,0.8c0.7,0,1.2-0.5,1.2-1.2L129.7,165.9z"/>
		<path class="st1" d="M122.3,173.6l-3,0c0.4-5-1.7-8.4-4.6-10.7l-4.2,0v10.8l-3.5,0c-1.1,0-1.6,1.3-0.8,2l7.7,8.8
			c0.5,0.5,1.2,0.5,1.7,0l7.7-8.9C123.9,174.9,123.4,173.6,122.3,173.6z"/>
		<path class="st2" d="M110.3,173.8c3.8-3.3,4.8-7.1,4.3-10.9l-2.9-2.9l-7.6,7.6l-2.5-2.5c-0.8-0.7-2-0.2-2,0.9l-0.8,11.7
			c0,0.7,0.5,1.2,1.2,1.2l11.7-0.9c1.1,0,1.6-1.3,0.8-2L110.3,173.8z"/>
		<path class="st1" d="M114.6,159.6v-0.9h-10.8l0-3.5c0-1.1-1.3-1.6-2-0.8l-8.8,7.7c-0.5,0.5-0.5,1.2,0,1.7l8.9,7.7
			c0.8,0.7,2,0.2,2-0.9l0-3c5,0.4,8.4-1.7,10.7-4.6C114.5,161.8,114.5,160.7,114.6,159.6z"/>
		<path class="st2" d="M110,152.4L110,152.4L110,152.4c0-0.1,0-0.1,0-0.2l-3,0c-1.1,0-1.6-1.3-0.9-2l2.2-2.6l-8.4-0.6
			c-0.7,0-1.2,0.5-1.2,1.2l0.9,11.7c0,1.1,1.3,1.6,2,0.8l2.1-2.2c3.3,3.8,7.1,4.8,10.9,4.3C111.7,160.6,109.7,157.3,110,152.4z"/>
	</g>
	<g class="st3">
		<rect x="174.7" y="14.3" class="st4" width="16.7" height="1.1"/>
		<rect x="119.5" y="14.3" class="st4" width="40.2" height="1.1"/>
		<rect x="206.4" y="14.3" class="st4" width="43" height="1.1"/>
		<rect x="95" y="53.1" class="st4" width="154.3" height="1.1"/>
		<g class="st5">
			<path class="st6" d="M95,34.2c0-3.8,0.8-6.8,2.4-8.9s3.8-3.2,6.6-3.2c1.8,0,3.4,0.4,4.7,1.2c1.4,0.8,2.5,2,3.3,3.6V12.6h1.2v33.8
				H112v-3.8c-0.8,1.4-1.9,2.4-3.3,3.1c-1.4,0.7-3,1.1-4.8,1.1c-2.8,0-4.9-1.1-6.5-3.3s-2.4-5.2-2.4-9C95,34.5,95,34.2,95,34.2z
				 M96.2,34.7c0,3.4,0.7,6,2,8s3.2,2.9,5.7,2.9c2,0,3.6-0.4,5-1.3c1.4-0.9,2.4-2.2,3.1-3.8V29.3c-1.4-4-4.1-6-8.1-6
				c-2.4,0-4.3,1-5.7,2.9C96.9,28.1,96.2,30.9,96.2,34.7z"/>
			<path class="st6" d="M129.1,46.8c-1.9,0-3.7-0.5-5.3-1.6s-2.9-2.5-3.8-4.3s-1.4-3.8-1.4-6v-1c0-2.2,0.4-4.2,1.3-6.1
				s2.1-3.3,3.6-4.3c1.5-1,3.2-1.5,5-1.5c2.7,0,4.8,0.9,6.5,2.8s2.5,4.4,2.5,7.5v1.3h-17.8V35c0,1.9,0.4,3.7,1.2,5.4
				c0.8,1.6,1.9,2.9,3.4,3.9c1.4,0.9,3,1.4,4.7,1.4c1.6,0,3-0.3,4.1-0.8c1.1-0.5,2.1-1.4,3-2.5l0.8,0.6
				C135.2,45.5,132.6,46.8,129.1,46.8z M128.6,23.3c-2.3,0-4.3,0.9-5.9,2.6s-2.6,3.9-2.8,6.6h16.6v-0.3c0-1.6-0.3-3.1-1-4.5
				s-1.6-2.5-2.8-3.2C131.4,23.7,130.1,23.3,128.6,23.3z"/>
			<path class="st6" d="M151.4,45.6c2.2,0,3.9-0.6,5.3-1.7s2.2-2.7,2.3-4.8h1.2c-0.1,2.3-1,4.2-2.7,5.6c-1.7,1.4-3.7,2.1-6.2,2.1
				c-3,0-5.3-1.1-7.1-3.2s-2.6-5.1-2.6-8.8V34c0-3.6,0.9-6.5,2.6-8.6s4.1-3.2,7.1-3.2c2.5,0,4.6,0.8,6.2,2.3c1.6,1.5,2.5,3.5,2.6,6
				h-1.2c-0.1-2.1-0.9-3.9-2.3-5.2s-3.2-1.9-5.4-1.9c-2.7,0-4.7,1-6.2,2.9s-2.3,4.6-2.3,8v0.8c0,3.3,0.8,5.9,2.3,7.8
				C146.6,44.7,148.7,45.6,151.4,45.6z"/>
			<path class="st6" d="M166,15.1c0-0.3,0.1-0.6,0.4-0.9c0.2-0.2,0.5-0.4,0.9-0.4c0.3,0,0.6,0.1,0.9,0.4c0.2,0.2,0.4,0.5,0.4,0.9
				s-0.1,0.6-0.4,0.9c-0.2,0.2-0.5,0.4-0.9,0.4c-0.3,0-0.6-0.1-0.9-0.4C166.1,15.7,166,15.5,166,15.1z M167.8,46.4h-1.2V22.6h1.2
				V46.4z"/>
			<path class="st6" d="M190.3,40.5c0-2.9-2.5-4.9-7.4-5.9c-3-0.6-5-1.4-6.2-2.4s-1.7-2.4-1.7-4.1s0.7-3.2,2.2-4.3s3.4-1.7,5.8-1.7
				c2.6,0,4.6,0.6,6.2,1.8c1.6,1.2,2.3,2.9,2.3,5h-1.2c0-1.6-0.7-2.9-2-4c-1.4-1.1-3.1-1.6-5.3-1.6c-2.1,0-3.7,0.5-5,1.4
				c-1.2,0.9-1.8,2-1.8,3.4c0,1.1,0.2,1.9,0.7,2.5s1.2,1.2,2.2,1.7c1,0.5,2.5,1,4.5,1.4c2,0.5,3.5,1,4.7,1.6c1.1,0.6,2,1.3,2.5,2.2
				c0.5,0.8,0.8,1.9,0.8,3.1c0,1.9-0.8,3.4-2.3,4.5s-3.6,1.7-6.1,1.7c-2.7,0-4.8-0.6-6.5-1.8c-1.6-1.2-2.5-2.8-2.5-4.7h1.2
				c0.1,1.7,0.9,3,2.2,3.9c1.4,0.9,3.2,1.4,5.5,1.4c2.1,0,3.9-0.5,5.2-1.5C189.6,43.1,190.3,41.9,190.3,40.5z"/>
			<path class="st6" d="M197.7,15.1c0-0.3,0.1-0.6,0.4-0.9c0.2-0.2,0.5-0.4,0.9-0.4c0.3,0,0.6,0.1,0.9,0.4c0.2,0.2,0.4,0.5,0.4,0.9
				s-0.1,0.6-0.4,0.9c-0.2,0.2-0.5,0.4-0.9,0.4c-0.3,0-0.6-0.1-0.9-0.4C197.8,15.7,197.7,15.5,197.7,15.1z M199.5,46.4h-1.2V22.6
				h1.2V46.4z"/>
			<path class="st6" d="M205.4,34c0-2.3,0.4-4.3,1.3-6.1c0.9-1.8,2.1-3.2,3.7-4.2c1.6-1,3.4-1.5,5.4-1.5s3.8,0.5,5.4,1.5
				s2.8,2.4,3.7,4.2c0.9,1.8,1.3,3.8,1.4,6.1v1.1c0,2.3-0.4,4.3-1.3,6.1c-0.9,1.8-2.1,3.2-3.7,4.2c-1.6,1-3.4,1.5-5.4,1.5
				s-3.8-0.5-5.4-1.5s-2.8-2.4-3.7-4.2s-1.3-3.8-1.3-6.1L205.4,34L205.4,34z M206.6,34.9c0,2,0.4,3.8,1.2,5.4
				c0.8,1.7,1.9,2.9,3.3,3.9c1.4,0.9,3,1.4,4.8,1.4c2.7,0,4.9-1,6.6-3.1s2.6-4.7,2.6-7.9V34c0-2-0.4-3.8-1.2-5.4s-1.9-3-3.3-3.9
				c-1.4-0.9-3-1.4-4.8-1.4c-2.7,0-4.9,1-6.6,3.1s-2.6,4.7-2.6,7.8V34.9z"/>
			<path class="st6" d="M233.3,28.1c0.8-1.8,1.9-3.3,3.4-4.4s3.2-1.6,5-1.6c2.6,0,4.4,0.7,5.7,2.2c1.2,1.4,1.9,3.6,1.9,6.5v15.5
				h-1.2V30.8c0-2.5-0.5-4.4-1.6-5.7c-1-1.2-2.7-1.8-4.9-1.8c-2.1,0-3.8,0.7-5.3,2.2s-2.5,3.3-3,5.6v15.2h-1.2V22.6h1.2L233.3,28.1
				L233.3,28.1z"/>
		</g>
		<path class="st4" d="M36.6,42.9c0-0.2,0-12.7,0-12.7c0-2.6-0.8-4.7-2.6-6c-1.6-1.4-3.9-2.1-6.6-2.1c-1.8,0-3.4,0.3-5,0.8
			c-1.4,0.5-2.9,1.3-3.9,2.1l-0.2,0.2v5h4.3v-2.6c0.5-0.3,1-0.6,1.8-1c0.8-0.3,1.6-0.3,2.6-0.3c1.4,0,2.6,0.3,3.2,1.1
			c0.8,0.6,1.1,1.6,1.1,2.9v2.3h-3.9c-3.2,0-5.6,0.6-7.4,1.8c-1.8,1.3-2.7,3.1-2.7,5.3c0,2.3,0.6,4,1.9,5.2c1.3,1.3,3.2,1.9,5.8,1.9
			c1.4,0,2.7-0.3,4-1.1c1-0.5,1.8-1.1,2.4-1.8c0,0.2,0,2.4,0,2.4h6.8v-3.4L36.6,42.9L36.6,42.9z M23.7,37.1c1-0.8,2.3-1.1,3.9-1.1h4
			v3.2c-0.5,0.8-1.3,1.6-2.3,2.1c-1.1,0.6-2.3,1-3.5,1c-1.1,0-2.1-0.2-2.6-0.6s-0.8-1.1-0.8-1.9C22.4,38.7,22.7,37.8,23.7,37.1z"/>
		<path class="st4" d="M63.3,42.9V31.3c0-3.1-0.6-5.5-2.1-6.9s-3.5-2.3-6.1-2.3c-1.6,0-2.9,0.3-4.2,1.1c-1,0.5-1.8,1.3-2.4,2.1v-2.7
			h-8.2V26h3.5v16.9h-3.5v3.4h11.9v-3.4h-3.5V29.2c0.5-1,1.1-1.6,2.1-2.1c0.8-0.5,1.9-0.8,3.1-0.8c1.4,0,2.7,0.3,3.4,1.1
			c0.8,0.8,1.1,2.1,1.1,4v11.4h-3.5v3.4h11.9v-3.4L63.3,42.9L63.3,42.9z"/>
		<path class="st4" d="M81.6,22.5v3.4H84l-4.3,13.2l-4.3-13.2h2.4v-3.4H67.7v3.4H70l7.3,19.4l-1,2.3c-0.3,1-0.8,1.8-1.4,2.6
			c-0.5,0.6-1.1,1-1.9,1c-0.2,0-2.3-0.3-2.3-0.3L70.2,55c0,0,1,0.2,1.6,0.3c0.5,0.2,1,0.2,1.3,0.2c1.9,0,3.5-0.6,4.7-1.8
			c1.1-1.1,1.9-2.6,2.6-4.2l8.7-23.7h2.1v-3.4L81.6,22.5z"/>
	</g>
</g>
<g id="Layer_2">
	<rect x="0" y="283" class="st0" width="332.4" height="68"/>
	<text transform="matrix(1 0 0 1 66.5218 328.9)"><tspan x="0" y="0" class="st1" style="font-family:'RobotoSlab-Regular'; font-size:45px;">any</tspan><tspan x="79.3" y="0" class="st2" style="font-family:'RobotoSlab-Regular'; font-size:45px;">decision</tspan></text>
	<g>
		<path class="st1" d="M42.5,303.1l-7.7-8.8c-0.5-0.5-1.2-0.5-1.7,0l-7.7,8.9c-0.7,0.8-0.2,2,0.9,2l3,0c-0.4,5,1.7,8.4,4.6,10.7h4.2
			v-10.8l3.5,0C42.7,305.1,43.2,303.8,42.5,303.1z"/>
		<path class="st2" d="M48.6,300l-11.7,0.9c-1.1,0-1.6,1.3-0.8,2l2.2,2.1c-3.8,3.3-4.8,7.1-4.3,10.9l2.9,2.9l7.6-7.6l2.5,2.5
			c0.8,0.7,2,0.2,2-0.9l0.8-11.7C49.8,300.5,49.3,300,48.6,300z"/>
		<path class="st1" d="M55.6,315l-8.9-7.7c-0.8-0.7-2-0.2-2,0.9l0,3c-5-0.4-8.4,1.7-10.7,4.6l0,4.2h10.8l0,3.5c0,1.1,1.3,1.6,2,0.8
			l8.8-7.7C56.1,316.3,56.1,315.5,55.6,315z"/>
		<path class="st2" d="M49,318.9c0-1.1-1.3-1.6-2-0.8l-2.1,2.2c-3.3-3.8-7.1-4.8-10.9-4.3l-2.9,2.9l7.6,7.6l-2.5,2.5
			c-0.8,0.8-0.2,2,0.9,2l11.7,0.8c0.7,0,1.2-0.5,1.2-1.2L49,318.9z"/>
		<path class="st1" d="M41.6,326.6l-3,0c0.4-5-1.7-8.4-4.6-10.7h-4.2l0,10.8l-3.5,0c-1.1,0-1.6,1.3-0.8,2l7.7,8.8
			c0.5,0.5,1.2,0.5,1.7,0l7.7-8.9C43.2,327.9,42.7,326.6,41.6,326.6z"/>
		<path class="st2" d="M29.7,326.8c3.8-3.3,4.8-7.1,4.3-10.9L31,313l-7.6,7.6l-2.5-2.5c-0.8-0.7-2-0.2-2,0.9l-0.8,11.7
			c0,0.7,0.5,1.2,1.2,1.2L31,331c1.1,0,1.6-1.3,0.8-2L29.7,326.8z"/>
		<path class="st1" d="M34,312.6v-0.9H23.2l0-3.5c0-1.1-1.3-1.6-2-0.8l-8.8,7.7c-0.5,0.5-0.5,1.2,0,1.7l8.9,7.7c0.8,0.7,2,0.2,2-0.9
			l0-3c5,0.4,8.4-1.7,10.7-4.6C33.8,314.8,33.8,313.7,34,312.6z"/>
		<path class="st2" d="M29.3,305.4L29.3,305.4L29.3,305.4c0-0.1,0-0.1,0-0.2l-3,0c-1.1,0-1.6-1.3-0.9-2l2.2-2.6l-8.4-0.6
			c-0.7,0-1.2,0.5-1.2,1.2l0.9,11.7c0,1.1,1.3,1.6,2,0.8l2.1-2.2c3.3,3.8,7.1,4.8,10.9,4.3C31,313.6,29,310.3,29.3,305.4z"/>
	</g>
	<rect x="0" y="428.3" class="st0" width="332.4" height="68"/>
	<g>
		<path class="st1" d="M83.5,474.2l0-3.3c-0.8,1.1-1.9,2-3.1,2.7c-1.3,0.7-2.6,1.1-4,1.1c-2.5,0-4.4-0.6-5.6-1.8
			c-1.3-1.2-1.9-2.9-1.9-5.1c0-2.3,0.9-4,2.7-5.2c1.8-1.2,4.3-1.8,7.5-1.8h4.5V458c0-1.4-0.4-2.5-1.3-3.3c-0.9-0.8-2.1-1.2-3.7-1.2
			c-1.1,0-2,0.1-2.9,0.4c-0.8,0.3-1.5,0.7-2,1.1l0,2.5h-3.8v-4.6c1.1-0.9,2.4-1.6,3.9-2.1c1.5-0.5,3.2-0.8,5-0.8
			c2.7,0,4.9,0.7,6.5,2.1s2.5,3.3,2.5,5.9l0,13.5l1.8,0v2.8H83.5z M77,471.1c1.4,0,2.7-0.3,3.9-1s2-1.5,2.5-2.5v-3.9h-4.6
			c-1.8,0-3.2,0.4-4.2,1.2c-1,0.8-1.5,1.8-1.5,3c0,1,0.3,1.8,1,2.4C74.7,470.8,75.7,471.1,77,471.1z"/>
		<path class="st1" d="M92.6,471.5l3.6,0v-18.2l-3.6,0v-2.8h7.8l0,3.5c0.8-1.3,1.8-2.2,3-2.9c1.2-0.7,2.6-1,4.1-1
			c2.6,0,4.5,0.8,6,2.3c1.4,1.5,2.1,3.8,2.1,7l0,12.2l3.6,0v2.8h-11.5v-2.8l3.6,0l0-12.2c0-2.1-0.4-3.6-1.2-4.5
			c-0.8-0.9-2.1-1.3-3.8-1.3c-1.2,0-2.3,0.3-3.3,0.9s-1.7,1.4-2.3,2.5l0,14.6l3.6,0v2.8H92.6V471.5z"/>
		<path class="st1" d="M142.9,453.2l-2.1,0l-9.1,24.6c-0.6,1.6-1.5,3-2.6,4.2c-1.1,1.2-2.6,1.8-4.5,1.8c-0.3,0-0.8,0-1.3-0.1
			c-0.5-0.1-1-0.2-1.3-0.2l0.4-3.4c-0.1,0,0.2,0,0.8,0c0.6,0,1,0.1,1.2,0.1c0.9,0,1.7-0.4,2.2-1.2c0.6-0.8,1.1-1.7,1.5-2.8l1-2.5
			l-7.8-20.5l-2.2,0v-2.8h9.6v2.8l-2.7,0l5,15.2l4.9-15.2l-2.7,0v-2.8h9.6V453.2z"/>
		<path class="st2" d="M163.5,471.4c-0.8,1.1-1.7,1.9-2.8,2.5s-2.4,0.8-3.9,0.8c-2.9,0-5.2-1.1-6.8-3.2c-1.6-2.1-2.4-4.9-2.4-8.3
			v-0.5c0-3.8,0.8-6.9,2.4-9.3s3.9-3.5,6.8-3.5c1.4,0,2.6,0.3,3.7,0.8c1.1,0.5,2,1.3,2.8,2.3l0-10.3l-3.6,0V440h7.9l0,31.5l3.6,0
			v2.8h-7.7L163.5,471.4z M151.8,463.2c0,2.4,0.5,4.3,1.5,5.8c1,1.5,2.5,2.2,4.5,2.2c1.3,0,2.4-0.3,3.3-0.9s1.6-1.4,2.2-2.5v-11
			c-0.6-1-1.3-1.8-2.2-2.4s-2-0.9-3.2-0.9c-2.1,0-3.6,0.9-4.6,2.6c-1,1.7-1.5,3.9-1.5,6.7V463.2z"/>
		<path class="st2" d="M183.8,474.7c-3.3,0-5.9-1.1-7.9-3.3c-2-2.2-2.9-5.1-2.9-8.6v-1c0-3.4,1-6.2,3-8.4c2-2.2,4.4-3.4,7.2-3.4
			c3.2,0,5.6,1,7.3,2.9c1.6,1.9,2.5,4.5,2.5,7.7v2.7h-15.4l-0.1,0.1c0,2.3,0.6,4.2,1.7,5.6c1.1,1.5,2.7,2.2,4.7,2.2
			c1.5,0,2.8-0.2,3.9-0.6c1.1-0.4,2.1-1,2.9-1.7l1.7,2.8c-0.8,0.8-2,1.5-3.4,2.1C187.5,474.4,185.8,474.7,183.8,474.7z M183.2,453.4
			c-1.4,0-2.7,0.6-3.7,1.8c-1,1.2-1.7,2.8-1.9,4.6l0,0.1h11v-0.6c0-1.7-0.5-3.1-1.4-4.3S185,453.4,183.2,453.4z"/>
		<path class="st2" d="M207.5,471.3c1.4,0,2.7-0.4,3.8-1.3c1.1-0.9,1.6-2,1.6-3.3h3.9l0,0.1c0.1,2.1-0.8,3.9-2.7,5.5
			c-1.9,1.6-4.1,2.4-6.6,2.4c-3.5,0-6.1-1.1-7.9-3.4c-1.8-2.3-2.7-5.1-2.7-8.5v-0.9c0-3.4,0.9-6.2,2.7-8.5c1.8-2.3,4.5-3.4,7.9-3.4
			c1.9,0,3.6,0.3,5.1,0.9c1.5,0.6,2.8,1.5,3.8,2.6l0.2,5.3h-3.4l-0.9-3.7c-0.5-0.5-1.2-0.9-2-1.2c-0.8-0.3-1.7-0.5-2.7-0.5
			c-2.3,0-3.9,0.8-4.9,2.5c-1,1.6-1.5,3.6-1.5,6v0.9c0,2.4,0.5,4.5,1.4,6.1C203.6,470.5,205.2,471.3,207.5,471.3z"/>
		<path class="st2" d="M220.2,471.5l3.6,0v-18.2l-3.6,0v-2.8h7.9l0,21l3.6,0v2.8h-11.5V471.5z M228.1,444.4h-4.3V440h4.3V444.4z"/>
		<path class="st2" d="M253,457.9h-3.3l-0.7-2.9c-0.5-0.5-1.2-0.9-2-1.2c-0.8-0.3-1.7-0.5-2.7-0.5c-1.5,0-2.7,0.3-3.4,1
			c-0.7,0.7-1.1,1.5-1.1,2.4c0,0.9,0.3,1.7,1,2.2c0.7,0.5,2,1,4,1.5c3,0.6,5.2,1.5,6.7,2.6c1.5,1.1,2.2,2.6,2.2,4.4
			c0,2.1-0.9,3.8-2.6,5.1c-1.7,1.3-3.9,2-6.7,2c-1.8,0-3.4-0.2-4.9-0.6c-1.4-0.4-2.7-1-3.8-1.8l0-5.4h3.3l0.8,3.2
			c0.5,0.5,1.2,0.8,2,1c0.9,0.2,1.7,0.3,2.6,0.3c1.5,0,2.7-0.3,3.6-0.9c0.9-0.6,1.3-1.4,1.3-2.5c0-1-0.4-1.7-1.1-2.4
			c-0.7-0.6-2.1-1.2-4.1-1.6c-2.9-0.6-5.1-1.5-6.5-2.6s-2.2-2.5-2.2-4.4c0-1.9,0.8-3.6,2.5-4.9c1.6-1.4,3.8-2,6.4-2
			c1.8,0,3.4,0.2,4.9,0.7s2.6,1.1,3.6,2L253,457.9z"/>
		<path class="st2" d="M257.5,471.5l3.6,0v-18.2l-3.6,0v-2.8h7.9l0,21l3.6,0v2.8h-11.5V471.5z M265.4,444.4h-4.3V440h4.3V444.4z"/>
		<path class="st2" d="M271.7,462.1c0-3.5,1-6.4,2.9-8.7c1.9-2.3,4.5-3.4,7.8-3.4c3.3,0,5.9,1.1,7.8,3.4c1.9,2.3,2.9,5.2,2.9,8.7
			v0.5c0,3.5-1,6.4-2.9,8.7s-4.5,3.4-7.8,3.4c-3.3,0-5.9-1.1-7.8-3.4c-1.9-2.3-2.9-5.2-2.9-8.7V462.1z M276,462.6
			c0,2.5,0.5,4.6,1.6,6.2c1.1,1.6,2.6,2.5,4.7,2.5c2,0,3.6-0.8,4.7-2.5s1.6-3.7,1.6-6.2v-0.5c0-2.5-0.5-4.6-1.6-6.2
			s-2.6-2.5-4.7-2.5s-3.6,0.8-4.7,2.5s-1.6,3.7-1.6,6.2V462.6z"/>
		<path class="st2" d="M295.1,471.5l3.6,0v-18.2l-3.6,0v-2.8h7.8l0,3.5c0.8-1.3,1.8-2.2,3-2.9c1.2-0.7,2.6-1,4.1-1
			c2.6,0,4.5,0.8,6,2.3c1.4,1.5,2.1,3.8,2.1,7l0,12.2l3.6,0v2.8h-11.5v-2.8l3.6,0l0-12.2c0-2.1-0.4-3.6-1.2-4.5
			c-0.8-0.9-2.1-1.3-3.8-1.3c-1.2,0-2.3,0.3-3.3,0.9c-1,0.6-1.7,1.4-2.3,2.5l0,14.6l3.6,0v2.8h-11.5V471.5z"/>
	</g>
	<g>
		<path class="st1" d="M42.5,448.4l-7.7-8.8c-0.5-0.5-1.2-0.5-1.7,0l-7.7,8.9c-0.7,0.8-0.2,2,0.9,2l3,0c-0.4,5,1.7,8.4,4.6,10.7h4.2
			v-10.8l3.5,0C42.7,450.5,43.2,449.2,42.5,448.4z"/>
		<path class="st2" d="M48.6,445.3l-11.7,0.9c-1.1,0-1.6,1.3-0.8,2l2.2,2.1c-3.8,3.3-4.8,7.1-4.3,10.9l2.9,2.9l7.6-7.6l2.5,2.5
			c0.8,0.7,2,0.2,2-0.9l0.8-11.7C49.8,445.8,49.3,445.3,48.6,445.3z"/>
		<path class="st1" d="M55.6,460.4l-8.9-7.7c-0.8-0.7-2-0.2-2,0.9l0,3c-5-0.4-8.4,1.7-10.7,4.6l0,4.2h10.8l0,3.5
			c0,1.1,1.3,1.6,2,0.8l8.8-7.7C56.1,461.6,56.1,460.8,55.6,460.4z"/>
		<path class="st2" d="M49,464.2c0-1.1-1.3-1.6-2-0.8l-2.1,2.2c-3.3-3.8-7.1-4.8-10.9-4.3l-2.9,2.9l7.6,7.6l-2.5,2.5
			c-0.8,0.8-0.2,2,0.9,2l11.7,0.8c0.7,0,1.2-0.5,1.2-1.2L49,464.2z"/>
		<path class="st1" d="M41.6,472l-3,0c0.4-5-1.7-8.4-4.6-10.7l-4.2,0l0,10.8l-3.5,0c-1.1,0-1.6,1.3-0.8,2l7.7,8.8
			c0.5,0.5,1.2,0.5,1.7,0l7.7-8.9C43.2,473.3,42.7,472,41.6,472z"/>
		<path class="st2" d="M29.7,472.1c3.8-3.3,4.8-7.1,4.3-10.9l-2.9-2.9l-7.6,7.6l-2.5-2.5c-0.8-0.7-2-0.2-2,0.9L18.1,476
			c0,0.7,0.5,1.2,1.2,1.2l11.7-0.9c1.1,0,1.6-1.3,0.8-2L29.7,472.1z"/>
		<path class="st1" d="M34,458v-0.9H23.2l0-3.5c0-1.1-1.3-1.6-2-0.8l-8.8,7.7c-0.5,0.5-0.5,1.2,0,1.7l8.9,7.7c0.8,0.7,2,0.2,2-0.9
			l0-3c5,0.4,8.4-1.7,10.7-4.6C33.8,460.2,33.8,459.1,34,458z"/>
		<path class="st2" d="M29.3,450.7L29.3,450.7L29.3,450.7c0-0.1,0-0.1,0-0.2l-3,0c-1.1,0-1.6-1.3-0.9-2l2.2-2.6l-8.4-0.6
			c-0.7,0-1.2,0.5-1.2,1.2l0.9,11.7c0,1.1,1.3,1.6,2,0.8l2.1-2.2c3.3,3.8,7.1,4.8,10.9,4.3C31,458.9,29,455.6,29.3,450.7z"/>
	</g>
	<rect x="235.2" y="440" class="st2" width="24.7" height="4.4"/>
	<rect x="272.8" y="440" class="st2" width="48.8" height="4.4"/>
	<rect x="171.9" y="440" class="st2" width="108.1" height="4.4"/>
	<rect x="223.8" y="440" class="st2" width="4.3" height="4.4"/>
	<rect x="261.1" y="440" class="st2" width="4.3" height="4.4"/>
	<rect x="0" y="548.3" class="st0" width="332.4" height="68"/>
	<g>
		<path class="st1" d="M83.5,594.2l0-3.3c-0.8,1.1-1.9,2-3.1,2.7c-1.3,0.7-2.6,1.1-4,1.1c-2.5,0-4.4-0.6-5.6-1.8
			c-1.3-1.2-1.9-2.9-1.9-5.1c0-2.3,0.9-4,2.7-5.2c1.8-1.2,4.3-1.8,7.5-1.8h4.5V578c0-1.4-0.4-2.5-1.3-3.3c-0.9-0.8-2.1-1.2-3.7-1.2
			c-1.1,0-2,0.1-2.9,0.4c-0.8,0.3-1.5,0.7-2,1.1l0,1.1c0,0.8-0.6,1.4-1.4,1.4h-1c-0.8,0-1.4-0.6-1.4-1.4v-3.2
			c1.1-0.9,2.4-1.6,3.9-2.1c1.5-0.5,3.2-0.8,5-0.8c2.7,0,4.9,0.7,6.5,2.1s2.5,3.3,2.5,5.9l0,13.5l0.4,0c0.8,0,1.4,0.6,1.4,1.4l0,0
			c0,0.8-0.6,1.4-1.4,1.4H83.5z M77,591.1c1.4,0,2.7-0.3,3.9-1s2-1.5,2.5-2.5v-3.9h-4.6c-1.8,0-3.2,0.4-4.2,1.2
			c-1,0.8-1.5,1.8-1.5,3c0,1,0.3,1.8,1,2.4C74.7,590.8,75.7,591.1,77,591.1z"/>
		<path class="st1" d="M94,591.5l2.2,0v-18.2H94c-0.8,0-1.4-0.6-1.4-1.4v0c0-0.8,0.6-1.4,1.4-1.4h6.4l0,3.5c0.8-1.3,1.8-2.2,3-2.9
			c1.2-0.7,2.6-1,4.1-1c2.6,0,4.5,0.8,6,2.3c1.4,1.5,2.1,3.8,2.1,7l0,12.2l2.2,0c0.8,0,1.4,0.6,1.4,1.4v0c0,0.8-0.6,1.4-1.4,1.4H109
			c-0.8,0-1.4-0.6-1.4-1.4v0c0-0.8,0.6-1.4,1.4-1.4l2.2,0l0-12.2c0-2.1-0.4-3.6-1.2-4.5c-0.8-0.9-2.1-1.3-3.8-1.3
			c-1.2,0-2.3,0.3-3.3,0.9s-1.7,1.4-2.3,2.5l0,14.6l2.2,0c0.8,0,1.4,0.6,1.4,1.4v0c0,0.8-0.6,1.4-1.4,1.4H94c-0.8,0-1.4-0.6-1.4-1.4
			v0C92.6,592.1,93.2,591.5,94,591.5z"/>
		<path class="st1" d="M141.5,573.2h-0.7l-9.1,24.6c-0.6,1.6-1.5,3-2.6,4.2c-1.1,1.2-2.6,1.8-4.5,1.8c-0.1,0-0.4,0-0.8-0.1
			c-1-0.1-1.7-1-1.5-2l0,0c0.1-0.9,0.9-1.6,1.9-1.6c0.1,0,0.2,0,0.3,0c0.9,0,1.7-0.4,2.2-1.2c0.6-0.8,1.1-1.7,1.5-2.8l1-2.5
			l-7.8-20.5h-0.8c-0.8,0-1.4-0.6-1.4-1.4v0c0-0.8,0.6-1.4,1.4-1.4h6.8c0.8,0,1.4,0.6,1.4,1.4v0c0,0.8-0.6,1.4-1.4,1.4H126l5,15.2
			l4.9-15.2h-1.3c-0.8,0-1.4-0.6-1.4-1.4v0c0-0.8,0.6-1.4,1.4-1.4h6.8c0.8,0,1.4,0.6,1.4,1.4v0C142.9,572.6,142.2,573.2,141.5,573.2
			z"/>
		<path class="st2" d="M163.5,591.4c-0.8,1.1-1.7,1.9-2.8,2.5s-2.4,0.8-3.9,0.8c-2.9,0-5.2-1.1-6.8-3.2c-1.6-2.1-2.4-4.9-2.4-8.3
			v-0.5c0-3.8,0.8-6.9,2.4-9.3s3.9-3.5,6.8-3.5c1.4,0,2.6,0.3,3.7,0.8c1.1,0.5,2,1.3,2.8,2.3l0-10.3l-2.2,0c-0.8,0-1.4-0.6-1.4-1.4
			v0c0-0.8,0.6-1.4,1.4-1.4h6.5l0,31.5l2.2,0c0.8,0,1.4,0.6,1.4,1.4v0c0,0.8-0.6,1.4-1.4,1.4h-6.3L163.5,591.4z M151.8,583.2
			c0,2.4,0.5,4.3,1.5,5.8c1,1.5,2.5,2.2,4.5,2.2c1.3,0,2.4-0.3,3.3-0.9s1.6-1.4,2.2-2.5v-11c-0.6-1-1.3-1.8-2.2-2.4s-2-0.9-3.2-0.9
			c-2.1,0-3.6,0.9-4.6,2.6c-1,1.7-1.5,3.9-1.5,6.7V583.2z"/>
		<path class="st2" d="M183.8,594.7c-3.3,0-5.9-1.1-7.9-3.3c-2-2.2-2.9-5.1-2.9-8.6v-1c0-3.4,1-6.2,3-8.4c2-2.2,4.4-3.4,7.2-3.4
			c3.2,0,5.6,1,7.3,2.9c1.6,1.9,2.5,4.5,2.5,7.7v2.7h-15.4l-0.1,0.1c0,2.3,0.6,4.2,1.7,5.6c1.1,1.5,2.7,2.2,4.7,2.2
			c1.5,0,2.8-0.2,3.9-0.6c0.6-0.2,1.2-0.5,1.8-0.9c0.6-0.4,1.5-0.2,1.9,0.5l0.3,0.5c0.4,0.6,0.2,1.4-0.4,1.8
			c-0.7,0.5-1.5,0.9-2.4,1.3C187.5,594.4,185.8,594.7,183.8,594.7z M183.2,573.4c-1.4,0-2.7,0.6-3.7,1.8c-1,1.2-1.7,2.8-1.9,4.6
			l0,0.1h11v-0.6c0-1.7-0.5-3.1-1.4-4.3S185,573.4,183.2,573.4z"/>
		<path class="st2" d="M207.5,591.3c1.4,0,2.7-0.4,3.8-1.3c0.7-0.6,1.2-1.3,1.5-2.1c0.2-0.7,0.9-1.2,1.6-1.2l0,0
			c1.1,0,1.9,1,1.7,2.1c-0.2,1.3-0.8,2.5-2,3.5c-1.9,1.6-4.1,2.4-6.6,2.4c-3.5,0-6.1-1.1-7.9-3.4c-1.8-2.3-2.7-5.1-2.7-8.5v-0.9
			c0-3.4,0.9-6.2,2.7-8.5c1.8-2.3,4.5-3.4,7.9-3.4c1.9,0,4.1,0.5,5.7,1.3c1.9,1,2.8,2.2,2.8,2.2l0,3.5c0,1-0.8,1.7-1.7,1.7l0,0
			c-1,0-1.7-0.8-1.7-1.7l0-2c-0.5-0.5-2.2-1.7-5-1.7c-2.3,0-3.9,0.8-4.9,2.5c-1,1.6-1.5,3.6-1.5,6v0.9c0,2.4,0.5,4.5,1.4,6.1
			C203.6,590.5,205.2,591.3,207.5,591.3z"/>
		<path class="st2" d="M221.6,591.5l2.2,0v-18.2h-2.2c-0.8,0-1.4-0.6-1.4-1.4v0c0-0.8,0.6-1.4,1.4-1.4h6.5l0,21l2.2,0
			c0.8,0,1.4,0.6,1.4,1.4v0c0,0.8-0.6,1.4-1.4,1.4h-8.7c-0.8,0-1.4-0.6-1.4-1.4v0C220.2,592.1,220.8,591.5,221.6,591.5z"/>
		<path class="st2" d="M251.1,577.9L251.1,577.9c-0.9,0-1.6-0.7-1.6-1.6l0-1.2c-0.5-0.5-2.8-1.6-5.1-1.6c-1.5,0-2.7,0.3-3.4,1
			c-0.7,0.7-1.1,1.5-1.1,2.4c0,0.9,0.3,1.7,1,2.2c0.7,0.5,2,1,4,1.5c3,0.6,5.2,1.5,6.7,2.6c1.5,1.1,2.2,2.6,2.2,4.4
			c0,2.1-0.9,3.8-2.6,5.1c-1.7,1.3-3.9,2-6.7,2c-1.8,0-3.4-0.2-4.9-0.6c-1.4-0.4-2.7-1-3.8-1.8l0-3.8c0-0.9,0.7-1.6,1.6-1.6l0,0
			c0.9,0,1.6,0.7,1.6,1.6l0,1.6c0.5,0.5,2,0.8,2.8,1c0.9,0.2,1.7,0.3,2.6,0.3c1.5,0,2.7-0.3,3.6-0.9c0.9-0.6,1.3-1.4,1.3-2.5
			c0-1-0.4-1.7-1.1-2.4c-0.7-0.6-2.1-1.2-4.1-1.6c-2.9-0.6-5.1-1.5-6.5-2.6s-2.2-2.5-2.2-4.4c0-1.9,0.8-3.6,2.5-4.9
			c1.6-1.4,3.8-2,6.4-2c1.8,0,3.9,0.2,5.5,1c1.7,0.8,2.9,1.9,2.9,1.9l0,3.4C252.7,577.2,252,577.9,251.1,577.9z"/>
		<path class="st2" d="M258.9,591.5l2.2,0v-18.2h-2.2c-0.8,0-1.4-0.6-1.4-1.4v0c0-0.8,0.6-1.4,1.4-1.4h6.5l0,21l2.2,0
			c0.8,0,1.4,0.6,1.4,1.4v0c0,0.8-0.6,1.4-1.4,1.4h-8.7c-0.8,0-1.4-0.6-1.4-1.4v0C257.5,592.1,258.1,591.5,258.9,591.5z"/>
		<path class="st2" d="M271.7,582.1c0-3.5,1-6.4,2.9-8.7c1.9-2.3,4.5-3.4,7.8-3.4c3.3,0,5.9,1.1,7.8,3.4c1.9,2.3,2.9,5.2,2.9,8.7
			v0.5c0,3.5-1,6.4-2.9,8.7s-4.5,3.4-7.8,3.4c-3.3,0-5.9-1.1-7.8-3.4c-1.9-2.3-2.9-5.2-2.9-8.7V582.1z M276,582.6
			c0,2.5,0.5,4.6,1.6,6.2c1.1,1.6,2.6,2.5,4.7,2.5c2,0,3.6-0.8,4.7-2.5s1.6-3.7,1.6-6.2v-0.5c0-2.5-0.5-4.6-1.6-6.2
			s-2.6-2.5-4.7-2.5s-3.6,0.8-4.7,2.5s-1.6,3.7-1.6,6.2V582.6z"/>
		<path class="st2" d="M296.5,591.5l2.2,0v-18.2h-2.2c-0.8,0-1.4-0.6-1.4-1.4v0c0-0.8,0.6-1.4,1.4-1.4h6.4l0,3.5
			c0.8-1.3,1.8-2.2,3-2.9c1.2-0.7,2.6-1,4.1-1c2.6,0,4.5,0.8,6,2.3c1.4,1.5,2.1,3.8,2.1,7l0,12.2l2.2,0c0.8,0,1.4,0.6,1.4,1.4v0
			c0,0.8-0.6,1.4-1.4,1.4h-8.7c-0.8,0-1.4-0.6-1.4-1.4v0c0-0.8,0.6-1.4,1.4-1.4l2.2,0l0-12.2c0-2.1-0.4-3.6-1.2-4.5
			c-0.8-0.9-2.1-1.3-3.8-1.3c-1.2,0-2.3,0.3-3.3,0.9c-1,0.6-1.7,1.4-2.3,2.5l0,14.6l2.2,0c0.8,0,1.4,0.6,1.4,1.4v0
			c0,0.8-0.6,1.4-1.4,1.4h-8.7c-0.8,0-1.4-0.6-1.4-1.4v0C295.1,592.1,295.7,591.5,296.5,591.5z"/>
	</g>
	<g>
		<path class="st1" d="M42.5,568.4l-7.7-8.8c-0.5-0.5-1.2-0.5-1.7,0l-7.7,8.9c-0.7,0.8-0.2,2,0.9,2l3,0c-0.4,5,1.7,8.4,4.6,10.7h4.2
			v-10.8l3.5,0C42.7,570.5,43.2,569.2,42.5,568.4z"/>
		<path class="st2" d="M48.6,565.3l-11.7,0.9c-1.1,0-1.6,1.3-0.8,2l2.2,2.1c-3.8,3.3-4.8,7.1-4.3,10.9l2.9,2.9l7.6-7.6l2.5,2.5
			c0.8,0.7,2,0.2,2-0.9l0.8-11.7C49.8,565.8,49.3,565.3,48.6,565.3z"/>
		<path class="st1" d="M55.6,580.4l-8.9-7.7c-0.8-0.8-2-0.2-2,0.9l0,3c-5-0.4-8.4,1.7-10.7,4.6l0,4.2h10.8l0,3.5
			c0,1.1,1.3,1.6,2,0.8l8.8-7.7C56.1,581.6,56.1,580.8,55.6,580.4z"/>
		<path class="st2" d="M49,584.2c0-1.1-1.3-1.6-2-0.8l-2.1,2.2c-3.3-3.8-7.1-4.8-10.9-4.3l-2.9,2.9l7.6,7.6l-2.5,2.5
			c-0.8,0.8-0.2,2,0.9,2l11.7,0.8c0.7,0,1.2-0.5,1.2-1.2L49,584.2z"/>
		<path class="st1" d="M41.6,592l-3,0c0.4-5-1.7-8.4-4.6-10.7l-4.2,0l0,10.8l-3.5,0c-1.1,0-1.6,1.3-0.8,2l7.7,8.8
			c0.5,0.5,1.2,0.5,1.7,0l7.7-8.9C43.2,593.3,42.7,592,41.6,592z"/>
		<path class="st2" d="M29.7,592.1c3.8-3.3,4.8-7.1,4.3-10.9l-2.9-2.9l-7.6,7.6l-2.5-2.5c-0.8-0.7-2-0.2-2,0.9L18.1,596
			c0,0.7,0.5,1.2,1.2,1.2l11.7-0.9c1.1,0,1.6-1.3,0.8-2L29.7,592.1z"/>
		<path class="st1" d="M34,578v-0.9H23.2l0-3.5c0-1.1-1.3-1.6-2-0.8l-8.8,7.7c-0.5,0.5-0.5,1.2,0,1.7l8.9,7.7c0.8,0.7,2,0.2,2-0.9
			l0-3c5,0.4,8.4-1.7,10.7-4.6C33.8,580.2,33.8,579.1,34,578z"/>
		<path class="st2" d="M29.3,570.7L29.3,570.7L29.3,570.7c0-0.1,0-0.1,0-0.2l-3,0c-1.1,0-1.6-1.3-0.9-2l2.2-2.6l-8.4-0.6
			c-0.7,0-1.2,0.5-1.2,1.2l0.9,11.7c0,1.1,1.3,1.6,2,0.8l2.1-2.2c3.3,3.8,7.1,4.8,10.9,4.3C31,578.9,29,575.6,29.3,570.7z"/>
	</g>
	<path class="st2" d="M226,564.4L226,564.4c-1.2,0-2.2-1-2.2-2.2v-0.1c0-1.2,1-2.2,2.2-2.2l0,0c1.2,0,2.2,1,2.2,2.2v0.1
		C228.1,563.4,227.2,564.4,226,564.4z"/>
	<path class="st2" d="M263.3,564.4L263.3,564.4c-1.2,0-2.2-1-2.2-2.2v-0.1c0-1.2,1-2.2,2.2-2.2l0,0c1.2,0,2.2,1,2.2,2.2v0.1
		C265.4,563.4,264.5,564.4,263.3,564.4z"/>
	<g>
		<rect x="346.5" y="0" class="st0" width="332.4" height="68"/>
		<g>
			<path class="st1" d="M430,46.3l0-3.3c-0.8,1.1-1.9,2-3.1,2.7c-1.3,0.7-2.6,1.1-4,1.1c-2.5,0-4.4-0.6-5.6-1.8
				c-1.3-1.2-1.9-2.9-1.9-5.1c0-2.3,0.9-4,2.7-5.2c1.8-1.2,4.3-1.8,7.5-1.8h4.5v-2.8c0-1.4-0.4-2.5-1.3-3.3
				c-0.9-0.8-2.1-1.2-3.7-1.2c-1.1,0-2,0.1-2.9,0.4c-0.8,0.3-1.5,0.7-2,1.1v1.1c0,0.8-0.6,1.4-1.4,1.4h-1c-0.8,0-1.4-0.6-1.4-1.4V25
				c1.1-0.9,2.4-1.6,3.9-2.1c1.5-0.5,3.2-0.8,5-0.8c2.7,0,4.9,0.7,6.5,2.1s2.5,3.3,2.5,5.9l0,13.5l0.4,0c0.8,0,1.4,0.6,1.4,1.4v0
				c0,0.8-0.6,1.4-1.4,1.4H430z M423.5,43.2c1.4,0,2.7-0.3,3.9-1s2-1.5,2.5-2.5v-3.9h-4.6c-1.8,0-3.2,0.4-4.2,1.2
				c-1,0.8-1.5,1.8-1.5,3c0,1,0.3,1.8,1,2.4C421.2,42.9,422.2,43.2,423.5,43.2z"/>
			<path class="st1" d="M439.2,43.6l2.2,0V25.4l-2.2,0c-0.8,0-1.4-0.6-1.4-1.4v0c0-0.8,0.6-1.4,1.4-1.4h6.4l0,3.5
				c0.8-1.3,1.8-2.2,3-2.9c1.2-0.7,2.6-1,4.1-1c2.6,0,4.5,0.8,6,2.3c1.4,1.5,2.1,3.8,2.1,7l0,12.2l2.2,0c0.8,0,1.4,0.6,1.4,1.4v0
				c0,0.8-0.6,1.4-1.4,1.4h-8.7c-0.8,0-1.4-0.6-1.4-1.4v0c0-0.8,0.6-1.4,1.4-1.4l2.2,0l0-12.2c0-2.1-0.4-3.6-1.2-4.5
				c-0.8-0.9-2.1-1.3-3.8-1.3c-1.2,0-2.3,0.3-3.3,0.9s-1.7,1.4-2.3,2.5l0,14.6l2.2,0c0.8,0,1.4,0.6,1.4,1.4v0c0,0.8-0.6,1.4-1.4,1.4
				h-8.7c-0.8,0-1.4-0.6-1.4-1.4v0C437.8,44.2,438.5,43.6,439.2,43.6z"/>
			<path class="st1" d="M511,43.5c-0.8,1.1-1.7,1.9-2.8,2.5s-2.4,0.8-3.9,0.8c-2.9,0-5.2-1.1-6.8-3.2c-1.6-2.1-2.4-4.9-2.4-8.3v-0.5
				c0-3.8,0.8-6.9,2.4-9.3s3.9-3.5,6.8-3.5c1.4,0,2.6,0.3,3.7,0.8c1.1,0.5,2,1.3,2.8,2.3l0-10.3l-2.2,0c-0.8,0-1.4-0.6-1.4-1.4v0
				c0-0.8,0.6-1.4,1.4-1.4h6.5l0,31.5l2.2,0c0.8,0,1.4,0.6,1.4,1.4l0,0c0,0.8-0.6,1.4-1.4,1.4H511L511,43.5z M499.3,35.4
				c0,2.4,0.5,4.3,1.5,5.8c1,1.5,2.5,2.2,4.5,2.2c1.3,0,2.4-0.3,3.3-0.9s1.6-1.4,2.2-2.5v-11c-0.6-1-1.3-1.8-2.2-2.4s-2-0.9-3.2-0.9
				c-2.1,0-3.6,0.9-4.6,2.6c-1,1.7-1.5,3.9-1.5,6.7V35.4z"/>
			<path class="st1" d="M530.3,46.8c-3.3,0-5.9-1.1-7.9-3.3c-2-2.2-2.9-5.1-2.9-8.6v-1c0-3.4,1-6.2,3-8.4c2-2.2,4.4-3.4,7.2-3.4
				c3.2,0,5.6,1,7.3,2.9c1.6,1.9,2.5,4.5,2.5,7.7v2.7H524l-0.1,0.1c0,2.3,0.6,4.2,1.7,5.6c1.1,1.5,2.7,2.2,4.7,2.2
				c1.5,0,2.8-0.2,3.9-0.6c0.6-0.2,1.2-0.5,1.8-0.9c0.6-0.4,1.5-0.2,1.9,0.5l0.3,0.5c0.4,0.6,0.2,1.4-0.4,1.8
				c-0.7,0.5-1.5,0.9-2.4,1.3C534,46.5,532.3,46.8,530.3,46.8z M529.7,25.5c-1.4,0-2.7,0.6-3.7,1.8c-1,1.2-1.7,2.8-1.9,4.6l0,0.1h11
				v-0.6c0-1.7-0.5-3.1-1.4-4.3S531.5,25.5,529.7,25.5z"/>
			<path class="st1" d="M553,43.4c1.4,0,2.7-0.4,3.8-1.3c0.7-0.6,1.2-1.3,1.5-2.1c0.2-0.7,0.9-1.2,1.6-1.2l0,0c1.1,0,1.9,1,1.7,2.1
				c-0.2,1.3-0.8,2.5-2,3.5c-1.9,1.6-4.1,2.4-6.6,2.4c-3.5,0-6.1-1.1-7.9-3.4c-1.8-2.3-2.7-5.1-2.7-8.5V34c0-3.4,0.9-6.2,2.7-8.5
				c1.8-2.3,4.5-3.4,7.9-3.4c1.9,0,4.1,0.5,5.7,1.3c1.9,1,2.8,2.2,2.8,2.2l0,3.5c0,1-0.8,1.7-1.7,1.7h0c-1,0-1.7-0.8-1.7-1.7l0-2
				c-0.5-0.5-2.2-1.7-5-1.7c-2.3,0-3.9,0.8-4.9,2.5c-1,1.6-1.5,3.6-1.5,6v0.9c0,2.4,0.5,4.5,1.4,6.1C549.1,42.6,550.7,43.4,553,43.4
				z"/>
			<path class="st1" d="M566.1,43.6l2.2,0V25.4l-2.2,0c-0.8,0-1.4-0.6-1.4-1.4v0c0-0.8,0.6-1.4,1.4-1.4h6.5l0,21l2.2,0
				c0.8,0,1.4,0.6,1.4,1.4l0,0c0,0.8-0.6,1.4-1.4,1.4h-8.7c-0.8,0-1.4-0.6-1.4-1.4l0,0C564.7,44.2,565.3,43.6,566.1,43.6z"/>
			<path class="st1" d="M594.6,30L594.6,30c-0.9,0-1.6-0.7-1.6-1.6l0-1.2c-0.5-0.5-2.8-1.6-5.1-1.6c-1.5,0-2.7,0.3-3.4,1
				c-0.7,0.7-1.1,1.5-1.1,2.4c0,0.9,0.3,1.7,1,2.2c0.7,0.5,2,1,4,1.5c3,0.6,5.2,1.5,6.7,2.6c1.5,1.1,2.2,2.6,2.2,4.4
				c0,2.1-0.9,3.8-2.6,5.1c-1.7,1.3-3.9,2-6.7,2c-1.8,0-3.4-0.2-4.9-0.6c-1.4-0.4-2.7-1-3.8-1.8l0-3.8c0-0.9,0.7-1.6,1.6-1.6l0,0
				c0.9,0,1.6,0.7,1.6,1.6v1.6c0.5,0.5,2,0.8,2.8,1c0.9,0.2,1.7,0.3,2.6,0.3c1.5,0,2.7-0.3,3.6-0.9c0.9-0.6,1.3-1.4,1.3-2.5
				c0-1-0.4-1.7-1.1-2.4c-0.7-0.6-2.1-1.2-4.1-1.6c-2.9-0.6-5.1-1.5-6.5-2.6S579,31,579,29.1c0-1.9,0.8-3.6,2.5-4.9
				c1.6-1.4,3.8-2,6.4-2c1.8,0,3.9,0.2,5.5,1c1.7,0.8,2.9,1.9,2.9,1.9l0,3.4C596.2,29.3,595.5,30,594.6,30z"/>
			<path class="st1" d="M601.4,43.6l2.2,0V25.4l-2.2,0c-0.8,0-1.4-0.6-1.4-1.4v0c0-0.8,0.6-1.4,1.4-1.4h6.5l0,21l2.2,0
				c0.8,0,1.4,0.6,1.4,1.4l0,0c0,0.8-0.6,1.4-1.4,1.4h-8.7c-0.8,0-1.4-0.6-1.4-1.4l0,0C600,44.2,600.6,43.6,601.4,43.6z"/>
			<path class="st1" d="M613.2,34.2c0-3.5,1-6.4,2.9-8.7c1.9-2.3,4.5-3.4,7.8-3.4c3.3,0,5.9,1.1,7.8,3.4c1.9,2.3,2.9,5.2,2.9,8.7
				v0.5c0,3.5-1,6.4-2.9,8.7s-4.5,3.4-7.8,3.4c-3.3,0-5.9-1.1-7.8-3.4c-1.9-2.3-2.9-5.2-2.9-8.7V34.2z M617.5,34.7
				c0,2.5,0.5,4.6,1.6,6.2c1.1,1.6,2.6,2.5,4.7,2.5c2,0,3.6-0.8,4.7-2.5s1.6-3.7,1.6-6.2v-0.5c0-2.5-0.5-4.6-1.6-6.2
				s-2.6-2.5-4.7-2.5s-3.6,0.8-4.7,2.5s-1.6,3.7-1.6,6.2V34.7z"/>
			<path class="st1" d="M637,43.6l2.2,0V25.4l-2.2,0c-0.8,0-1.4-0.6-1.4-1.4v0c0-0.8,0.6-1.4,1.4-1.4h6.4l0,3.5
				c0.8-1.3,1.8-2.2,3-2.9c1.2-0.7,2.6-1,4.1-1c2.6,0,4.5,0.8,6,2.3c1.4,1.5,2.1,3.8,2.1,7l0,12.2l2.2,0c0.8,0,1.4,0.6,1.4,1.4l0,0
				c0,0.8-0.6,1.4-1.4,1.4H652c-0.8,0-1.4-0.6-1.4-1.4l0,0c0-0.8,0.6-1.4,1.4-1.4l2.2,0l0-12.2c0-2.1-0.4-3.6-1.2-4.5
				c-0.8-0.9-2.1-1.3-3.8-1.3c-1.2,0-2.3,0.3-3.3,0.9c-1,0.6-1.7,1.4-2.3,2.5l0,14.6l2.2,0c0.8,0,1.4,0.6,1.4,1.4l0,0
				c0,0.8-0.6,1.4-1.4,1.4H637c-0.8,0-1.4-0.6-1.4-1.4l0,0C635.6,44.2,636.2,43.6,637,43.6z"/>
			<path class="st1" d="M570.5,16.5L570.5,16.5c-1.2,0-2.2-1-2.2-2.2v-0.1c0-1.2,1-2.2,2.2-2.2l0,0c1.2,0,2.2,1,2.2,2.2v0.1
				C572.6,15.5,571.7,16.5,570.5,16.5z"/>
			<path class="st1" d="M605.8,16.5L605.8,16.5c-1.2,0-2.2-1-2.2-2.2v-0.1c0-1.2,1-2.2,2.2-2.2l0,0c1.2,0,2.2,1,2.2,2.2v0.1
				C607.9,15.5,607,16.5,605.8,16.5z"/>
			<path class="st1" d="M485,22.6h-6.5c-0.8,0-1.4,0.6-1.4,1.4v0c0,0.8,0.6,1.4,1.4,1.4l0.6,0c0.7,0,1,0.7,0.6,1.7L475,39.4
				c-0.3,0.6-0.8,0.6-1.1,0L469.3,27c-0.5-1.2,0-1.7,0.7-1.7h0.5c0.8,0,1.4-0.6,1.4-1.4v0c0-0.8-0.6-1.4-1.4-1.4H464
				c-0.8,0-1.4,0.6-1.4,1.4v0c0,0.8,0.6,1.4,1.4,1.4l0.8,0l7.8,20.5l-1,2.5c-0.4,1-0.9,2-1.5,2.8c-0.6,0.8-1.3,1.2-2.2,1.2
				c0,0-0.1,0-0.2,0c-0.9,0-1.7,0.5-1.9,1.3c-0.3,1.1,0.4,2.1,1.5,2.3c0.4,0.1,0.7,0.1,0.8,0.1c1.9,0,3.4-0.6,4.5-1.8s2-2.6,2.6-4.2
				l9.1-24.6l0.7,0c0.8,0,1.4-0.6,1.4-1.4v0C486.4,23.2,485.7,22.6,485,22.6z"/>
		</g>
		<g>
			<path class="st1" d="M389,21.2l-7.7-8.8c-0.5-0.5-1.2-0.5-1.7,0l-7.7,8.9c-0.7,0.8-0.2,2,0.9,2l3,0c-0.4,5,1.7,8.4,4.6,10.7h4.2
				V23.2l3.5,0C389.2,23.2,389.7,21.9,389,21.2z"/>
			<path class="st2" d="M395.1,18.1l-11.7,0.9c-1.1,0-1.6,1.3-0.8,2l2.2,2.1c-3.8,3.3-4.8,7.1-4.3,10.9l2.9,2.9l7.6-7.6l2.5,2.5
				c0.8,0.7,2,0.2,2-0.9l0.8-11.7C396.3,18.6,395.8,18.1,395.1,18.1z"/>
			<path class="st1" d="M402.1,33.1l-8.9-7.7c-0.8-0.7-2-0.2-2,0.9l0,3c-5-0.4-8.4,1.7-10.7,4.6v4.2h10.8l0,3.5c0,1.1,1.3,1.6,2,0.8
				l8.8-7.7C402.6,34.3,402.6,33.6,402.1,33.1z"/>
			<path class="st2" d="M395.5,37c0-1.1-1.3-1.6-2-0.8l-2.1,2.2c-3.3-3.8-7.1-4.8-10.9-4.3l-2.9,2.9l7.6,7.6l-2.5,2.5
				c-0.8,0.8-0.2,2,0.9,2l11.7,0.8c0.7,0,1.2-0.5,1.2-1.2L395.5,37z"/>
			<path class="st1" d="M388.1,44.7l-3,0c0.4-5-1.7-8.4-4.6-10.7l-4.2,0v10.8l-3.5,0c-1.1,0-1.6,1.3-0.8,2l7.7,8.8
				c0.5,0.5,1.2,0.5,1.7,0l7.7-8.9C389.7,46,389.2,44.7,388.1,44.7z"/>
			<path class="st2" d="M376.2,44.9c3.8-3.3,4.8-7.1,4.3-10.9l-2.9-2.9l-7.6,7.6l-2.5-2.5c-0.8-0.7-2-0.2-2,0.9l-0.8,11.7
				c0,0.7,0.5,1.2,1.2,1.2l11.7-0.9c1.1,0,1.6-1.3,0.8-2L376.2,44.9z"/>
			<path class="st1" d="M380.5,30.7v-0.9l-10.8,0l0-3.5c0-1.1-1.3-1.6-2-0.8l-8.8,7.7c-0.5,0.5-0.5,1.2,0,1.7l8.9,7.7
				c0.8,0.7,2,0.2,2-0.9l0-3c5,0.4,8.4-1.7,10.7-4.6C380.3,32.9,380.3,31.8,380.5,30.7z"/>
			<path class="st2" d="M375.8,23.5L375.8,23.5L375.8,23.5c0-0.1,0-0.1,0-0.2l-3,0c-1.1,0-1.6-1.3-0.9-2l2.2-2.6l-8.4-0.6
				c-0.7,0-1.2,0.5-1.2,1.2l0.9,11.7c0,1.1,1.3,1.6,2,0.8l2.1-2.2c3.3,3.8,7.1,4.8,10.9,4.3C377.5,31.7,375.5,28.4,375.8,23.5z"/>
		</g>
	</g>
	<rect x="346.5" y="-79" class="st0" width="332.4" height="68"/>
	<g>
		<path class="st1" d="M430-32.7l0-3.3c-0.8,1.1-1.9,2-3.1,2.7c-1.3,0.7-2.6,1.1-4,1.1c-2.5,0-4.4-0.6-5.6-1.8
			c-1.3-1.2-1.9-2.9-1.9-5.1c0-2.3,0.9-4,2.7-5.2c1.8-1.2,4.3-1.8,7.5-1.8h4.5v-2.8c0-1.4-0.4-2.5-1.3-3.3c-0.9-0.8-2.1-1.2-3.7-1.2
			c-1.1,0-2,0.1-2.9,0.4c-0.8,0.3-1.5,0.7-2,1.1v1.1c0,0.8-0.6,1.4-1.4,1.4h-1c-0.8,0-1.4-0.6-1.4-1.4V-54c1.1-0.9,2.4-1.6,3.9-2.1
			c1.5-0.5,3.2-0.8,5-0.8c2.7,0,4.9,0.7,6.5,2.1s2.5,3.3,2.5,5.9l0,13.5l0.4,0c0.8,0,1.4,0.6,1.4,1.4v0c0,0.8-0.6,1.4-1.4,1.4H430z
			 M423.5-35.8c1.4,0,2.7-0.3,3.9-1s2-1.5,2.5-2.5v-3.9h-4.6c-1.8,0-3.2,0.4-4.2,1.2c-1,0.8-1.5,1.8-1.5,3c0,1,0.3,1.8,1,2.4
			C421.2-36.1,422.2-35.8,423.5-35.8z"/>
		<path class="st1" d="M439.2-35.4l2.2,0v-18.2l-2.2,0c-0.8,0-1.4-0.6-1.4-1.4v0c0-0.8,0.6-1.4,1.4-1.4h6.4l0,3.5
			c0.8-1.3,1.8-2.2,3-2.9c1.2-0.7,2.6-1,4.1-1c2.6,0,4.5,0.8,6,2.3c1.4,1.5,2.1,3.8,2.1,7l0,12.2l2.2,0c0.8,0,1.4,0.6,1.4,1.4v0
			c0,0.8-0.6,1.4-1.4,1.4h-8.7c-0.8,0-1.4-0.6-1.4-1.4v0c0-0.8,0.6-1.4,1.4-1.4l2.2,0l0-12.2c0-2.1-0.4-3.6-1.2-4.5
			c-0.8-0.9-2.1-1.3-3.8-1.3c-1.2,0-2.3,0.3-3.3,0.9s-1.7,1.4-2.3,2.5l0,14.6l2.2,0c0.8,0,1.4,0.6,1.4,1.4v0c0,0.8-0.6,1.4-1.4,1.4
			h-8.7c-0.8,0-1.4-0.6-1.4-1.4v0C437.8-34.8,438.5-35.4,439.2-35.4z"/>
		<path class="st2" d="M496-35.5c-0.8,1.1-1.7,1.9-2.8,2.5s-2.4,0.8-3.9,0.8c-2.9,0-5.2-1.1-6.8-3.2c-1.6-2.1-2.4-4.9-2.4-8.3v-0.5
			c0-3.8,0.8-6.9,2.4-9.3s3.9-3.5,6.8-3.5c1.4,0,2.6,0.3,3.7,0.8c1.1,0.5,2,1.3,2.8,2.3l0-10.3l-2.2,0c-0.8,0-1.4-0.6-1.4-1.4v0
			c0-0.8,0.6-1.4,1.4-1.4h6.5l0,31.5l2.2,0c0.8,0,1.4,0.6,1.4,1.4l0,0c0,0.8-0.6,1.4-1.4,1.4H496L496-35.5z M484.3-43.6
			c0,2.4,0.5,4.3,1.5,5.8c1,1.5,2.5,2.2,4.5,2.2c1.3,0,2.4-0.3,3.3-0.9s1.6-1.4,2.2-2.5v-11c-0.6-1-1.3-1.8-2.2-2.4s-2-0.9-3.2-0.9
			c-2.1,0-3.6,0.9-4.6,2.6c-1,1.7-1.5,3.9-1.5,6.7V-43.6z"/>
		<path class="st2" d="M515.3-32.2c-3.3,0-5.9-1.1-7.9-3.3c-2-2.2-2.9-5.1-2.9-8.6v-1c0-3.4,1-6.2,3-8.4c2-2.2,4.4-3.4,7.2-3.4
			c3.2,0,5.6,1,7.3,2.9c1.6,1.9,2.5,4.5,2.5,7.7v2.7H509l-0.1,0.1c0,2.3,0.6,4.2,1.7,5.6c1.1,1.5,2.7,2.2,4.7,2.2
			c1.5,0,2.8-0.2,3.9-0.6c0.6-0.2,1.2-0.5,1.8-0.9c0.6-0.4,1.5-0.2,1.9,0.5l0.3,0.5c0.4,0.6,0.2,1.4-0.4,1.8
			c-0.7,0.5-1.5,0.9-2.4,1.3C519-32.5,517.3-32.2,515.3-32.2z M514.7-53.5c-1.4,0-2.7,0.6-3.7,1.8c-1,1.2-1.7,2.8-1.9,4.6l0,0.1h11
			v-0.6c0-1.7-0.5-3.1-1.4-4.3S516.5-53.5,514.7-53.5z"/>
		<path class="st2" d="M538-35.6c1.4,0,2.7-0.4,3.8-1.3c0.7-0.6,1.2-1.3,1.5-2.1c0.2-0.7,0.9-1.2,1.6-1.2l0,0c1.1,0,1.9,1,1.7,2.1
			c-0.2,1.3-0.8,2.5-2,3.5c-1.9,1.6-4.1,2.4-6.6,2.4c-3.5,0-6.1-1.1-7.9-3.4c-1.8-2.3-2.7-5.1-2.7-8.5V-45c0-3.4,0.9-6.2,2.7-8.5
			c1.8-2.3,4.5-3.4,7.9-3.4c1.9,0,4.1,0.5,5.7,1.3c1.9,1,2.8,2.2,2.8,2.2l0,3.5c0,1-0.8,1.7-1.7,1.7h0c-1,0-1.7-0.8-1.7-1.7l0-2
			c-0.5-0.5-2.2-1.7-5-1.7c-2.3,0-3.9,0.8-4.9,2.5c-1,1.6-1.5,3.6-1.5,6v0.9c0,2.4,0.5,4.5,1.4,6.1C534.1-36.4,535.7-35.6,538-35.6z
			"/>
		<path class="st2" d="M551.1-35.4l2.2,0v-18.2l-2.2,0c-0.8,0-1.4-0.6-1.4-1.4v0c0-0.8,0.6-1.4,1.4-1.4h6.5l0,21l2.2,0
			c0.8,0,1.4,0.6,1.4,1.4l0,0c0,0.8-0.6,1.4-1.4,1.4h-8.7c-0.8,0-1.4-0.6-1.4-1.4l0,0C549.7-34.8,550.3-35.4,551.1-35.4z"/>
		<path class="st2" d="M579.6-49L579.6-49c-0.9,0-1.6-0.7-1.6-1.6l0-1.2c-0.5-0.5-2.8-1.6-5.1-1.6c-1.5,0-2.7,0.3-3.4,1
			c-0.7,0.7-1.1,1.5-1.1,2.4c0,0.9,0.3,1.7,1,2.2c0.7,0.5,2,1,4,1.5c3,0.6,5.2,1.5,6.7,2.6c1.5,1.1,2.2,2.6,2.2,4.4
			c0,2.1-0.9,3.8-2.6,5.1c-1.7,1.3-3.9,2-6.7,2c-1.8,0-3.4-0.2-4.9-0.6c-1.4-0.4-2.7-1-3.8-1.8l0-3.8c0-0.9,0.7-1.6,1.6-1.6l0,0
			c0.9,0,1.6,0.7,1.6,1.6v1.6c0.5,0.5,2,0.8,2.8,1c0.9,0.2,1.7,0.3,2.6,0.3c1.5,0,2.7-0.3,3.6-0.9c0.9-0.6,1.3-1.4,1.3-2.5
			c0-1-0.4-1.7-1.1-2.4c-0.7-0.6-2.1-1.2-4.1-1.6c-2.9-0.6-5.1-1.5-6.5-2.6S564-48,564-49.9c0-1.9,0.8-3.6,2.5-4.9
			c1.6-1.4,3.8-2,6.4-2c1.8,0,3.9,0.2,5.5,1c1.7,0.8,2.9,1.9,2.9,1.9l0,3.4C581.2-49.7,580.5-49,579.6-49z"/>
		<path class="st2" d="M586.4-35.4l2.2,0v-18.2l-2.2,0c-0.8,0-1.4-0.6-1.4-1.4v0c0-0.8,0.6-1.4,1.4-1.4h6.5l0,21l2.2,0
			c0.8,0,1.4,0.6,1.4,1.4l0,0c0,0.8-0.6,1.4-1.4,1.4h-8.7c-0.8,0-1.4-0.6-1.4-1.4l0,0C585-34.8,585.6-35.4,586.4-35.4z"/>
		<path class="st2" d="M598.2-44.8c0-3.5,1-6.4,2.9-8.7c1.9-2.3,4.5-3.4,7.8-3.4c3.3,0,5.9,1.1,7.8,3.4c1.9,2.3,2.9,5.2,2.9,8.7v0.5
			c0,3.5-1,6.4-2.9,8.7s-4.5,3.4-7.8,3.4c-3.3,0-5.9-1.1-7.8-3.4c-1.9-2.3-2.9-5.2-2.9-8.7V-44.8z M602.5-44.3
			c0,2.5,0.5,4.6,1.6,6.2c1.1,1.6,2.6,2.5,4.7,2.5c2,0,3.6-0.8,4.7-2.5s1.6-3.7,1.6-6.2v-0.5c0-2.5-0.5-4.6-1.6-6.2
			s-2.6-2.5-4.7-2.5s-3.6,0.8-4.7,2.5s-1.6,3.7-1.6,6.2V-44.3z"/>
		<path class="st2" d="M622-35.4l2.2,0v-18.2l-2.2,0c-0.8,0-1.4-0.6-1.4-1.4v0c0-0.8,0.6-1.4,1.4-1.4h6.4l0,3.5
			c0.8-1.3,1.8-2.2,3-2.9c1.2-0.7,2.6-1,4.1-1c2.6,0,4.5,0.8,6,2.3c1.4,1.5,2.1,3.8,2.1,7l0,12.2l2.2,0c0.8,0,1.4,0.6,1.4,1.4l0,0
			c0,0.8-0.6,1.4-1.4,1.4H637c-0.8,0-1.4-0.6-1.4-1.4l0,0c0-0.8,0.6-1.4,1.4-1.4l2.2,0l0-12.2c0-2.1-0.4-3.6-1.2-4.5
			c-0.8-0.9-2.1-1.3-3.8-1.3c-1.2,0-2.3,0.3-3.3,0.9c-1,0.6-1.7,1.4-2.3,2.5l0,14.6l2.2,0c0.8,0,1.4,0.6,1.4,1.4l0,0
			c0,0.8-0.6,1.4-1.4,1.4H622c-0.8,0-1.4-0.6-1.4-1.4l0,0C620.6-34.8,621.2-35.4,622-35.4z"/>
		<path class="st2" d="M555.5-62.5L555.5-62.5c-1.2,0-2.2-1-2.2-2.2v-0.1c0-1.2,1-2.2,2.2-2.2l0,0c1.2,0,2.2,1,2.2,2.2v0.1
			C557.6-63.5,556.7-62.5,555.5-62.5z"/>
		<path class="st2" d="M590.8-62.5L590.8-62.5c-1.2,0-2.2-1-2.2-2.2v-0.1c0-1.2,1-2.2,2.2-2.2l0,0c1.2,0,2.2,1,2.2,2.2v0.1
			C592.9-63.5,592-62.5,590.8-62.5z"/>
		<path class="st1" d="M485-56.4h-6.5c-0.8,0-1.4,0.6-1.4,1.4v0c0,0.8,0.6,1.4,1.4,1.4l0.6,0c0.7,0,1,0.7,0.6,1.7L475-39.6
			c-0.3,0.6-0.8,0.6-1.1,0L469.3-52c-0.5-1.2,0-1.7,0.7-1.7h0.5c0.8,0,1.4-0.6,1.4-1.4l0,0c0-0.8-0.6-1.4-1.4-1.4H464
			c-0.8,0-1.4,0.6-1.4,1.4v0c0,0.8,0.6,1.4,1.4,1.4l0.8,0l7.8,20.5l-1,2.5c-0.4,1-0.9,2-1.5,2.8c-0.6,0.8-1.3,1.2-2.2,1.2
			c0,0-0.1,0-0.2,0c-0.9,0-1.7,0.5-1.9,1.3c-0.3,1.1,0.4,2.1,1.5,2.3c0.4,0.1,0.7,0.1,0.8,0.1c1.9,0,3.4-0.6,4.5-1.8s2-2.6,2.6-4.2
			l9.1-24.6l0.7,0c0.8,0,1.4-0.6,1.4-1.4v0C486.4-55.8,485.7-56.4,485-56.4z"/>
	</g>
	<g>
		<path class="st1" d="M389-57.8l-7.7-8.8c-0.5-0.5-1.2-0.5-1.7,0l-7.7,8.9c-0.7,0.8-0.2,2,0.9,2l3,0c-0.4,5,1.7,8.4,4.6,10.7h4.2
			v-10.8l3.5,0C389.2-55.8,389.7-57.1,389-57.8z"/>
		<path class="st2" d="M395.1-60.9l-11.7,0.9c-1.1,0-1.6,1.3-0.8,2l2.2,2.1c-3.8,3.3-4.8,7.1-4.3,10.9l2.9,2.9l7.6-7.6l2.5,2.5
			c0.8,0.7,2,0.2,2-0.9l0.8-11.7C396.3-60.4,395.8-60.9,395.1-60.9z"/>
		<path class="st1" d="M402.1-45.9l-8.9-7.7c-0.8-0.7-2-0.2-2,0.9l0,3c-5-0.4-8.4,1.7-10.7,4.6v4.2h10.8l0,3.5c0,1.1,1.3,1.6,2,0.8
			l8.8-7.7C402.6-44.7,402.6-45.4,402.1-45.9z"/>
		<path class="st2" d="M395.5-42c0-1.1-1.3-1.6-2-0.8l-2.1,2.2c-3.3-3.8-7.1-4.8-10.9-4.3l-2.9,2.9l7.6,7.6l-2.5,2.5
			c-0.8,0.8-0.2,2,0.9,2l11.7,0.8c0.7,0,1.2-0.5,1.2-1.2L395.5-42z"/>
		<path class="st1" d="M388.1-34.3l-3,0c0.4-5-1.7-8.4-4.6-10.7l-4.2,0v10.8l-3.5,0c-1.1,0-1.6,1.3-0.8,2l7.7,8.8
			c0.5,0.5,1.2,0.5,1.7,0l7.7-8.9C389.7-33,389.2-34.3,388.1-34.3z"/>
		<path class="st2" d="M376.2-34.1c3.8-3.3,4.8-7.1,4.3-10.9l-2.9-2.9l-7.6,7.6l-2.5-2.5c-0.8-0.7-2-0.2-2,0.9l-0.8,11.7
			c0,0.7,0.5,1.2,1.2,1.2l11.7-0.9c1.1,0,1.6-1.3,0.8-2L376.2-34.1z"/>
		<path class="st1" d="M380.5-48.3v-0.9h-10.8l0-3.5c0-1.1-1.3-1.6-2-0.8l-8.8,7.7c-0.5,0.5-0.5,1.2,0,1.7l8.9,7.7
			c0.8,0.7,2,0.2,2-0.9l0-3c5,0.4,8.4-1.7,10.7-4.6C380.3-46.1,380.3-47.2,380.5-48.3z"/>
		<path class="st2" d="M375.8-55.5L375.8-55.5L375.8-55.5c0-0.1,0-0.1,0-0.2l-3,0c-1.1,0-1.6-1.3-0.9-2l2.2-2.6l-8.4-0.6
			c-0.7,0-1.2,0.5-1.2,1.2l0.9,11.7c0,1.1,1.3,1.6,2,0.8l2.1-2.2c3.3,3.8,7.1,4.8,10.9,4.3C377.5-47.3,375.5-50.6,375.8-55.5z"/>
	</g>
	<g>
		<rect x="0" y="0" class="st0" width="312" height="68"/>
		<g>
			<path class="st1" d="M82.7,46.3l0-3.3c-0.8,1.1-1.9,2-3.1,2.7c-1.3,0.7-2.6,1.1-4,1.1c-2.5,0-4.4-0.6-5.6-1.8
				c-1.3-1.2-1.9-2.9-1.9-5.1c0-2.3,0.9-4,2.7-5.2c1.8-1.2,4.3-1.8,7.5-1.8h4.5v-2.8c0-1.4-0.4-2.5-1.3-3.3
				c-0.9-0.8-2.1-1.2-3.7-1.2c-1.1,0-2,0.1-2.9,0.4c-0.8,0.3-1.5,0.7-2,1.1l0,1.1c0,0.8-0.6,1.4-1.4,1.4h-1c-0.8,0-1.4-0.6-1.4-1.4
				V25c1.1-0.9,2.4-1.6,3.9-2.1c1.5-0.5,3.2-0.8,5-0.8c2.7,0,4.9,0.7,6.5,2.1s2.5,3.3,2.5,5.9l0,13.5l0.4,0c0.8,0,1.4,0.6,1.4,1.4v0
				c0,0.8-0.6,1.4-1.4,1.4H82.7z M76.2,43.2c1.4,0,2.7-0.3,3.9-1s2-1.5,2.5-2.5v-3.9h-4.6c-1.8,0-3.2,0.4-4.2,1.2
				c-1,0.8-1.5,1.8-1.5,3c0,1,0.3,1.8,1,2.4C73.9,42.9,74.9,43.2,76.2,43.2z"/>
			<path class="st1" d="M91.9,43.6l2.2,0V25.4l-2.2,0c-0.8,0-1.4-0.6-1.4-1.4v0c0-0.8,0.6-1.4,1.4-1.4h6.4l0,3.5
				c0.8-1.3,1.8-2.2,3-2.9c1.2-0.7,2.6-1,4.1-1c2.6,0,4.5,0.8,6,2.3c1.4,1.5,2.1,3.8,2.1,7l0,12.2l2.2,0c0.8,0,1.4,0.6,1.4,1.4v0
				c0,0.8-0.6,1.4-1.4,1.4h-8.7c-0.8,0-1.4-0.6-1.4-1.4v0c0-0.8,0.6-1.4,1.4-1.4l2.2,0l0-12.2c0-2.1-0.4-3.6-1.2-4.5
				c-0.8-0.9-2.1-1.3-3.8-1.3c-1.2,0-2.3,0.3-3.3,0.9S99,28,98.4,29l0,14.6l2.2,0c0.8,0,1.4,0.6,1.4,1.4v0c0,0.8-0.6,1.4-1.4,1.4
				h-8.7c-0.8,0-1.4-0.6-1.4-1.4v0C90.5,44.2,91.1,43.6,91.9,43.6z"/>
			<g>
				<path class="st2" d="M141.9,46.9c-2.9,0-5.2-1.1-6.9-3.2c-1.6-2.1-2.5-4.9-2.5-8.4v-0.5c0-3.8,0.8-7,2.5-9.3
					c1.7-2.4,4-3.6,6.9-3.6c1.4,0,2.7,0.3,3.8,0.8c1,0.5,1.9,1.2,2.6,2V15h-2.1c-0.8,0-1.5-0.7-1.5-1.5c0-0.9,0.7-1.5,1.5-1.5h6.7
					v31.5h2.1c0.8,0,1.5,0.7,1.5,1.5s-0.7,1.5-1.5,1.5h-6.4v-2.6c-0.7,1-1.6,1.7-2.7,2.2C144.8,46.6,143.4,46.9,141.9,46.9z
					 M143.1,25.8c-2,0-3.5,0.8-4.5,2.5c-1,1.7-1.5,3.9-1.5,6.6v0.5c0,2.4,0.5,4.3,1.5,5.7c1,1.4,2.4,2.1,4.4,2.1
					c1.3,0,2.3-0.3,3.2-0.9c0.9-0.6,1.6-1.4,2.1-2.4l0-11c-0.5-0.9-1.2-1.7-2.1-2.3C145.3,26.1,144.3,25.8,143.1,25.8z"/>
				<path class="st2" d="M152.8,12.1l0,31.5l2.2,0c0.8,0,1.4,0.6,1.4,1.4v0c0,0.8-0.6,1.4-1.4,1.4h-6.3l0-2.8
					c-0.8,1.1-1.7,1.9-2.8,2.5s-2.4,0.8-3.9,0.8c-2.9,0-5.2-1.1-6.8-3.2c-1.6-2.1-2.4-4.9-2.4-8.3v-0.5c0-3.8,0.8-6.9,2.4-9.3
					c1.6-2.3,3.9-3.5,6.8-3.5c1.4,0,2.6,0.3,3.7,0.8c1.1,0.5,2,1.3,2.8,2.3l0-10.3l-2.2,0c-0.8,0-1.4-0.6-1.4-1.4v0
					c0-0.8,0.6-1.4,1.4-1.4H152.8 M143,43.3c1.3,0,2.4-0.3,3.3-0.9c0.9-0.6,1.6-1.4,2.2-2.5v-11c-0.6-1-1.3-1.8-2.2-2.4
					c-0.9-0.6-2-0.9-3.2-0.9c-2.1,0-3.6,0.9-4.6,2.6c-1,1.7-1.5,3.9-1.5,6.7v0.5c0,2.4,0.5,4.3,1.5,5.8
					C139.5,42.6,141,43.3,143,43.3 M153,11.8h-0.3h-6.5c-0.9,0-1.6,0.7-1.6,1.6c0,0.9,0.7,1.7,1.6,1.7l1.9,0l0,9.4
					c-0.7-0.8-1.5-1.4-2.4-1.8c-1.1-0.5-2.4-0.8-3.8-0.8c-3,0-5.4,1.2-7,3.6c-1.7,2.4-2.5,5.5-2.5,9.4v0.5c0,3.5,0.8,6.3,2.5,8.4
					c1.7,2.2,4,3.2,7,3.2c1.5,0,2.9-0.3,4-0.9c0.9-0.5,1.8-1.1,2.5-2l0,2.1l0,0.2h0.2h6.3c0.9,0,1.6-0.7,1.6-1.6
					c0-0.9-0.7-1.6-1.6-1.6l-1.9,0l0-31.3V11.8L153,11.8z M143,43c-2,0-3.4-0.7-4.3-2.1c-0.9-1.4-1.4-3.3-1.4-5.6v-0.5
					c0-2.7,0.5-4.9,1.4-6.6c1-1.6,2.4-2.4,4.4-2.4c1.2,0,2.2,0.3,3.1,0.8c0.8,0.5,1.5,1.3,2.1,2.2v10.9c-0.5,1-1.2,1.8-2.1,2.3
					C145.3,42.8,144.3,43,143,43L143,43z"/>
			</g>
			<g>
				<path class="st2" d="M168,46.9c-3.3,0-6-1.1-8-3.3c-2-2.2-3-5.1-3-8.7v-1c0-3.4,1-6.3,3.1-8.5c2-2.3,4.5-3.4,7.2-3.4
					c3.2,0,5.7,1,7.4,2.9c1.7,1.9,2.5,4.6,2.5,7.8v2.8h-15.5l0,0c0.1,2.2,0.6,4.1,1.7,5.5c1.1,1.4,2.6,2.2,4.6,2.2
					c1.4,0,2.7-0.2,3.8-0.6c0.6-0.2,1.2-0.5,1.7-0.9c0.2-0.1,0.5-0.2,0.8-0.2c0.5,0,1,0.3,1.3,0.7l0.3,0.5c0.4,0.7,0.2,1.6-0.4,2
					c-0.7,0.5-1.5,0.9-2.4,1.3C171.7,46.6,170,46.9,168,46.9z M172.6,32v-0.4c0-1.7-0.4-3.1-1.3-4.2c-0.9-1.1-2.2-1.7-3.9-1.7
					c-1.4,0-2.6,0.6-3.6,1.8c-1,1.2-1.6,2.7-1.9,4.5H172.6z"/>
				<path class="st2" d="M167.4,22.1c3.2,0,5.6,1,7.3,2.9c1.6,1.9,2.5,4.5,2.5,7.7v2.7h-15.4l-0.1,0.1c0,2.3,0.6,4.2,1.7,5.6
					c1.1,1.5,2.7,2.2,4.7,2.2c1.5,0,2.8-0.2,3.9-0.6c0.6-0.2,1.2-0.5,1.8-0.9c0.2-0.1,0.5-0.2,0.7-0.2c0.5,0,0.9,0.2,1.2,0.7
					l0.3,0.5c0.4,0.6,0.2,1.4-0.4,1.8c-0.7,0.5-1.5,0.9-2.4,1.3c-1.4,0.6-3.1,0.8-5,0.8c-3.3,0-5.9-1.1-7.9-3.3
					c-2-2.2-2.9-5.1-2.9-8.6v-1c0-3.4,1-6.2,3-8.4C162.2,23.2,164.6,22.1,167.4,22.1 M161.8,32.1h11v-0.6c0-1.7-0.5-3.1-1.4-4.3
					c-0.9-1.1-2.3-1.7-4-1.7c-1.4,0-2.7,0.6-3.7,1.8c-1,1.2-1.7,2.8-1.9,4.6L161.8,32.1 M167.4,21.9c-2.8,0-5.3,1.2-7.3,3.5
					c-2,2.3-3.1,5.2-3.1,8.6v1c0,3.6,1,6.5,3,8.7c2,2.2,4.7,3.4,8.1,3.4c2,0,3.7-0.3,5.1-0.9c0.9-0.4,1.8-0.8,2.4-1.3
					c0.7-0.5,0.9-1.4,0.4-2.2l-0.3-0.5c-0.3-0.5-0.8-0.8-1.4-0.8c-0.3,0-0.6,0.1-0.8,0.2c-0.5,0.3-1.1,0.6-1.7,0.9
					c-1.1,0.4-2.3,0.6-3.8,0.6c-1.9,0-3.4-0.7-4.5-2.1c-1.1-1.4-1.6-3.2-1.7-5.3h15.2h0.3v-0.3v-2.7c0-3.3-0.9-5.9-2.5-7.9
					C173.1,22.9,170.6,21.9,167.4,21.9L167.4,21.9z M162,31.8c0.2-1.7,0.9-3.2,1.8-4.3c1-1.2,2.2-1.7,3.5-1.7c1.7,0,3,0.5,3.8,1.6
					c0.9,1.1,1.3,2.5,1.3,4.1v0.3H162L162,31.8z"/>
			</g>
			<g>
				<path class="st2" d="M190.7,46.9c-3.5,0-6.2-1.2-8-3.4c-1.8-2.3-2.8-5.2-2.8-8.6V34c0-3.4,0.9-6.3,2.8-8.5
					c1.8-2.3,4.5-3.4,8-3.4c1.9,0,4.1,0.5,5.7,1.3c1.9,1,2.8,2.2,2.9,2.3l0,3.6c0,1-0.8,1.8-1.8,1.8s-1.8-0.8-1.8-1.8l0-2
					c-0.1-0.1-1.7-1.5-4.9-1.5c-2.2,0-3.8,0.8-4.8,2.4c-1,1.6-1.4,3.6-1.4,5.9v0.9c0,2.4,0.5,4.4,1.4,6c0.9,1.6,2.5,2.4,4.8,2.4
					c1.4,0,2.6-0.4,3.7-1.3c0.7-0.6,1.2-1.3,1.4-2c0.2-0.7,0.9-1.3,1.7-1.3c0.6,0,1.1,0.2,1.4,0.7c0.4,0.4,0.5,1,0.4,1.5
					c-0.2,1.5-0.9,2.6-2,3.6C195.5,46.1,193.2,46.9,190.7,46.9z"/>
				<path class="st2" d="M190.7,22.1c1.9,0,4.1,0.5,5.7,1.3c1.9,1,2.8,2.2,2.8,2.2l0,3.5c0,1-0.8,1.7-1.7,1.7c-1,0-1.7-0.8-1.7-1.7
					l0-2c-0.5-0.5-2.2-1.7-5-1.7c-2.3,0-3.9,0.8-4.9,2.5c-1,1.6-1.5,3.6-1.5,6v0.9c0,2.4,0.5,4.5,1.4,6.1c1,1.6,2.6,2.4,4.9,2.4
					c1.4,0,2.7-0.4,3.8-1.3c0.7-0.6,1.2-1.3,1.5-2.1c0.2-0.7,0.9-1.2,1.6-1.2c1.1,0,1.9,1,1.7,2.1c-0.2,1.3-0.8,2.5-2,3.5
					c-1.9,1.6-4.1,2.4-6.6,2.4c-3.5,0-6.1-1.1-7.9-3.4c-1.8-2.3-2.7-5.1-2.7-8.5V34c0-3.4,0.9-6.2,2.7-8.5
					C184.6,23.3,187.2,22.1,190.7,22.1 M190.7,21.9c-3.5,0-6.2,1.2-8.1,3.5c-1.9,2.3-2.8,5.2-2.8,8.6v0.9c0,3.5,0.9,6.4,2.8,8.7
					c1.9,2.3,4.6,3.5,8.1,3.5c2.6,0,4.9-0.8,6.8-2.4c1.2-1,1.8-2.2,2.1-3.7c0.1-0.6-0.1-1.2-0.5-1.6c-0.4-0.4-0.9-0.7-1.5-0.7
					c-0.9,0-1.6,0.6-1.9,1.3c-0.2,0.7-0.7,1.4-1.4,2c-1,0.8-2.3,1.3-3.6,1.3c-2.2,0-3.7-0.8-4.7-2.3c-0.9-1.6-1.4-3.6-1.4-5.9V34
					c0-2.3,0.5-4.3,1.4-5.9c0.9-1.6,2.5-2.3,4.7-2.3c2.8,0,4.4,1.2,4.8,1.5l0,1.9c0,0.5,0.2,1,0.6,1.4c0.4,0.4,0.9,0.6,1.4,0.6
					c1.1,0,2-0.9,2-2l0-3.5v-0.1l0-0.1c0-0.1-1-1.3-2.9-2.3C194.8,22.4,192.6,21.9,190.7,21.9L190.7,21.9z"/>
			</g>
			<g>
				<path class="st2" d="M203.8,46.5c-0.8,0-1.5-0.7-1.5-1.5s0.7-1.5,1.5-1.5h2.1v-18h-2.1c-0.8,0-1.5-0.7-1.5-1.5
					c0-0.9,0.7-1.5,1.5-1.5h6.7l0,21h2.1c0.8,0,1.5,0.7,1.5,1.5s-0.7,1.5-1.5,1.5H203.8z"/>
				<path class="st2" d="M210.3,22.6l0,21l2.2,0c0.8,0,1.4,0.6,1.4,1.4c0,0.8-0.6,1.4-1.4,1.4h-8.7c-0.8,0-1.4-0.6-1.4-1.4
					c0-0.8,0.6-1.4,1.4-1.4l2.2,0V25.4l-2.2,0c-0.8,0-1.4-0.6-1.4-1.4v0c0-0.8,0.6-1.4,1.4-1.4H210.3 M210.6,22.3h-0.3h-6.5
					c-0.9,0-1.6,0.7-1.6,1.6c0,0.9,0.7,1.7,1.6,1.7l1.9,0v17.7l-1.9,0c-0.4,0-0.8,0.2-1.2,0.5s-0.5,0.7-0.5,1.2
					c0,0.9,0.7,1.6,1.6,1.6h8.7c0.9,0,1.6-0.7,1.6-1.6s-0.7-1.6-1.6-1.6l-1.9,0l0-20.8V22.3L210.6,22.3z"/>
			</g>
			<g>
				<path class="st2" d="M225.7,46.9c-1.8,0-3.5-0.2-4.9-0.6c-1.4-0.4-2.7-1-3.9-1.8l-0.1,0l0-3.9c0-0.5,0.2-0.9,0.5-1.2
					c0.3-0.3,0.8-0.5,1.2-0.5c1,0,1.7,0.8,1.7,1.7v1.5c0.5,0.4,1.8,0.7,2.6,0.9l0.2,0c0.8,0.2,1.7,0.3,2.6,0.3
					c1.5,0,2.7-0.3,3.5-0.9c0.8-0.6,1.3-1.4,1.3-2.3c0-0.9-0.4-1.7-1-2.3c-0.7-0.6-2.1-1.1-4.1-1.6c-2.9-0.6-5.1-1.5-6.6-2.6
					c-1.5-1.1-2.2-2.6-2.2-4.5c0-2,0.8-3.7,2.5-5c1.7-1.4,3.9-2.1,6.5-2.1c1.5,0,3.7,0.2,5.5,1c1.7,0.8,2.9,1.9,2.9,2l0,3.5
					c0,1-0.8,1.8-1.8,1.8s-1.8-0.8-1.8-1.8v-1.2c-0.4-0.4-2.7-1.5-5-1.5c-1.5,0-2.6,0.3-3.3,1c-0.7,0.6-1.1,1.4-1.1,2.3
					c0,0.9,0.3,1.6,0.9,2.1c0.6,0.5,2,1,4,1.4c3,0.6,5.3,1.5,6.8,2.6c1.5,1.1,2.2,2.7,2.2,4.5c0,2.1-0.9,3.9-2.6,5.2
					C230.7,46.3,228.4,46.9,225.7,46.9z"/>
				<path class="st2" d="M225.6,22.1c1.8,0,3.9,0.2,5.5,1c1.7,0.8,2.9,1.9,2.9,1.9l0,3.4c0,0.9-0.7,1.6-1.6,1.6
					c-0.9,0-1.6-0.7-1.6-1.6l0-1.2c-0.5-0.5-2.8-1.6-5.1-1.6c-1.5,0-2.7,0.3-3.4,1c-0.7,0.7-1.1,1.5-1.1,2.4c0,0.9,0.3,1.7,1,2.2
					c0.7,0.5,2,1,4,1.5c3,0.6,5.2,1.5,6.7,2.6c1.5,1.1,2.2,2.6,2.2,4.4c0,2.1-0.9,3.8-2.6,5.1c-1.7,1.3-3.9,2-6.7,2
					c-1.8,0-3.4-0.2-4.9-0.6c-1.4-0.4-2.7-1-3.8-1.8l0-3.8c0-0.9,0.7-1.6,1.6-1.6h0c0.9,0,1.6,0.7,1.6,1.6l0,1.6
					c0.5,0.5,2,0.8,2.8,1c0.9,0.2,1.7,0.3,2.6,0.3c1.5,0,2.7-0.3,3.6-0.9c0.9-0.6,1.3-1.4,1.3-2.5c0-1-0.4-1.7-1.1-2.4
					c-0.7-0.6-2.1-1.2-4.1-1.6c-2.9-0.6-5.1-1.5-6.5-2.6c-1.5-1.1-2.2-2.5-2.2-4.4c0-1.9,0.8-3.6,2.5-4.9
					C220.8,22.8,222.9,22.1,225.6,22.1 M225.6,21.9c-2.7,0-4.9,0.7-6.6,2.1c-1.7,1.4-2.6,3.1-2.6,5.1c0,1.9,0.8,3.5,2.3,4.6
					c1.5,1.1,3.7,2,6.6,2.6c2,0.4,3.3,1,4,1.6c0.7,0.6,1,1.3,1,2.2c0,0.9-0.4,1.7-1.2,2.2c-0.8,0.6-2,0.9-3.5,0.9
					c-0.9,0-1.7-0.1-2.6-0.3l-0.2,0c-0.8-0.2-2-0.5-2.5-0.8l0-1.4c0-0.5-0.2-1-0.5-1.3c-0.4-0.4-0.8-0.5-1.3-0.5
					c-0.5,0-1,0.2-1.3,0.6c-0.4,0.4-0.5,0.8-0.5,1.3l0,3.8l0,0.1l0.1,0.1c1.1,0.8,2.5,1.4,3.9,1.8c1.4,0.4,3.1,0.6,4.9,0.6
					c2.8,0,5.1-0.7,6.8-2c1.8-1.3,2.7-3.1,2.7-5.3c0-1.9-0.8-3.5-2.3-4.6c-1.5-1.1-3.8-2-6.8-2.7c-2-0.4-3.3-0.9-3.9-1.4
					c-0.6-0.5-0.9-1.2-0.9-2c0-0.9,0.3-1.6,1-2.3c0.7-0.6,1.8-0.9,3.3-0.9c2.2,0,4.3,1,4.9,1.5l0,1.1c0,0.5,0.2,1,0.5,1.3
					c0.4,0.4,0.8,0.5,1.3,0.5c1,0,1.9-0.8,1.9-1.9l0-3.4l0-0.1l-0.1-0.1c0,0-1.2-1.2-3-2C229.3,22,227.1,21.9,225.6,21.9L225.6,21.9
					z"/>
			</g>
			<g>
				<path class="st2" d="M239.1,46.5c-0.8,0-1.5-0.7-1.5-1.5s0.7-1.5,1.5-1.5h2.1v-18h-2.1c-0.8,0-1.5-0.7-1.5-1.5
					c0-0.9,0.7-1.5,1.5-1.5h6.7v21h2.1c0.8,0,1.5,0.7,1.5,1.5s-0.7,1.5-1.5,1.5H239.1z"/>
				<path class="st2" d="M245.6,22.6l0,21l2.2,0c0.8,0,1.4,0.6,1.4,1.4c0,0.8-0.6,1.4-1.4,1.4h-8.7c-0.8,0-1.4-0.6-1.4-1.4
					c0-0.8,0.6-1.4,1.4-1.4l2.2,0V25.4l-2.2,0c-0.8,0-1.4-0.6-1.4-1.4v0c0-0.8,0.6-1.4,1.4-1.4H245.6 M245.9,22.3h-0.3h-6.5
					c-0.9,0-1.6,0.7-1.6,1.6c0,0.9,0.7,1.7,1.6,1.7l1.9,0v17.7l-1.9,0c-0.4,0-0.8,0.2-1.2,0.5s-0.5,0.7-0.5,1.2
					c0,0.9,0.7,1.6,1.6,1.6h8.7c0.9,0,1.6-0.7,1.6-1.6s-0.7-1.6-1.6-1.6l-1.9,0l0-20.8V22.3L245.9,22.3z"/>
			</g>
			<g>
				<path class="st2" d="M261.6,46.9c-3.3,0-6-1.2-7.9-3.4c-1.9-2.3-2.9-5.2-2.9-8.8v-0.5c0-3.5,1-6.5,2.9-8.8
					c1.9-2.3,4.6-3.5,7.9-3.5c3.3,0,6,1.2,7.9,3.4c1.9,2.3,2.9,5.2,2.9,8.8v0.5c0,3.6-1,6.5-2.9,8.8
					C267.5,45.8,264.8,46.9,261.6,46.9z M261.5,25.7c-2,0-3.6,0.8-4.6,2.4c-1,1.6-1.6,3.7-1.6,6.2v0.5c0,2.5,0.5,4.6,1.6,6.2
					c1,1.6,2.6,2.4,4.6,2.4c2,0,3.5-0.8,4.6-2.4c1.1-1.6,1.6-3.7,1.6-6.2v-0.5c0-2.5-0.5-4.5-1.6-6.1
					C265.1,26.5,263.5,25.7,261.5,25.7z"/>
				<path class="st2" d="M261.5,22.1c3.3,0,5.9,1.1,7.8,3.4c1.9,2.3,2.9,5.2,2.9,8.7v0.5c0,3.5-1,6.4-2.9,8.7
					c-1.9,2.3-4.5,3.4-7.8,3.4c-3.3,0-5.9-1.1-7.8-3.4c-1.9-2.3-2.9-5.2-2.9-8.7v-0.5c0-3.5,1-6.4,2.9-8.7
					C255.7,23.3,258.2,22.1,261.5,22.1 M261.6,43.4c2,0,3.6-0.8,4.7-2.5c1.1-1.6,1.6-3.7,1.6-6.2v-0.5c0-2.5-0.5-4.6-1.6-6.2
					s-2.6-2.5-4.7-2.5s-3.6,0.8-4.7,2.5s-1.6,3.7-1.6,6.2v0.5c0,2.5,0.5,4.6,1.6,6.2C257.9,42.6,259.5,43.4,261.6,43.4 M261.5,21.9
					c-3.3,0-6,1.2-7.9,3.5c-1.9,2.3-2.9,5.3-2.9,8.8v0.5c0,3.6,1,6.6,2.9,8.9c1.9,2.3,4.6,3.5,8,3.5c3.3,0,6-1.2,7.9-3.5
					c1.9-2.3,2.9-5.3,2.9-8.9v-0.5c0-3.6-1-6.6-2.9-8.9C267.5,23,264.9,21.9,261.5,21.9L261.5,21.9z M261.6,43.2
					c-2,0-3.5-0.8-4.5-2.3c-1-1.6-1.6-3.6-1.6-6.1v-0.5c0-2.4,0.5-4.5,1.5-6.1c1-1.6,2.5-2.4,4.5-2.4c2,0,3.5,0.8,4.5,2.4
					c1,1.6,1.6,3.7,1.6,6.1v0.5c0,2.5-0.5,4.5-1.6,6.1C265,42.4,263.5,43.2,261.6,43.2L261.6,43.2z"/>
			</g>
			<g>
				<path class="st2" d="M289.6,46.5c-0.8,0-1.5-0.7-1.5-1.5s0.7-1.5,1.5-1.5h2.1v-12c0-2.1-0.4-3.5-1.2-4.4c-0.8-0.8-2-1.3-3.7-1.3
					c-1.2,0-2.3,0.3-3.2,0.9c-0.9,0.6-1.7,1.4-2.3,2.4l0,14.4h2.1c0.8,0,1.5,0.7,1.5,1.5s-0.7,1.5-1.5,1.5h-8.7
					c-0.8,0-1.5-0.7-1.5-1.5s0.7-1.5,1.5-1.5h2.1v-18h-2.1c-0.8,0-1.5-0.7-1.5-1.5c0-0.9,0.7-1.5,1.5-1.5h6.5v3.2
					c0.8-1.1,1.7-2,2.8-2.6c1.2-0.7,2.6-1.1,4.1-1.1c2.6,0,4.6,0.8,6,2.3c1.4,1.5,2.1,3.9,2.1,7v12.1h2.1c0.8,0,1.5,0.7,1.5,1.5
					s-0.7,1.5-1.5,1.5H289.6z"/>
				<path class="st2" d="M288.1,22.1c2.6,0,4.5,0.8,6,2.3c1.4,1.5,2.1,3.8,2.1,7l0,12.2l2.2,0c0.8,0,1.4,0.6,1.4,1.4v0
					c0,0.8-0.6,1.4-1.4,1.4h-8.7c-0.8,0-1.4-0.6-1.4-1.4v0c0-0.8,0.6-1.4,1.4-1.4l2.2,0l0-12.2c0-2.1-0.4-3.6-1.2-4.5
					c-0.8-0.9-2.1-1.3-3.8-1.3c-1.2,0-2.3,0.3-3.3,0.9c-1,0.6-1.7,1.4-2.3,2.5l0,14.6l2.2,0c0.8,0,1.4,0.6,1.4,1.4v0
					c0,0.8-0.6,1.4-1.4,1.4h-8.7c-0.8,0-1.4-0.6-1.4-1.4v0c0-0.8,0.6-1.4,1.4-1.4l2.2,0V25.4l-2.2,0c-0.8,0-1.4-0.6-1.4-1.4v0
					c0-0.8,0.6-1.4,1.4-1.4h6.4l0,3.5c0.8-1.3,1.8-2.2,3-2.9C285.2,22.5,286.6,22.1,288.1,22.1 M288.1,21.9c-1.6,0-3,0.4-4.2,1.1
					c-1,0.6-1.9,1.4-2.6,2.3l0-2.7v-0.3h-0.3h-6.4c-0.9,0-1.6,0.7-1.6,1.6c0,0.9,0.7,1.7,1.6,1.7l1.9,0v17.7l-1.9,0
					c-0.4,0-0.8,0.2-1.2,0.5c-0.3,0.3-0.5,0.7-0.5,1.2c0,0.9,0.7,1.6,1.6,1.6h8.7c0.9,0,1.6-0.7,1.6-1.6c0-0.9-0.7-1.6-1.6-1.6
					l-1.9,0l0-14.3c0.5-1,1.3-1.7,2.2-2.3c0.9-0.6,2-0.9,3.2-0.9c1.6,0,2.8,0.4,3.6,1.2c0.8,0.8,1.2,2.3,1.2,4.3l0,11.9l-1.9,0
					c-0.4,0-0.8,0.2-1.2,0.5c-0.3,0.3-0.5,0.7-0.5,1.2c0,0.9,0.7,1.6,1.6,1.6h8.7c0.9,0,1.6-0.7,1.6-1.6c0-0.9-0.7-1.6-1.6-1.6
					l-1.9,0l0-12c0-3.2-0.7-5.6-2.2-7.1C292.8,22.7,290.7,21.9,288.1,21.9L288.1,21.9z"/>
			</g>
			<g>
				<path class="st2" d="M208.2,16.6c-1.3,0-2.3-1-2.3-2.3c0-1.4,1-2.4,2.3-2.4s2.3,1,2.3,2.3C210.5,15.6,209.4,16.6,208.2,16.6z"/>
				<path class="st2" d="M208.2,12.1c1.2,0,2.2,1,2.2,2.2v0.1c0,1.2-1,2.2-2.2,2.2s-2.2-1-2.2-2.2v-0.1C206,13,207,12.1,208.2,12.1
					 M208.2,11.8c-1.3,0-2.4,1.1-2.4,2.4v0.1c0,1.3,1.1,2.4,2.4,2.4s2.4-1.1,2.4-2.4v-0.1C210.6,12.9,209.5,11.8,208.2,11.8
					L208.2,11.8z"/>
			</g>
			<g>
				<path class="st2" d="M243.5,16.6c-1.3,0-2.3-1-2.3-2.3c0-1.4,1-2.4,2.3-2.4s2.3,1,2.3,2.3C245.8,15.6,244.7,16.6,243.5,16.6z"/>
				<path class="st2" d="M243.5,12.1c1.2,0,2.2,1,2.2,2.2v0.1c0,1.2-1,2.2-2.2,2.2s-2.2-1-2.2-2.2v-0.1
					C241.3,13,242.3,12.1,243.5,12.1 M243.5,11.8c-1.3,0-2.4,1.1-2.4,2.4v0.1c0,1.3,1.1,2.4,2.4,2.4s2.4-1.1,2.4-2.4v-0.1
					C245.9,12.9,244.8,11.8,243.5,11.8L243.5,11.8z"/>
			</g>
			<path class="st1" d="M137.7,22.6h-6.5c-0.8,0-1.4,0.6-1.4,1.4v0c0,0.8,0.6,1.4,1.4,1.4l0.6,0c0.7,0,1,0.7,0.6,1.7l-4.7,12.5
				c-0.3,0.6-0.8,0.6-1.1,0L122,27c-0.5-1.2,0-1.7,0.7-1.7h0.5c0.8,0,1.4-0.6,1.4-1.4v0c0-0.8-0.6-1.4-1.4-1.4h-6.5
				c-0.8,0-1.4,0.6-1.4,1.4v0c0,0.8,0.6,1.4,1.4,1.4l0.8,0l7.8,20.5l-1,2.5c-0.4,1-0.9,2-1.5,2.8c-0.6,0.8-1.3,1.2-2.2,1.2
				c0,0-0.1,0-0.2,0c-0.9,0-1.7,0.5-1.9,1.3c-0.3,1.1,0.4,2.1,1.5,2.3c0.4,0.1,0.7,0.1,0.8,0.1c1.9,0,3.4-0.6,4.5-1.8s2-2.6,2.6-4.2
				l9.1-24.6l0.7,0c0.8,0,1.4-0.6,1.4-1.4v0C139,23.2,138.4,22.6,137.7,22.6z"/>
		</g>
		<g>
			<path class="st1" d="M42.5,21.2l-7.7-8.8c-0.5-0.5-1.2-0.5-1.7,0l-7.7,8.9c-0.7,0.8-0.2,2,0.9,2l3,0c-0.4,5,1.7,8.4,4.6,10.7h4.2
				l0-10.8l3.5,0C42.7,23.2,43.2,21.9,42.5,21.2z"/>
			<path class="st2" d="M48.6,18.1l-11.7,0.9c-1.1,0-1.6,1.3-0.8,2l2.2,2.1c-3.8,3.3-4.8,7.1-4.3,10.9l2.9,2.9l7.6-7.6l2.5,2.5
				c0.8,0.7,2,0.2,2-0.9l0.8-11.7C49.8,18.6,49.3,18.1,48.6,18.1z"/>
			<path class="st1" d="M55.6,33.1l-8.9-7.7c-0.8-0.7-2-0.2-2,0.9l0,3C39.7,29,36.3,31,34,34v4.2h10.8l0,3.5c0,1.1,1.3,1.6,2,0.8
				l8.8-7.7C56.1,34.3,56.1,33.6,55.6,33.1z"/>
			<path class="st2" d="M49,37c0-1.1-1.3-1.6-2-0.8l-2.1,2.2c-3.3-3.8-7.1-4.8-10.9-4.3L31,36.9l7.6,7.6l-2.5,2.5
				c-0.8,0.8-0.2,2,0.9,2l11.7,0.8c0.7,0,1.2-0.5,1.2-1.2L49,37z"/>
			<path class="st1" d="M41.6,44.7l-3,0c0.4-5-1.7-8.4-4.6-10.7l-4.2,0l0,10.8l-3.5,0c-1.1,0-1.6,1.3-0.8,2l7.7,8.8
				c0.5,0.5,1.2,0.5,1.7,0l7.7-8.9C43.2,46,42.7,44.7,41.6,44.7z"/>
			<path class="st2" d="M29.7,44.9c3.8-3.3,4.8-7.1,4.3-10.9L31,31.1l-7.6,7.6l-2.5-2.5c-0.8-0.7-2-0.2-2,0.9l-0.8,11.7
				c0,0.7,0.5,1.2,1.2,1.2L31,49.1c1.1,0,1.6-1.3,0.8-2L29.7,44.9z"/>
			<path class="st1" d="M34,30.7v-0.9l-10.8,0l0-3.5c0-1.1-1.3-1.6-2-0.8l-8.8,7.7c-0.5,0.5-0.5,1.2,0,1.7l8.9,7.7
				c0.8,0.7,2,0.2,2-0.9l0-3C28.3,39,31.6,37,34,34C33.8,32.9,33.8,31.8,34,30.7z"/>
			<path class="st2" d="M29.3,23.5L29.3,23.5L29.3,23.5c0-0.1,0-0.1,0-0.2l-3,0c-1.1,0-1.6-1.3-0.9-2l2.2-2.6l-8.4-0.6
				c-0.7,0-1.2,0.5-1.2,1.2L18.9,31c0,1.1,1.3,1.6,2,0.8l2.1-2.2c3.3,3.8,7.1,4.8,10.9,4.3C31,31.7,29,28.4,29.3,23.5z"/>
		</g>
	</g>
</g>
</svg>
