<?xml version="1.0" encoding="utf-8"?>
<!-- Generator: Adobe Illustrator 21.1.0, SVG Export Plug-In . SVG Version: 6.00 Build 0)  -->
<svg version="1.1" id="Layer_1" xmlns="http://www.w3.org/2000/svg" xmlns:xlink="http://www.w3.org/1999/xlink" x="0px" y="0px"
	 viewBox="0 0 136 59" style="enable-background:new 0 0 136 59;" xml:space="preserve">
<style type="text/css">
	.st0{fill:#AAAAAA;}
</style>
<path class="st0" d="M99.4,18.5l14.3,11l-14.3,11V18.5z"/>
<g>
	<path class="st0" d="M32.5,29.8c0.5-0.3,0.8-0.6,1.1-1c0.4-0.6,0.5-1.2,0.5-1.9c0-0.7-0.1-1.2-0.4-1.7c-0.3-0.5-0.7-0.9-1.3-1.2
		c-0.5-0.3-1.1-0.4-1.6-0.5c-0.5-0.1-1.3-0.1-2.4-0.1h-4.5v15h5.4c1,0,1.8-0.1,2.6-0.3c0.7-0.2,1.4-0.5,1.9-0.9
		c0.5-0.4,0.9-1,1.2-1.5c0.3-0.5,0.4-1.2,0.4-2c0-1-0.3-1.9-0.7-2.4C34,30.5,33.3,30,32.5,29.8z M31.3,27.5
		c-0.1,0.1-0.1,0.3-0.2,0.4c-0.1,0.3-0.2,0.5-0.5,0.7c-0.2,0.1-0.5,0.2-0.8,0.3L29.7,29C29.5,29,29,29,28.4,29h-2.3v-3.7h2.1
		c0.3,0,0.6,0,0.9,0.1c0.3,0,0.5,0,0.7,0c0.4,0,0.7,0.1,1,0.3l0.1,0.1c0.3,0.2,0.3,0.2,0.4,0.4l0.1,0.2c0.1,0.2,0.1,0.4,0.1,0.7
		C31.5,27.2,31.4,27.3,31.3,27.5z M26.1,31.2h2.8c0.3,0,0.6,0,0.9,0.1c0.3,0,0.5,0,0.7,0c0.4,0,0.7,0.1,1,0.3
		c0.4,0.2,0.7,0.5,0.9,0.8c0.2,0.3,0.3,0.7,0.3,1.3c0,0.5,0,0.7-0.2,1.1c-0.2,0.4-0.4,0.5-0.8,0.8c-0.2,0.2-0.6,0.3-1.2,0.4
		C30,36,29.3,36,28.5,36h-2.4V31.2z"/>
	<path class="st0" d="M42,26.5c-1.5,0-2.9,0.6-4,1.7c-1,1-1.6,2.5-1.6,4.4S37,35.9,38,37s2.5,1.6,4.4,1.6c0.7,0,1.5-0.1,2.1-0.3
		l0.4-0.1c0.5-0.2,1.1-0.3,1.6-0.6l0.1-0.1V35h-0.5L46,35.1c-0.3,0.3-1,0.6-1.5,0.8c-0.7,0.3-1.5,0.4-2.1,0.4c-0.5,0-1,0-1.4-0.2
		c-0.4-0.2-0.8-0.4-1.1-0.6c-0.3-0.3-0.6-0.7-0.7-1.1C39,34,38.9,33.5,38.9,33h8v-1.2c0-1.6-0.4-2.9-1.3-3.9
		C44.7,27,43.6,26.5,42,26.5z M42,28.5c0.9,0,1.5,0.2,2,0.7c0.4,0.4,0.6,1,0.6,1.9H39c0.1-0.6,0.4-1.2,0.9-1.8
		C40.3,28.8,41.1,28.5,42,28.5z"/>
	<path class="st0" d="M56.4,27.3c-0.4-0.2-0.8-0.4-1.2-0.5c-0.2-0.1-0.9-0.2-1.7-0.2c-0.7,0-1.3,0.1-1.9,0.4
		c-0.6,0.3-1.2,0.6-1.6,1.1c-0.5,0.5-0.8,1.1-1.2,1.9c-0.3,0.7-0.4,1.5-0.4,2.5c0,1.9,0.4,3.3,1.2,4.2c0.9,1,2,1.5,3.3,1.5
		c0.8,0,1.5-0.1,2-0.3c0.4-0.2,0.8-0.4,1.2-0.7c0,0,0,0,0.1,0v0.5c0,0.4,0,0.9-0.1,1.1c-0.1,0.3-0.3,0.5-0.4,0.8
		c-0.1,0.1-0.2,0.1-0.2,0.2c-0.2,0.2-0.4,0.3-0.6,0.4c-0.5,0.1-1,0.2-1.6,0.2c-0.5,0-1-0.1-1.4-0.2c-0.2,0-0.4-0.1-0.5-0.1
		c-0.5-0.1-0.9-0.2-1.2-0.3L50,39.7l-0.4,0V42l0.2,0c0.5,0.1,1,0.2,1.6,0.3c0.6,0.1,1.1,0.1,1.7,0.1c1.9,0,3.1-0.4,4.1-1.4
		c0.9-0.9,1.4-2.2,1.5-4V27h-2.2L56.4,27.3z M55,28.8c0.4,0.1,0.7,0.2,1,0.4l0.2,0.1v5.6c-0.4,0.2-0.9,0.5-1.4,0.6l-0.2,0.1
		c-0.4,0.2-1,0.3-1.5,0.3c-0.9,0-1.5-0.3-1.9-0.8c-0.4-0.5-0.6-1.5-0.6-2.7c0-1.1,0.3-2.1,0.8-2.7c0.5-0.6,1.2-0.9,2.2-0.9
		C54.2,28.8,54.5,28.8,55,28.8z"/>
	<rect x="61" y="23.1" class="st0" width="2.6" height="2.4"/>
	<rect x="61.1" y="26.9" class="st0" width="2.3" height="11.4"/>
	<path class="st0" d="M74.7,27.7C74,27,73,26.5,71.8,26.5c-0.8,0-1.4,0.1-2,0.4c-0.5,0.2-1,0.5-1.4,0.8v-0.9h-2.3v11.4h2.3V30
		c0.5-0.3,0.9-0.5,1.5-0.8c0.5-0.3,1-0.4,1.5-0.4c0.5,0,0.9,0.1,1.1,0.2c0.2,0.1,0.4,0.2,0.6,0.5c0.1,0.2,0.2,0.6,0.3,0.9
		c0.1,0.4,0.1,0.9,0.1,1.3v6.5h2.3V31C75.7,29.6,75.4,28.5,74.7,27.7z"/>
</g>
</svg>
