<?xml version="1.0" encoding="utf-8"?>
<!-- Generator: Adobe Illustrator 21.1.0, SVG Export Plug-In . SVG Version: 6.00 Build 0)  -->
<svg version="1.1" id="Layer_1" xmlns="http://www.w3.org/2000/svg" xmlns:xlink="http://www.w3.org/1999/xlink" x="0px" y="0px"
	 viewBox="0 0 59 59" style="enable-background:new 0 0 59 59;" xml:space="preserve">
<style type="text/css">
	.st0{fill:#FFFFFF;}
</style>
<path class="st0" d="M24.7,20.8l10.5,8.1L24.7,37C24.7,37,24.7,20.8,24.7,20.8z"/>
<path class="st0" d="M37.5,19.3l1.4-2.5L31.5,17l3.8,6.3l1.3-2.4c3.2,3.1,4.4,7.6,3.3,11.9c-0.8,3.1-2.9,5.8-5.7,7.4
	c-2.8,1.6-6.1,2.1-9.3,1.2c-3.1-0.9-5.8-2.9-7.4-5.7s-2.1-6.1-1.2-9.3l0.1-0.5l-1.7-0.5l-0.1,0.5c-1,3.6-0.5,7.4,1.4,10.6
	c1.9,3.2,4.9,5.5,8.5,6.5c1.2,0.3,2.4,0.5,3.6,0.5c6.3,0,11.8-4.2,13.5-10.3C43,28.1,41.4,22.8,37.5,19.3z"/>
</svg>
