<?xml version="1.0" encoding="utf-8"?>
<!-- Generator: Adobe Illustrator 21.1.0, SVG Export Plug-In . SVG Version: 6.00 Build 0)  -->
<svg version="1.1" id="Layer_1" xmlns="http://www.w3.org/2000/svg" xmlns:xlink="http://www.w3.org/1999/xlink" x="0px" y="0px"
	 viewBox="0 0 22 22" style="enable-background:new 0 0 22 22;" xml:space="preserve">
<polygon points="12.7,2.3 12.7,1.1 9.3,1.1 9.3,2.3 4,2.3 4,4.6 18,4.6 18,2.3 "/>
<path d="M5.2,6.9v14h11.6v-14H5.2z M14.8,19.3h-1.2V8.9l-2-0.2v10.6h-1.2V8.9l-2,0.2v10.2H7.2V8.4h1.2l2,0.2V8.4h1.2v0.1l2-0.1h1.2
	V19.3z"/>
<polygon points="12.3,6.9 9.7,6.9 5.7,6.9 5.7,9.3 16.3,9.3 16.3,6.9 "/>
<polygon points="12.3,18.6 9.7,18.6 5.7,18.6 5.7,20.9 16.3,20.9 16.3,18.6 "/>
</svg>
