<?xml version="1.0" encoding="utf-8"?>
<!-- Generator: Adobe Illustrator 21.1.0, SVG Export Plug-In . SVG Version: 6.00 Build 0)  -->
<svg version="1.1" id="Layer_1" xmlns="http://www.w3.org/2000/svg" xmlns:xlink="http://www.w3.org/1999/xlink" x="0px" y="0px"
	 viewBox="0 0 59 59" style="enable-background:new 0 0 59 59;" xml:space="preserve">
<style type="text/css">
	.st0{fill:#FFFFFF;}
</style>
<g>
	<path class="st0" d="M29.4,30.9c0,1.2-0.1,2.2-0.4,3c-0.3,0.9-0.7,1.6-1.3,2.2c-0.6,0.5-1.2,0.9-1.9,1.2c-0.7,0.3-1.6,0.4-2.6,0.4
		s-1.9-0.1-2.6-0.4c-0.7-0.3-1.4-0.7-1.9-1.2c-0.6-0.6-1-1.3-1.3-2.1c-0.3-0.8-0.4-1.9-0.4-3.1v-9.6h2.1V31c0,0.9,0.1,1.6,0.2,2.1
		s0.3,1,0.6,1.4c0.3,0.5,0.7,0.8,1.3,1.1c0.5,0.2,1.2,0.4,1.9,0.4c0.8,0,1.4-0.1,2-0.3c0.5-0.2,1-0.6,1.3-1.1
		c0.3-0.4,0.5-0.9,0.6-1.4s0.2-1.2,0.2-2v-9.9h2.2V30.9z"/>
	<path class="st0" d="M42,33.9c0,1.1-0.5,2-1.4,2.7s-2.1,1.1-3.7,1.1c-0.9,0-1.7-0.1-2.4-0.3S33,37,32.5,36.7v-2.3h0.1
		c0.6,0.5,1.3,0.9,2.1,1.1c0.8,0.3,1.5,0.4,2.2,0.4c0.9,0,1.6-0.1,2.1-0.4s0.8-0.7,0.8-1.4c0-0.5-0.1-0.8-0.4-1.1
		c-0.3-0.2-0.8-0.5-1.6-0.6c-0.3-0.1-0.7-0.1-1.1-0.2c-0.5-0.1-0.9-0.2-1.3-0.3c-1.1-0.3-1.8-0.7-2.2-1.2s-0.7-1.2-0.7-2
		c0-0.5,0.1-1,0.3-1.4s0.5-0.8,0.9-1.2c0.4-0.3,0.9-0.6,1.5-0.8c0.6-0.2,1.3-0.3,2.1-0.3c0.7,0,1.4,0.1,2.2,0.3
		c0.7,0.2,1.3,0.4,1.8,0.6v2.2h-0.1c-0.5-0.4-1.1-0.7-1.9-1c-0.8-0.3-1.5-0.4-2.2-0.4s-1.4,0.1-1.9,0.4s-0.8,0.7-0.8,1.3
		c0,0.5,0.2,0.9,0.5,1.1c0.3,0.3,0.8,0.5,1.5,0.6c0.4,0.1,0.8,0.2,1.3,0.3s0.8,0.2,1.2,0.2c0.9,0.2,1.7,0.6,2.2,1.1
		C41.7,32.3,42,33,42,33.9z"/>
</g>
</svg>
