<?xml version="1.0" encoding="utf-8"?>
<!-- Generator: Adobe Illustrator 21.1.0, SVG Export Plug-In . SVG Version: 6.00 Build 0)  -->
<svg version="1.1" id="Layer_1" xmlns="http://www.w3.org/2000/svg" xmlns:xlink="http://www.w3.org/1999/xlink" x="0px" y="0px"
	 viewBox="0 0 59 59" style="enable-background:new 0 0 59 59;" xml:space="preserve">
<style type="text/css">
	.st0{fill:#FFFFFF;}
</style>
<g>
	<path class="st0" d="M20.4,37.5h-2.2v-7.8h-8v7.8H8.1v-16h2.1v6.3h8v-6.3h2.1v16H20.4z"/>
	<path class="st0" d="M33.5,31.7h-8.8c0,0.7,0.1,1.4,0.3,1.9c0.2,0.5,0.5,1,0.9,1.3s0.8,0.6,1.3,0.8s1.1,0.3,1.7,0.3
		c0.8,0,1.6-0.2,2.5-0.5c0.8-0.3,1.4-0.6,1.8-1h0.1v2.2c-0.7,0.3-1.4,0.5-2.1,0.7s-1.5,0.3-2.2,0.3c-2,0-3.5-0.5-4.7-1.6
		c-1.1-1.1-1.7-2.6-1.7-4.6s0.5-3.5,1.6-4.7c1.1-1.2,2.5-1.7,4.2-1.7c1.6,0,2.9,0.5,3.7,1.4c0.8,0.9,1.3,2.3,1.3,4v1.2
		C33.4,31.7,33.5,31.7,33.5,31.7z M31.6,30.1c0-1.1-0.3-1.9-0.8-2.5s-1.3-0.9-2.4-0.9s-1.9,0.3-2.6,1c-0.6,0.6-1,1.4-1.1,2.4H31.6z"
		/>
	<path class="st0" d="M38,37.5h-2V21.3h2V37.5z"/>
	<path class="st0" d="M50.9,31.3c0,1-0.1,1.9-0.4,2.7c-0.3,0.8-0.7,1.5-1.2,2s-1,0.9-1.7,1.2c-0.6,0.3-1.3,0.4-2,0.4
		c-0.6,0-1.2-0.1-1.7-0.2c-0.5-0.1-1-0.3-1.5-0.6v5h-2V25.5h2v1.3c0.5-0.5,1.1-0.8,1.8-1.1c0.7-0.3,1.4-0.5,2.1-0.5
		c1.4,0,2.6,0.5,3.4,1.6S50.9,29.4,50.9,31.3z M48.8,31.4c0-1.4-0.2-2.5-0.7-3.2s-1.3-1.1-2.3-1.1c-0.6,0-1.2,0.1-1.8,0.4
		s-1.2,0.6-1.7,1v6.8c0.6,0.3,1.1,0.4,1.5,0.5s0.9,0.1,1.4,0.1c1.1,0,2-0.4,2.6-1.1C48.5,34,48.8,32.9,48.8,31.4z"/>
</g>
</svg>
