<?xml version="1.0" encoding="utf-8"?>
<!-- Generator: Adobe Illustrator 21.1.0, SVG Export Plug-In . SVG Version: 6.00 Build 0)  -->
<svg version="1.1" id="Layer_1" xmlns="http://www.w3.org/2000/svg" xmlns:xlink="http://www.w3.org/1999/xlink" x="0px" y="0px"
	 viewBox="0 0 59 59" style="enable-background:new 0 0 59 59;" xml:space="preserve">
<style type="text/css">
	.st0{fill:#FFFFFF;}
</style>
<g>
	<path class="st0" d="M13.2,37.5H11v-7.8H3v7.8H0.9v-16H3v6.3h8v-6.3h2.1L13.2,37.5L13.2,37.5z"/>
	<path class="st0" d="M25.9,31.5c0,2-0.5,3.5-1.5,4.6c-1,1.1-2.3,1.7-4,1.7s-3-0.6-4-1.7c-1-1.1-1.5-2.7-1.5-4.6
		c0-1.9,0.5-3.5,1.5-4.6s2.3-1.7,4-1.7s3,0.6,4,1.7C25.4,28,25.9,29.5,25.9,31.5z M23.8,31.5c0-1.6-0.3-2.7-0.9-3.5
		c-0.6-0.8-1.5-1.1-2.5-1.1c-1.1,0-1.9,0.4-2.6,1.1c-0.6,0.8-0.9,1.9-0.9,3.5c0,1.5,0.3,2.6,0.9,3.4s1.5,1.2,2.5,1.2
		c1.1,0,1.9-0.4,2.5-1.2C23.5,34.1,23.8,33,23.8,31.5z"/>
	<path class="st0" d="M45.2,37.5h-2v-6.8c0-0.5,0-1-0.1-1.5c0-0.5-0.1-0.9-0.3-1.1c-0.2-0.3-0.4-0.5-0.7-0.7
		c-0.3-0.2-0.8-0.2-1.3-0.2c-0.6,0-1.1,0.1-1.7,0.4c-0.6,0.3-1.1,0.6-1.7,1.1c0,0.2,0,0.4,0.1,0.6c0,0.2,0,0.4,0,0.6v7.7h-2v-6.8
		c0-0.5,0-1-0.1-1.5c0-0.5-0.1-0.9-0.3-1.1c-0.2-0.3-0.4-0.5-0.7-0.7c-0.3-0.2-0.8-0.2-1.3-0.2c-0.6,0-1.1,0.1-1.7,0.4
		c-0.6,0.3-1.1,0.6-1.7,1v9h-2v-12h2V27c0.6-0.5,1.3-0.9,1.9-1.2c0.6-0.3,1.3-0.4,2-0.4c0.8,0,1.5,0.2,2.1,0.5
		c0.6,0.3,1,0.8,1.3,1.4c0.8-0.7,1.6-1.2,2.2-1.5c0.7-0.3,1.4-0.5,2.2-0.5c1.3,0,2.3,0.4,2.9,1.2c0.6,0.8,0.9,1.9,0.9,3.3V37.5z"/>
	<path class="st0" d="M58.1,31.7h-8.8c0,0.7,0.1,1.4,0.3,1.9s0.5,1,0.9,1.3s0.8,0.6,1.3,0.8s1.1,0.3,1.7,0.3c0.8,0,1.6-0.2,2.5-0.5
		c0.8-0.3,1.4-0.6,1.8-1h0.1v2.2c-0.7,0.3-1.4,0.5-2.1,0.7s-1.5,0.3-2.2,0.3c-2,0-3.5-0.5-4.7-1.6c-1.1-1.1-1.7-2.6-1.7-4.6
		s0.5-3.5,1.6-4.7c1.1-1.2,2.5-1.7,4.2-1.7c1.6,0,2.9,0.5,3.7,1.4c0.9,0.9,1.3,2.3,1.3,4v1.2H58.1z M56.1,30.1
		c0-1.1-0.3-1.9-0.8-2.5s-1.3-0.9-2.4-0.9c-1.1,0-1.9,0.3-2.6,1c-0.6,0.6-1,1.4-1.1,2.4C49.2,30.1,56.1,30.1,56.1,30.1z"/>
</g>
</svg>
