<?xml version="1.0" encoding="utf-8"?>
<!-- Generator: Adobe Illustrator 21.1.0, SVG Export Plug-In . SVG Version: 6.00 Build 0)  -->
<svg version="1.1" xmlns="http://www.w3.org/2000/svg" xmlns:xlink="http://www.w3.org/1999/xlink" x="0px" y="0px"
	 viewBox="0 0 229.4 50" style="enable-background:new 0 0 229.4 50;" xml:space="preserve">
<style type="text/css">
	.st0{fill:#00A7E1;}
	.st1{fill:#CAE5FF;}
	.st2{fill:#007EA7;}
	.st3{display:none;}
	.st4{display:inline;fill:#FFFFFF;}
	.st5{display:inline;}
	.st6{fill:#FFFFFF;}
</style>
<g id="Layer_1">
	<rect x="-41.3" y="121" class="st0" width="332.4" height="68"/>
	<text transform="matrix(1 0 0 1 -33.7723 166.9)" class="st1" style="font-family:'RobotoSlab-Regular'; font-size:45px;">any     decision</text>
	<g>
		<path class="st1" d="M81.9,141.1l-7.7-8.8c-0.5-0.5-1.2-0.5-1.7,0l-7.7,8.9c-0.7,0.8-0.2,2,0.9,2l3,0c-0.4,5,1.7,8.4,4.6,10.7h4.2
			v-10.8l3.5,0C82.1,143.1,82.6,141.8,81.9,141.1z"/>
		<path class="st2" d="M88,138l-11.7,0.9c-1.1,0-1.6,1.3-0.8,2l2.2,2.1c-3.8,3.3-4.8,7.1-4.3,10.9l2.9,2.9l7.6-7.6l2.5,2.5
			c0.8,0.7,2,0.2,2-0.9l0.8-11.7C89.2,138.5,88.7,138,88,138z"/>
		<path class="st1" d="M95,153l-8.9-7.7c-0.8-0.7-2-0.2-2,0.9l0,3c-5-0.4-8.4,1.7-10.7,4.6l0,4.2h10.8l0,3.5c0,1.1,1.3,1.6,2,0.8
			l8.8-7.7C95.5,154.3,95.5,153.5,95,153z"/>
		<path class="st2" d="M88.4,156.9c0-1.1-1.3-1.6-2-0.8l-2.1,2.2c-3.3-3.8-7.1-4.8-10.9-4.3l-2.9,2.9l7.6,7.6l-2.5,2.5
			c-0.8,0.8-0.2,2,0.9,2l11.7,0.8c0.7,0,1.2-0.5,1.2-1.2L88.4,156.9z"/>
		<path class="st1" d="M81,164.6l-3,0c0.4-5-1.7-8.4-4.6-10.7l-4.2,0l0,10.8l-3.5,0c-1.1,0-1.6,1.3-0.8,2l7.7,8.8
			c0.5,0.5,1.2,0.5,1.7,0l7.7-8.9C82.6,165.9,82.1,164.6,81,164.6z"/>
		<path class="st2" d="M69,164.8c3.8-3.3,4.8-7.1,4.3-10.9l-2.9-2.9l-7.6,7.6l-2.5-2.5c-0.8-0.7-2-0.2-2,0.9l-0.8,11.7
			c0,0.7,0.5,1.2,1.2,1.2l11.7-0.9c1.1,0,1.6-1.3,0.8-2L69,164.8z"/>
		<path class="st1" d="M73.3,150.6v-0.9H62.6l0-3.5c0-1.1-1.3-1.6-2-0.8l-8.8,7.7c-0.5,0.5-0.5,1.2,0,1.7l8.9,7.7
			c0.8,0.7,2,0.2,2-0.9l0-3c5,0.4,8.4-1.7,10.7-4.6C73.2,152.8,73.2,151.7,73.3,150.6z"/>
		<path class="st2" d="M68.7,143.4L68.7,143.4L68.7,143.4c0-0.1,0-0.1,0-0.2l-3,0c-1.1,0-1.6-1.3-0.9-2l2.2-2.6l-8.4-0.6
			c-0.7,0-1.2,0.5-1.2,1.2l0.9,11.7c0,1.1,1.3,1.6,2,0.8l2.1-2.2c3.3,3.8,7.1,4.8,10.9,4.3C70.4,151.6,68.4,148.3,68.7,143.4z"/>
	</g>
	<g class="st3">
		<rect x="133.4" y="5.3" class="st4" width="16.7" height="1.1"/>
		<rect x="78.2" y="5.3" class="st4" width="40.2" height="1.1"/>
		<rect x="165.1" y="5.3" class="st4" width="43" height="1.1"/>
		<rect x="53.7" y="44.1" class="st4" width="154.3" height="1.1"/>
		<g class="st5">
			<path class="st6" d="M53.7,25.2c0-3.8,0.8-6.8,2.4-8.9s3.8-3.2,6.6-3.2c1.8,0,3.4,0.4,4.7,1.2c1.4,0.8,2.5,2,3.3,3.6V3.6h1.2
				v33.8h-1.2v-3.8c-0.8,1.4-1.9,2.4-3.3,3.1c-1.4,0.7-3,1.1-4.8,1.1c-2.8,0-4.9-1.1-6.5-3.3s-2.4-5.2-2.4-9
				C53.7,25.5,53.7,25.2,53.7,25.2z M54.9,25.7c0,3.4,0.7,6,2,8s3.2,2.9,5.7,2.9c2,0,3.6-0.4,5-1.3c1.4-0.9,2.4-2.2,3.1-3.8V20.3
				c-1.4-4-4.1-6-8.1-6c-2.4,0-4.3,1-5.7,2.9C55.6,19.1,54.9,21.9,54.9,25.7z"/>
			<path class="st6" d="M87.8,37.8c-1.9,0-3.7-0.5-5.3-1.6s-2.9-2.5-3.8-4.3s-1.4-3.8-1.4-6v-1c0-2.2,0.4-4.2,1.3-6.1
				s2.1-3.3,3.6-4.3c1.5-1,3.2-1.5,5-1.5c2.7,0,4.8,0.9,6.5,2.8s2.5,4.4,2.5,7.5v1.3H78.4V26c0,1.9,0.4,3.7,1.2,5.4
				c0.8,1.6,1.9,2.9,3.4,3.9c1.4,0.9,3,1.4,4.7,1.4c1.6,0,3-0.3,4.1-0.8s2.1-1.4,3-2.5l0.8,0.6C93.9,36.5,91.3,37.8,87.8,37.8z
				 M87.3,14.3c-2.3,0-4.3,0.9-5.9,2.6s-2.6,3.9-2.8,6.6h16.6v-0.3c0-1.6-0.3-3.1-1-4.5s-1.6-2.5-2.8-3.2
				C90.1,14.7,88.8,14.3,87.3,14.3z"/>
			<path class="st6" d="M110.1,36.6c2.2,0,3.9-0.6,5.3-1.7s2.2-2.7,2.3-4.8h1.2c-0.1,2.3-1,4.2-2.7,5.6c-1.7,1.4-3.7,2.1-6.2,2.1
				c-3,0-5.3-1.1-7.1-3.2s-2.6-5.1-2.6-8.8V25c0-3.6,0.9-6.5,2.6-8.6s4.1-3.2,7.1-3.2c2.5,0,4.6,0.8,6.2,2.3c1.6,1.5,2.5,3.5,2.6,6
				h-1.2c-0.1-2.1-0.9-3.9-2.3-5.2s-3.2-1.9-5.4-1.9c-2.7,0-4.7,1-6.2,2.9s-2.3,4.6-2.3,8v0.8c0,3.3,0.8,5.9,2.3,7.8
				C105.3,35.7,107.4,36.6,110.1,36.6z"/>
			<path class="st6" d="M124.7,6.1c0-0.3,0.1-0.6,0.4-0.9c0.2-0.2,0.5-0.4,0.9-0.4c0.3,0,0.6,0.1,0.9,0.4c0.2,0.2,0.4,0.5,0.4,0.9
				s-0.1,0.6-0.4,0.9c-0.2,0.2-0.5,0.4-0.9,0.4c-0.3,0-0.6-0.1-0.9-0.4C124.8,6.7,124.7,6.5,124.7,6.1z M126.5,37.4h-1.2V13.6h1.2
				V37.4z"/>
			<path class="st6" d="M149,31.5c0-2.9-2.5-4.9-7.4-5.9c-3-0.6-5-1.4-6.2-2.4s-1.7-2.4-1.7-4.1s0.7-3.2,2.2-4.3s3.4-1.7,5.8-1.7
				c2.6,0,4.6,0.6,6.2,1.8c1.6,1.2,2.3,2.9,2.3,5H149c0-1.6-0.7-2.9-2-4c-1.4-1.1-3.1-1.6-5.3-1.6c-2.1,0-3.7,0.5-5,1.4
				c-1.2,0.9-1.8,2-1.8,3.4c0,1.1,0.2,1.9,0.7,2.5s1.2,1.2,2.2,1.7c1,0.5,2.5,1,4.5,1.4c2,0.5,3.5,1,4.7,1.6c1.1,0.6,2,1.3,2.5,2.2
				c0.5,0.8,0.8,1.9,0.8,3.1c0,1.9-0.8,3.4-2.3,4.5s-3.6,1.7-6.1,1.7c-2.7,0-4.8-0.6-6.5-1.8c-1.6-1.2-2.5-2.8-2.5-4.7h1.2
				c0.1,1.7,0.9,3,2.2,3.9c1.4,0.9,3.2,1.4,5.5,1.4c2.1,0,3.9-0.5,5.2-1.5C148.3,34.1,149,32.9,149,31.5z"/>
			<path class="st6" d="M156.4,6.1c0-0.3,0.1-0.6,0.4-0.9c0.2-0.2,0.5-0.4,0.9-0.4c0.3,0,0.6,0.1,0.9,0.4c0.2,0.2,0.4,0.5,0.4,0.9
				s-0.1,0.6-0.4,0.9c-0.2,0.2-0.5,0.4-0.9,0.4c-0.3,0-0.6-0.1-0.9-0.4C156.5,6.7,156.4,6.5,156.4,6.1z M158.2,37.4H157V13.6h1.2
				V37.4z"/>
			<path class="st6" d="M164.1,25c0-2.3,0.4-4.3,1.3-6.1c0.9-1.8,2.1-3.2,3.7-4.2c1.6-1,3.4-1.5,5.4-1.5s3.8,0.5,5.4,1.5
				s2.8,2.4,3.7,4.2c0.9,1.8,1.3,3.8,1.4,6.1v1.1c0,2.3-0.4,4.3-1.3,6.1c-0.9,1.8-2.1,3.2-3.7,4.2c-1.6,1-3.4,1.5-5.4,1.5
				s-3.8-0.5-5.4-1.5s-2.8-2.4-3.7-4.2s-1.3-3.8-1.3-6.1L164.1,25L164.1,25z M165.3,25.9c0,2,0.4,3.8,1.2,5.4
				c0.8,1.7,1.9,2.9,3.3,3.9c1.4,0.9,3,1.4,4.8,1.4c2.7,0,4.9-1,6.6-3.1s2.6-4.7,2.6-7.9V25c0-2-0.4-3.8-1.2-5.4s-1.9-3-3.3-3.9
				c-1.4-0.9-3-1.4-4.8-1.4c-2.7,0-4.9,1-6.6,3.1s-2.6,4.7-2.6,7.8V25.9z"/>
			<path class="st6" d="M192,19.1c0.8-1.8,1.9-3.3,3.4-4.4s3.2-1.6,5-1.6c2.6,0,4.4,0.7,5.7,2.2c1.2,1.4,1.9,3.6,1.9,6.5v15.5h-1.2
				V21.8c0-2.5-0.5-4.4-1.6-5.7c-1-1.2-2.7-1.8-4.9-1.8c-2.1,0-3.8,0.7-5.3,2.2s-2.5,3.3-3,5.6v15.2h-1.2V13.6h1.2L192,19.1
				L192,19.1z"/>
		</g>
		<path class="st4" d="M-4.7,33.9c0-0.2,0-12.7,0-12.7c0-2.6-0.8-4.7-2.6-6c-1.6-1.4-3.9-2.1-6.6-2.1c-1.8,0-3.4,0.3-5,0.8
			c-1.4,0.5-2.9,1.3-3.9,2.1l-0.2,0.2v5h4.3v-2.6c0.5-0.3,1-0.6,1.8-1c0.8-0.3,1.6-0.3,2.6-0.3c1.4,0,2.6,0.3,3.2,1.1
			C-10.3,19-10,20-10,21.3v2.3h-3.9c-3.2,0-5.6,0.6-7.4,1.8c-1.8,1.3-2.7,3.1-2.7,5.3c0,2.3,0.6,4,1.9,5.2c1.3,1.3,3.2,1.9,5.8,1.9
			c1.4,0,2.7-0.3,4-1.1c1-0.5,1.8-1.1,2.4-1.8c0,0.2,0,2.4,0,2.4h6.8v-3.4L-4.7,33.9L-4.7,33.9z M-17.6,28.1c1-0.8,2.3-1.1,3.9-1.1
			h4v3.2c-0.5,0.8-1.3,1.6-2.3,2.1c-1.1,0.6-2.3,1-3.5,1c-1.1,0-2.1-0.2-2.6-0.6s-0.8-1.1-0.8-1.9C-18.9,29.7-18.6,28.8-17.6,28.1z"
			/>
		<path class="st4" d="M22,33.9V22.3c0-3.1-0.6-5.5-2.1-6.9s-3.5-2.3-6.1-2.3c-1.6,0-2.9,0.3-4.2,1.1c-1,0.5-1.8,1.3-2.4,2.1v-2.7
			H-1V17h3.5v16.9H-1v3.4h11.9v-3.4H7.4V20.2c0.5-1,1.1-1.6,2.1-2.1c0.8-0.5,1.9-0.8,3.1-0.8c1.4,0,2.7,0.3,3.4,1.1
			c0.8,0.8,1.1,2.1,1.1,4v11.4h-3.5v3.4h11.9v-3.4L22,33.9L22,33.9z"/>
		<path class="st4" d="M40.3,13.5v3.4h2.4l-4.3,13.2l-4.3-13.2h2.4v-3.4H26.4v3.4h2.3L36,36.3l-1,2.3c-0.3,1-0.8,1.8-1.4,2.6
			c-0.5,0.6-1.1,1-1.9,1c-0.2,0-2.3-0.3-2.3-0.3L28.9,46c0,0,1,0.2,1.6,0.3c0.5,0.2,1,0.2,1.3,0.2c1.9,0,3.5-0.6,4.7-1.8
			c1.1-1.1,1.9-2.6,2.6-4.2l8.7-23.7h2.1v-3.4L40.3,13.5z"/>
	</g>
</g>
<g id="Layer_2">
	<rect x="-41.3" y="274" class="st0" width="332.4" height="68"/>
	<text transform="matrix(1 0 0 1 25.2277 319.9)"><tspan x="0" y="0" class="st1" style="font-family:'RobotoSlab-Regular'; font-size:45px;">any</tspan><tspan x="79.3" y="0" class="st2" style="font-family:'RobotoSlab-Regular'; font-size:45px;">decision</tspan></text>
	<g>
		<path class="st1" d="M1.2,294.1l-7.7-8.8c-0.5-0.5-1.2-0.5-1.7,0l-7.7,8.9c-0.7,0.8-0.2,2,0.9,2l3,0c-0.4,5,1.7,8.4,4.6,10.7h4.2
			l0-10.8l3.5,0C1.4,296.1,1.9,294.8,1.2,294.1z"/>
		<path class="st2" d="M7.4,291l-11.7,0.9c-1.1,0-1.6,1.3-0.8,2L-3,296c-3.8,3.3-4.8,7.1-4.3,10.9l2.9,2.9l7.6-7.6l2.5,2.5
			c0.8,0.7,2,0.2,2-0.9l0.8-11.7C8.5,291.5,8,291,7.4,291z"/>
		<path class="st1" d="M14.3,306l-8.9-7.7c-0.8-0.7-2-0.2-2,0.9l0,3c-5-0.4-8.4,1.7-10.7,4.6l0,4.2H3.4l0,3.5c0,1.1,1.3,1.6,2,0.8
			l8.8-7.7C14.8,307.3,14.8,306.5,14.3,306z"/>
		<path class="st2" d="M7.7,309.9c0-1.1-1.3-1.6-2-0.8l-2.1,2.2c-3.3-3.8-7.1-4.8-10.9-4.3l-2.9,2.9l7.6,7.6l-2.5,2.5
			c-0.8,0.8-0.2,2,0.9,2l11.7,0.8c0.7,0,1.2-0.5,1.2-1.2L7.7,309.9z"/>
		<path class="st1" d="M0.3,317.6l-3,0c0.4-5-1.7-8.4-4.6-10.7h-4.2l0,10.8l-3.5,0c-1.1,0-1.6,1.3-0.8,2l7.7,8.8
			c0.5,0.5,1.2,0.5,1.7,0l7.7-8.9C1.9,318.9,1.4,317.6,0.3,317.6z"/>
		<path class="st2" d="M-11.6,317.8c3.8-3.3,4.8-7.1,4.3-10.9l-2.9-2.9l-7.6,7.6l-2.5-2.5c-0.8-0.7-2-0.2-2,0.9l-0.8,11.7
			c0,0.7,0.5,1.2,1.2,1.2l11.7-0.9c1.1,0,1.6-1.3,0.8-2L-11.6,317.8z"/>
		<path class="st1" d="M-7.3,303.6l0-0.9h-10.8l0-3.5c0-1.1-1.3-1.6-2-0.8l-8.8,7.7c-0.5,0.5-0.5,1.2,0,1.7l8.9,7.7
			c0.8,0.7,2,0.2,2-0.9l0-3c5,0.4,8.4-1.7,10.7-4.6C-7.5,305.8-7.5,304.7-7.3,303.6z"/>
		<path class="st2" d="M-12,296.4L-12,296.4L-12,296.4c0-0.1,0-0.1,0-0.2l-3,0c-1.1,0-1.6-1.3-0.9-2l2.2-2.6l-8.4-0.6
			c-0.7,0-1.2,0.5-1.2,1.2l0.9,11.7c0,1.1,1.3,1.6,2,0.8l2.1-2.2c3.3,3.8,7.1,4.8,10.9,4.3C-10.3,304.6-12.3,301.3-12,296.4z"/>
	</g>
	<rect x="-41.3" y="419.3" class="st0" width="332.4" height="68"/>
	<g>
		<path class="st1" d="M42.2,465.2l0-3.3c-0.8,1.1-1.9,2-3.1,2.7c-1.3,0.7-2.6,1.1-4,1.1c-2.5,0-4.4-0.6-5.6-1.8
			c-1.3-1.2-1.9-2.9-1.9-5.1c0-2.3,0.9-4,2.7-5.2c1.8-1.2,4.3-1.8,7.5-1.8h4.5V449c0-1.4-0.4-2.5-1.3-3.3c-0.9-0.8-2.1-1.2-3.7-1.2
			c-1.1,0-2,0.1-2.9,0.4c-0.8,0.3-1.5,0.7-2,1.1l0,2.5h-3.8v-4.6c1.1-0.9,2.4-1.6,3.9-2.1c1.5-0.5,3.2-0.8,5-0.8
			c2.7,0,4.9,0.7,6.5,2.1s2.5,3.3,2.5,5.9l0,13.5l1.8,0v2.8H42.2z M35.7,462.1c1.4,0,2.7-0.3,3.9-1s2-1.5,2.5-2.5v-3.9h-4.6
			c-1.8,0-3.2,0.4-4.2,1.2c-1,0.8-1.5,1.8-1.5,3c0,1,0.3,1.8,1,2.4C33.5,461.8,34.4,462.1,35.7,462.1z"/>
		<path class="st1" d="M51.3,462.5l3.6,0v-18.2l-3.6,0v-2.8h7.8l0,3.5c0.8-1.3,1.8-2.2,3-2.9c1.2-0.7,2.6-1,4.1-1
			c2.6,0,4.5,0.8,6,2.3c1.4,1.5,2.1,3.8,2.1,7l0,12.2l3.6,0v2.8H66.3v-2.8l3.6,0l0-12.2c0-2.1-0.4-3.6-1.2-4.5
			c-0.8-0.9-2.1-1.3-3.8-1.3c-1.2,0-2.3,0.3-3.3,0.9s-1.7,1.4-2.3,2.5l0,14.6l3.6,0v2.8H51.3V462.5z"/>
		<path class="st1" d="M101.6,444.2l-2.1,0l-9.1,24.6c-0.6,1.6-1.5,3-2.6,4.2s-2.6,1.8-4.5,1.8c-0.3,0-0.8,0-1.3-0.1
			c-0.5-0.1-1-0.2-1.3-0.2l0.4-3.4c-0.1,0,0.2,0,0.8,0c0.6,0,1,0.1,1.2,0.1c0.9,0,1.7-0.4,2.2-1.2c0.6-0.8,1.1-1.7,1.5-2.8l1-2.5
			L80,444.2l-2.2,0v-2.8h9.6v2.8l-2.7,0l5,15.2l4.9-15.2l-2.7,0v-2.8h9.6V444.2z"/>
		<path class="st2" d="M122.2,462.4c-0.8,1.1-1.7,1.9-2.8,2.5s-2.4,0.8-3.9,0.8c-2.9,0-5.2-1.1-6.8-3.2c-1.6-2.1-2.4-4.9-2.4-8.3
			v-0.5c0-3.8,0.8-6.9,2.4-9.3s3.9-3.5,6.8-3.5c1.4,0,2.6,0.3,3.7,0.8c1.1,0.5,2,1.3,2.8,2.3l0-10.3l-3.6,0V431h7.9l0,31.5l3.6,0
			v2.8h-7.7L122.2,462.4z M110.5,454.2c0,2.4,0.5,4.3,1.5,5.8c1,1.5,2.5,2.2,4.5,2.2c1.3,0,2.4-0.3,3.3-0.9s1.6-1.4,2.2-2.5v-11
			c-0.6-1-1.3-1.8-2.2-2.4s-2-0.9-3.2-0.9c-2.1,0-3.6,0.9-4.6,2.6c-1,1.7-1.5,3.9-1.5,6.7V454.2z"/>
		<path class="st2" d="M142.5,465.7c-3.3,0-5.9-1.1-7.9-3.3c-2-2.2-2.9-5.1-2.9-8.6v-1c0-3.4,1-6.2,3-8.4c2-2.2,4.4-3.4,7.2-3.4
			c3.2,0,5.6,1,7.3,2.9c1.6,1.9,2.5,4.5,2.5,7.7v2.7h-15.4l-0.1,0.1c0,2.3,0.6,4.2,1.7,5.6c1.1,1.5,2.7,2.2,4.7,2.2
			c1.5,0,2.8-0.2,3.9-0.6c1.1-0.4,2.1-1,2.9-1.7l1.7,2.8c-0.8,0.8-2,1.5-3.4,2.1C146.2,465.4,144.5,465.7,142.5,465.7z M141.9,444.4
			c-1.4,0-2.7,0.6-3.7,1.8c-1,1.2-1.7,2.8-1.9,4.6l0,0.1h11v-0.6c0-1.7-0.5-3.1-1.4-4.3S143.7,444.4,141.9,444.4z"/>
		<path class="st2" d="M166.2,462.3c1.4,0,2.7-0.4,3.8-1.3c1.1-0.9,1.6-2,1.6-3.3h3.9l0,0.1c0.1,2.1-0.8,3.9-2.7,5.5
			c-1.9,1.6-4.1,2.4-6.6,2.4c-3.5,0-6.1-1.1-7.9-3.4c-1.8-2.3-2.7-5.1-2.7-8.5v-0.9c0-3.4,0.9-6.2,2.7-8.5c1.8-2.3,4.5-3.4,7.9-3.4
			c1.9,0,3.6,0.3,5.1,0.9c1.5,0.6,2.8,1.5,3.8,2.6l0.2,5.3h-3.4l-0.9-3.7c-0.5-0.5-1.2-0.9-2-1.2c-0.8-0.3-1.7-0.5-2.7-0.5
			c-2.3,0-3.9,0.8-4.9,2.5c-1,1.6-1.5,3.6-1.5,6v0.9c0,2.4,0.5,4.5,1.4,6.1C162.3,461.5,163.9,462.3,166.2,462.3z"/>
		<path class="st2" d="M178.9,462.5l3.6,0v-18.2l-3.6,0v-2.8h7.9l0,21l3.6,0v2.8h-11.5V462.5z M186.8,435.4h-4.3V431h4.3V435.4z"/>
		<path class="st2" d="M211.7,448.9h-3.3l-0.7-2.9c-0.5-0.5-1.2-0.9-2-1.2c-0.8-0.3-1.7-0.5-2.7-0.5c-1.5,0-2.7,0.3-3.4,1
			c-0.7,0.7-1.1,1.5-1.1,2.4c0,0.9,0.3,1.7,1,2.2c0.7,0.5,2,1,4,1.5c3,0.6,5.2,1.5,6.7,2.6c1.5,1.1,2.2,2.6,2.2,4.4
			c0,2.1-0.9,3.8-2.6,5.1c-1.7,1.3-3.9,2-6.7,2c-1.8,0-3.4-0.2-4.9-0.6c-1.4-0.4-2.7-1-3.8-1.8l0-5.4h3.3l0.8,3.2
			c0.5,0.5,1.2,0.8,2,1c0.9,0.2,1.7,0.3,2.6,0.3c1.5,0,2.7-0.3,3.6-0.9c0.9-0.6,1.3-1.4,1.3-2.5c0-1-0.4-1.7-1.1-2.4
			c-0.7-0.6-2.1-1.2-4.1-1.6c-2.9-0.6-5.1-1.5-6.5-2.6s-2.2-2.5-2.2-4.4c0-1.9,0.8-3.6,2.5-4.9c1.6-1.4,3.8-2,6.4-2
			c1.8,0,3.4,0.2,4.9,0.7s2.6,1.1,3.6,2L211.7,448.9z"/>
		<path class="st2" d="M216.2,462.5l3.6,0v-18.2l-3.6,0v-2.8h7.9l0,21l3.6,0v2.8h-11.5V462.5z M224.1,435.4h-4.3V431h4.3V435.4z"/>
		<path class="st2" d="M230.4,453.1c0-3.5,1-6.4,2.9-8.7c1.9-2.3,4.5-3.4,7.8-3.4c3.3,0,5.9,1.1,7.8,3.4c1.9,2.3,2.9,5.2,2.9,8.7
			v0.5c0,3.5-1,6.4-2.9,8.7s-4.5,3.4-7.8,3.4c-3.3,0-5.9-1.1-7.8-3.4c-1.9-2.3-2.9-5.2-2.9-8.7V453.1z M234.7,453.6
			c0,2.5,0.5,4.6,1.6,6.2c1.1,1.6,2.6,2.5,4.7,2.5c2,0,3.6-0.8,4.7-2.5s1.6-3.7,1.6-6.2v-0.5c0-2.5-0.5-4.6-1.6-6.2
			s-2.6-2.5-4.7-2.5s-3.6,0.8-4.7,2.5s-1.6,3.7-1.6,6.2V453.6z"/>
		<path class="st2" d="M253.8,462.5l3.6,0v-18.2l-3.6,0v-2.8h7.8l0,3.5c0.8-1.3,1.8-2.2,3-2.9c1.2-0.7,2.6-1,4.1-1
			c2.6,0,4.5,0.8,6,2.3c1.4,1.5,2.1,3.8,2.1,7l0,12.2l3.6,0v2.8h-11.5v-2.8l3.6,0l0-12.2c0-2.1-0.4-3.6-1.2-4.5
			c-0.8-0.9-2.1-1.3-3.8-1.3c-1.2,0-2.3,0.3-3.3,0.9c-1,0.6-1.7,1.4-2.3,2.5l0,14.6l3.6,0v2.8h-11.5V462.5z"/>
	</g>
	<g>
		<path class="st1" d="M1.2,439.4l-7.7-8.8c-0.5-0.5-1.2-0.5-1.7,0l-7.7,8.9c-0.7,0.8-0.2,2,0.9,2l3,0c-0.4,5,1.7,8.4,4.6,10.7h4.2
			l0-10.8l3.5,0C1.4,441.5,1.9,440.2,1.2,439.4z"/>
		<path class="st2" d="M7.4,436.3l-11.7,0.9c-1.1,0-1.6,1.3-0.8,2l2.2,2.1c-3.8,3.3-4.8,7.1-4.3,10.9l2.9,2.9l7.6-7.6l2.5,2.5
			c0.8,0.7,2,0.2,2-0.9l0.8-11.7C8.5,436.8,8,436.3,7.4,436.3z"/>
		<path class="st1" d="M14.3,451.4l-8.9-7.7c-0.8-0.7-2-0.2-2,0.9l0,3c-5-0.4-8.4,1.7-10.7,4.6l0,4.2H3.4l0,3.5c0,1.1,1.3,1.6,2,0.8
			l8.8-7.7C14.8,452.6,14.8,451.8,14.3,451.4z"/>
		<path class="st2" d="M7.7,455.2c0-1.1-1.3-1.6-2-0.8l-2.1,2.2c-3.3-3.8-7.1-4.8-10.9-4.3l-2.9,2.9l7.6,7.6l-2.5,2.5
			c-0.8,0.8-0.2,2,0.9,2l11.7,0.8c0.7,0,1.2-0.5,1.2-1.2L7.7,455.2z"/>
		<path class="st1" d="M0.3,463l-3,0c0.4-5-1.7-8.4-4.6-10.7l-4.2,0l0,10.8l-3.5,0c-1.1,0-1.6,1.3-0.8,2l7.7,8.8
			c0.5,0.5,1.2,0.5,1.7,0l7.7-8.9C1.9,464.3,1.4,463,0.3,463z"/>
		<path class="st2" d="M-11.6,463.1c3.8-3.3,4.8-7.1,4.3-10.9l-2.9-2.9l-7.6,7.6l-2.5-2.5c-0.8-0.7-2-0.2-2,0.9l-0.8,11.7
			c0,0.7,0.5,1.2,1.2,1.2l11.7-0.9c1.1,0,1.6-1.3,0.8-2L-11.6,463.1z"/>
		<path class="st1" d="M-7.3,449l0-0.9h-10.8l0-3.5c0-1.1-1.3-1.6-2-0.8l-8.8,7.7c-0.5,0.5-0.5,1.2,0,1.7l8.9,7.7
			c0.8,0.7,2,0.2,2-0.9l0-3c5,0.4,8.4-1.7,10.7-4.6C-7.5,451.2-7.5,450.1-7.3,449z"/>
		<path class="st2" d="M-12,441.7L-12,441.7L-12,441.7c0-0.1,0-0.1,0-0.2l-3,0c-1.1,0-1.6-1.3-0.9-2l2.2-2.6l-8.4-0.6
			c-0.7,0-1.2,0.5-1.2,1.2l0.9,11.7c0,1.1,1.3,1.6,2,0.8l2.1-2.2c3.3,3.8,7.1,4.8,10.9,4.3C-10.3,449.9-12.3,446.6-12,441.7z"/>
	</g>
	<rect x="193.9" y="431" class="st2" width="24.7" height="4.4"/>
	<rect x="231.5" y="431" class="st2" width="48.8" height="4.4"/>
	<rect x="130.6" y="431" class="st2" width="108.1" height="4.4"/>
	<rect x="182.5" y="431" class="st2" width="4.3" height="4.4"/>
	<rect x="219.8" y="431" class="st2" width="4.3" height="4.4"/>
	<rect x="-41.3" y="539.3" class="st0" width="332.4" height="68"/>
	<g>
		<path class="st1" d="M42.2,585.2l0-3.3c-0.8,1.1-1.9,2-3.1,2.7c-1.3,0.7-2.6,1.1-4,1.1c-2.5,0-4.4-0.6-5.6-1.8
			c-1.3-1.2-1.9-2.9-1.9-5.1c0-2.3,0.9-4,2.7-5.2c1.8-1.2,4.3-1.8,7.5-1.8h4.5V569c0-1.4-0.4-2.5-1.3-3.3c-0.9-0.8-2.1-1.2-3.7-1.2
			c-1.1,0-2,0.1-2.9,0.4c-0.8,0.3-1.5,0.7-2,1.1l0,1.1c0,0.8-0.6,1.4-1.4,1.4h-1c-0.8,0-1.4-0.6-1.4-1.4v-3.2
			c1.1-0.9,2.4-1.6,3.9-2.1c1.5-0.5,3.2-0.8,5-0.8c2.7,0,4.9,0.7,6.5,2.1s2.5,3.3,2.5,5.9l0,13.5l0.4,0c0.8,0,1.4,0.6,1.4,1.4l0,0
			c0,0.8-0.6,1.4-1.4,1.4H42.2z M35.7,582.1c1.4,0,2.7-0.3,3.9-1s2-1.5,2.5-2.5v-3.9h-4.6c-1.8,0-3.2,0.4-4.2,1.2
			c-1,0.8-1.5,1.8-1.5,3c0,1,0.3,1.8,1,2.4C33.5,581.8,34.4,582.1,35.7,582.1z"/>
		<path class="st1" d="M52.7,582.5l2.2,0v-18.2h-2.2c-0.8,0-1.4-0.6-1.4-1.4v0c0-0.8,0.6-1.4,1.4-1.4h6.4l0,3.5
			c0.8-1.3,1.8-2.2,3-2.9c1.2-0.7,2.6-1,4.1-1c2.6,0,4.5,0.8,6,2.3c1.4,1.5,2.1,3.8,2.1,7l0,12.2l2.2,0c0.8,0,1.4,0.6,1.4,1.4v0
			c0,0.8-0.6,1.4-1.4,1.4h-8.7c-0.8,0-1.4-0.6-1.4-1.4v0c0-0.8,0.6-1.4,1.4-1.4l2.2,0l0-12.2c0-2.1-0.4-3.6-1.2-4.5
			c-0.8-0.9-2.1-1.3-3.8-1.3c-1.2,0-2.3,0.3-3.3,0.9s-1.7,1.4-2.3,2.5l0,14.6l2.2,0c0.8,0,1.4,0.6,1.4,1.4v0c0,0.8-0.6,1.4-1.4,1.4
			h-8.7c-0.8,0-1.4-0.6-1.4-1.4v0C51.3,583.1,52,582.5,52.7,582.5z"/>
		<path class="st1" d="M100.2,564.2h-0.7l-9.1,24.6c-0.6,1.6-1.5,3-2.6,4.2s-2.6,1.8-4.5,1.8c-0.1,0-0.4,0-0.8-0.1
			c-1-0.1-1.7-1-1.5-2l0,0c0.1-0.9,0.9-1.6,1.9-1.6c0.1,0,0.2,0,0.3,0c0.9,0,1.7-0.4,2.2-1.2c0.6-0.8,1.1-1.7,1.5-2.8l1-2.5
			L80,564.2h-0.8c-0.8,0-1.4-0.6-1.4-1.4v0c0-0.8,0.6-1.4,1.4-1.4H86c0.8,0,1.4,0.6,1.4,1.4v0c0,0.8-0.6,1.4-1.4,1.4h-1.3l5,15.2
			l4.9-15.2h-1.3c-0.8,0-1.4-0.6-1.4-1.4v0c0-0.8,0.6-1.4,1.4-1.4h6.8c0.8,0,1.4,0.6,1.4,1.4v0C101.6,563.6,100.9,564.2,100.2,564.2
			z"/>
		<path class="st2" d="M122.2,582.4c-0.8,1.1-1.7,1.9-2.8,2.5s-2.4,0.8-3.9,0.8c-2.9,0-5.2-1.1-6.8-3.2c-1.6-2.1-2.4-4.9-2.4-8.3
			v-0.5c0-3.8,0.8-6.9,2.4-9.3s3.9-3.5,6.8-3.5c1.4,0,2.6,0.3,3.7,0.8c1.1,0.5,2,1.3,2.8,2.3l0-10.3l-2.2,0c-0.8,0-1.4-0.6-1.4-1.4
			v0c0-0.8,0.6-1.4,1.4-1.4h6.5l0,31.5l2.2,0c0.8,0,1.4,0.6,1.4,1.4v0c0,0.8-0.6,1.4-1.4,1.4h-6.3L122.2,582.4z M110.5,574.2
			c0,2.4,0.5,4.3,1.5,5.8c1,1.5,2.5,2.2,4.5,2.2c1.3,0,2.4-0.3,3.3-0.9s1.6-1.4,2.2-2.5v-11c-0.6-1-1.3-1.8-2.2-2.4s-2-0.9-3.2-0.9
			c-2.1,0-3.6,0.9-4.6,2.6c-1,1.7-1.5,3.9-1.5,6.7V574.2z"/>
		<path class="st2" d="M142.5,585.7c-3.3,0-5.9-1.1-7.9-3.3c-2-2.2-2.9-5.1-2.9-8.6v-1c0-3.4,1-6.2,3-8.4c2-2.2,4.4-3.4,7.2-3.4
			c3.2,0,5.6,1,7.3,2.9c1.6,1.9,2.5,4.5,2.5,7.7v2.7h-15.4l-0.1,0.1c0,2.3,0.6,4.2,1.7,5.6c1.1,1.5,2.7,2.2,4.7,2.2
			c1.5,0,2.8-0.2,3.9-0.6c0.6-0.2,1.2-0.5,1.8-0.9c0.6-0.4,1.5-0.2,1.9,0.5l0.3,0.5c0.4,0.6,0.2,1.4-0.4,1.8
			c-0.7,0.5-1.5,0.9-2.4,1.3C146.2,585.4,144.5,585.7,142.5,585.7z M141.9,564.4c-1.4,0-2.7,0.6-3.7,1.8c-1,1.2-1.7,2.8-1.9,4.6
			l0,0.1h11v-0.6c0-1.7-0.5-3.1-1.4-4.3S143.7,564.4,141.9,564.4z"/>
		<path class="st2" d="M166.2,582.3c1.4,0,2.7-0.4,3.8-1.3c0.7-0.6,1.2-1.3,1.5-2.1c0.2-0.7,0.9-1.2,1.6-1.2l0,0
			c1.1,0,1.9,1,1.7,2.1c-0.2,1.3-0.8,2.5-2,3.5c-1.9,1.6-4.1,2.4-6.6,2.4c-3.5,0-6.1-1.1-7.9-3.4c-1.8-2.3-2.7-5.1-2.7-8.5v-0.9
			c0-3.4,0.9-6.2,2.7-8.5c1.8-2.3,4.5-3.4,7.9-3.4c1.9,0,4.1,0.5,5.7,1.3c1.9,1,2.8,2.2,2.8,2.2l0,3.5c0,1-0.8,1.7-1.7,1.7l0,0
			c-1,0-1.7-0.8-1.7-1.7l0-2c-0.5-0.5-2.2-1.7-5-1.7c-2.3,0-3.9,0.8-4.9,2.5c-1,1.6-1.5,3.6-1.5,6v0.9c0,2.4,0.5,4.5,1.4,6.1
			C162.3,581.5,163.9,582.3,166.2,582.3z"/>
		<path class="st2" d="M180.3,582.5l2.2,0v-18.2h-2.2c-0.8,0-1.4-0.6-1.4-1.4v0c0-0.8,0.6-1.4,1.4-1.4h6.5l0,21l2.2,0
			c0.8,0,1.4,0.6,1.4,1.4v0c0,0.8-0.6,1.4-1.4,1.4h-8.7c-0.8,0-1.4-0.6-1.4-1.4v0C178.9,583.1,179.6,582.5,180.3,582.5z"/>
		<path class="st2" d="M209.8,568.9L209.8,568.9c-0.9,0-1.6-0.7-1.6-1.6l0-1.2c-0.5-0.5-2.8-1.6-5.1-1.6c-1.5,0-2.7,0.3-3.4,1
			c-0.7,0.7-1.1,1.5-1.1,2.4c0,0.9,0.3,1.7,1,2.2c0.7,0.5,2,1,4,1.5c3,0.6,5.2,1.5,6.7,2.6c1.5,1.1,2.2,2.6,2.2,4.4
			c0,2.1-0.9,3.8-2.6,5.1c-1.7,1.3-3.9,2-6.7,2c-1.8,0-3.4-0.2-4.9-0.6c-1.4-0.4-2.7-1-3.8-1.8l0-3.8c0-0.9,0.7-1.6,1.6-1.6l0,0
			c0.9,0,1.6,0.7,1.6,1.6l0,1.6c0.5,0.5,2,0.8,2.8,1c0.9,0.2,1.7,0.3,2.6,0.3c1.5,0,2.7-0.3,3.6-0.9c0.9-0.6,1.3-1.4,1.3-2.5
			c0-1-0.4-1.7-1.1-2.4c-0.7-0.6-2.1-1.2-4.1-1.6c-2.9-0.6-5.1-1.5-6.5-2.6s-2.2-2.5-2.2-4.4c0-1.9,0.8-3.6,2.5-4.9
			c1.6-1.4,3.8-2,6.4-2c1.8,0,3.9,0.2,5.5,1c1.7,0.8,2.9,1.9,2.9,1.9l0,3.4C211.4,568.2,210.7,568.9,209.8,568.9z"/>
		<path class="st2" d="M217.6,582.5l2.2,0v-18.2h-2.2c-0.8,0-1.4-0.6-1.4-1.4v0c0-0.8,0.6-1.4,1.4-1.4h6.5l0,21l2.2,0
			c0.8,0,1.4,0.6,1.4,1.4v0c0,0.8-0.6,1.4-1.4,1.4h-8.7c-0.8,0-1.4-0.6-1.4-1.4v0C216.2,583.1,216.9,582.5,217.6,582.5z"/>
		<path class="st2" d="M230.4,573.1c0-3.5,1-6.4,2.9-8.7c1.9-2.3,4.5-3.4,7.8-3.4c3.3,0,5.9,1.1,7.8,3.4c1.9,2.3,2.9,5.2,2.9,8.7
			v0.5c0,3.5-1,6.4-2.9,8.7s-4.5,3.4-7.8,3.4c-3.3,0-5.9-1.1-7.8-3.4c-1.9-2.3-2.9-5.2-2.9-8.7V573.1z M234.7,573.6
			c0,2.5,0.5,4.6,1.6,6.2c1.1,1.6,2.6,2.5,4.7,2.5c2,0,3.6-0.8,4.7-2.5s1.6-3.7,1.6-6.2v-0.5c0-2.5-0.5-4.6-1.6-6.2
			s-2.6-2.5-4.7-2.5s-3.6,0.8-4.7,2.5s-1.6,3.7-1.6,6.2V573.6z"/>
		<path class="st2" d="M255.2,582.5l2.2,0v-18.2h-2.2c-0.8,0-1.4-0.6-1.4-1.4v0c0-0.8,0.6-1.4,1.4-1.4h6.4l0,3.5
			c0.8-1.3,1.8-2.2,3-2.9c1.2-0.7,2.6-1,4.1-1c2.6,0,4.5,0.8,6,2.3c1.4,1.5,2.1,3.8,2.1,7l0,12.2l2.2,0c0.8,0,1.4,0.6,1.4,1.4v0
			c0,0.8-0.6,1.4-1.4,1.4h-8.7c-0.8,0-1.4-0.6-1.4-1.4v0c0-0.8,0.6-1.4,1.4-1.4l2.2,0l0-12.2c0-2.1-0.4-3.6-1.2-4.5
			c-0.8-0.9-2.1-1.3-3.8-1.3c-1.2,0-2.3,0.3-3.3,0.9c-1,0.6-1.7,1.4-2.3,2.5l0,14.6l2.2,0c0.8,0,1.4,0.6,1.4,1.4v0
			c0,0.8-0.6,1.4-1.4,1.4h-8.7c-0.8,0-1.4-0.6-1.4-1.4v0C253.8,583.1,254.4,582.5,255.2,582.5z"/>
	</g>
	<g>
		<path class="st1" d="M1.2,559.4l-7.7-8.8c-0.5-0.5-1.2-0.5-1.7,0l-7.7,8.9c-0.7,0.8-0.2,2,0.9,2l3,0c-0.4,5,1.7,8.4,4.6,10.7h4.2
			l0-10.8l3.5,0C1.4,561.5,1.9,560.2,1.2,559.4z"/>
		<path class="st2" d="M7.4,556.3l-11.7,0.9c-1.1,0-1.6,1.3-0.8,2l2.2,2.1c-3.8,3.3-4.8,7.1-4.3,10.9l2.9,2.9l7.6-7.6l2.5,2.5
			c0.8,0.7,2,0.2,2-0.9l0.8-11.7C8.5,556.8,8,556.3,7.4,556.3z"/>
		<path class="st1" d="M14.3,571.4l-8.9-7.7c-0.8-0.8-2-0.2-2,0.9l0,3c-5-0.4-8.4,1.7-10.7,4.6l0,4.2H3.4l0,3.5c0,1.1,1.3,1.6,2,0.8
			l8.8-7.7C14.8,572.6,14.8,571.8,14.3,571.4z"/>
		<path class="st2" d="M7.7,575.2c0-1.1-1.3-1.6-2-0.8l-2.1,2.2c-3.3-3.8-7.1-4.8-10.9-4.3l-2.9,2.9l7.6,7.6l-2.5,2.5
			c-0.8,0.8-0.2,2,0.9,2l11.7,0.8c0.7,0,1.2-0.5,1.2-1.2L7.7,575.2z"/>
		<path class="st1" d="M0.3,583l-3,0c0.4-5-1.7-8.4-4.6-10.7l-4.2,0l0,10.8l-3.5,0c-1.1,0-1.6,1.3-0.8,2l7.7,8.8
			c0.5,0.5,1.2,0.5,1.7,0l7.7-8.9C1.9,584.3,1.4,583,0.3,583z"/>
		<path class="st2" d="M-11.6,583.1c3.8-3.3,4.8-7.1,4.3-10.9l-2.9-2.9l-7.6,7.6l-2.5-2.5c-0.8-0.7-2-0.2-2,0.9l-0.8,11.7
			c0,0.7,0.5,1.2,1.2,1.2l11.7-0.9c1.1,0,1.6-1.3,0.8-2L-11.6,583.1z"/>
		<path class="st1" d="M-7.3,569l0-0.9h-10.8l0-3.5c0-1.1-1.3-1.6-2-0.8l-8.8,7.7c-0.5,0.5-0.5,1.2,0,1.7l8.9,7.7
			c0.8,0.7,2,0.2,2-0.9l0-3c5,0.4,8.4-1.7,10.7-4.6C-7.5,571.2-7.5,570.1-7.3,569z"/>
		<path class="st2" d="M-12,561.7L-12,561.7L-12,561.7c0-0.1,0-0.1,0-0.2l-3,0c-1.1,0-1.6-1.3-0.9-2l2.2-2.6l-8.4-0.6
			c-0.7,0-1.2,0.5-1.2,1.2l0.9,11.7c0,1.1,1.3,1.6,2,0.8l2.1-2.2c3.3,3.8,7.1,4.8,10.9,4.3C-10.3,569.9-12.3,566.6-12,561.7z"/>
	</g>
	<path class="st2" d="M184.7,555.4L184.7,555.4c-1.2,0-2.2-1-2.2-2.2v-0.1c0-1.2,1-2.2,2.2-2.2h0c1.2,0,2.2,1,2.2,2.2v0.1
		C186.8,554.4,185.9,555.4,184.7,555.4z"/>
	<path class="st2" d="M222,555.4L222,555.4c-1.2,0-2.2-1-2.2-2.2v-0.1c0-1.2,1-2.2,2.2-2.2l0,0c1.2,0,2.2,1,2.2,2.2v0.1
		C224.1,554.4,223.2,555.4,222,555.4z"/>
	<g>
		<rect x="305.2" y="-9" class="st0" width="332.4" height="68"/>
		<g>
			<path class="st1" d="M388.7,37.3l0-3.3c-0.8,1.1-1.9,2-3.1,2.7c-1.3,0.7-2.6,1.1-4,1.1c-2.5,0-4.4-0.6-5.6-1.8
				c-1.3-1.2-1.9-2.9-1.9-5.1c0-2.3,0.9-4,2.7-5.2c1.8-1.2,4.3-1.8,7.5-1.8h4.5v-2.8c0-1.4-0.4-2.5-1.3-3.3
				c-0.9-0.8-2.1-1.2-3.7-1.2c-1.1,0-2,0.1-2.9,0.4c-0.8,0.3-1.5,0.7-2,1.1l0,1.1c0,0.8-0.6,1.4-1.4,1.4h-1c-0.8,0-1.4-0.6-1.4-1.4
				V16c1.1-0.9,2.4-1.6,3.9-2.1c1.5-0.5,3.2-0.8,5-0.8c2.7,0,4.9,0.7,6.5,2.1s2.5,3.3,2.5,5.9l0,13.5l0.4,0c0.8,0,1.4,0.6,1.4,1.4v0
				c0,0.8-0.6,1.4-1.4,1.4H388.7z M382.2,34.2c1.4,0,2.7-0.3,3.9-1s2-1.5,2.5-2.5v-3.9h-4.6c-1.8,0-3.2,0.4-4.2,1.2
				c-1,0.8-1.5,1.8-1.5,3c0,1,0.3,1.8,1,2.4C380,33.9,380.9,34.2,382.2,34.2z"/>
			<path class="st1" d="M397.9,34.6l2.2,0V16.4l-2.2,0c-0.8,0-1.4-0.6-1.4-1.4v0c0-0.8,0.6-1.4,1.4-1.4h6.4l0,3.5
				c0.8-1.3,1.8-2.2,3-2.9c1.2-0.7,2.6-1,4.1-1c2.6,0,4.5,0.8,6,2.3c1.4,1.5,2.1,3.8,2.1,7l0,12.2l2.2,0c0.8,0,1.4,0.6,1.4,1.4v0
				c0,0.8-0.6,1.4-1.4,1.4h-8.7c-0.8,0-1.4-0.6-1.4-1.4v0c0-0.8,0.6-1.4,1.4-1.4l2.2,0l0-12.2c0-2.1-0.4-3.6-1.2-4.5
				c-0.8-0.9-2.1-1.3-3.8-1.3c-1.2,0-2.3,0.3-3.3,0.9S405,19,404.4,20l0,14.6l2.2,0c0.8,0,1.4,0.6,1.4,1.4v0c0,0.8-0.6,1.4-1.4,1.4
				h-8.7c-0.8,0-1.4-0.6-1.4-1.4v0C396.5,35.2,397.2,34.6,397.9,34.6z"/>
			<path class="st1" d="M469.7,34.5c-0.8,1.1-1.7,1.9-2.8,2.5s-2.4,0.8-3.9,0.8c-2.9,0-5.2-1.1-6.8-3.2c-1.6-2.1-2.4-4.9-2.4-8.3
				v-0.5c0-3.8,0.8-6.9,2.4-9.3s3.9-3.5,6.8-3.5c1.4,0,2.6,0.3,3.7,0.8c1.1,0.5,2,1.3,2.8,2.3l0-10.3l-2.2,0c-0.8,0-1.4-0.6-1.4-1.4
				v0c0-0.8,0.6-1.4,1.4-1.4h6.5l0,31.5l2.2,0c0.8,0,1.4,0.6,1.4,1.4l0,0c0,0.8-0.6,1.4-1.4,1.4h-6.3L469.7,34.5z M458,26.4
				c0,2.4,0.5,4.3,1.5,5.8c1,1.5,2.5,2.2,4.5,2.2c1.3,0,2.4-0.3,3.3-0.9s1.6-1.4,2.2-2.5v-11c-0.6-1-1.3-1.8-2.2-2.4s-2-0.9-3.2-0.9
				c-2.1,0-3.6,0.9-4.6,2.6c-1,1.7-1.5,3.9-1.5,6.7V26.4z"/>
			<path class="st1" d="M489,37.8c-3.3,0-5.9-1.1-7.9-3.3c-2-2.2-2.9-5.1-2.9-8.6v-1c0-3.4,1-6.2,3-8.4c2-2.2,4.4-3.4,7.2-3.4
				c3.2,0,5.6,1,7.3,2.9c1.6,1.9,2.5,4.5,2.5,7.7v2.7h-15.4l-0.1,0.1c0,2.3,0.6,4.2,1.7,5.6c1.1,1.5,2.7,2.2,4.7,2.2
				c1.5,0,2.8-0.2,3.9-0.6c0.6-0.2,1.2-0.5,1.8-0.9c0.6-0.4,1.5-0.2,1.9,0.5l0.3,0.5c0.4,0.6,0.2,1.4-0.4,1.8
				c-0.7,0.5-1.5,0.9-2.4,1.3C492.7,37.5,491,37.8,489,37.8z M488.4,16.5c-1.4,0-2.7,0.6-3.7,1.8c-1,1.2-1.7,2.8-1.9,4.6l0,0.1h11
				v-0.6c0-1.7-0.5-3.1-1.4-4.3S490.2,16.5,488.4,16.5z"/>
			<path class="st1" d="M511.7,34.4c1.4,0,2.7-0.4,3.8-1.3c0.7-0.6,1.2-1.3,1.5-2.1c0.2-0.7,0.9-1.2,1.6-1.2l0,0
				c1.1,0,1.9,1,1.7,2.1c-0.2,1.3-0.8,2.5-2,3.5c-1.9,1.6-4.1,2.4-6.6,2.4c-3.5,0-6.1-1.1-7.9-3.4c-1.8-2.3-2.7-5.1-2.7-8.5V25
				c0-3.4,0.9-6.2,2.7-8.5c1.8-2.3,4.5-3.4,7.9-3.4c1.9,0,4.1,0.5,5.7,1.3c1.9,1,2.8,2.2,2.8,2.2l0,3.5c0,1-0.8,1.7-1.7,1.7l0,0
				c-1,0-1.7-0.8-1.7-1.7l0-2c-0.5-0.5-2.2-1.7-5-1.7c-2.3,0-3.9,0.8-4.9,2.5c-1,1.6-1.5,3.6-1.5,6v0.9c0,2.4,0.5,4.5,1.4,6.1
				C507.8,33.6,509.4,34.4,511.7,34.4z"/>
			<path class="st1" d="M524.8,34.6l2.2,0V16.4l-2.2,0c-0.8,0-1.4-0.6-1.4-1.4v0c0-0.8,0.6-1.4,1.4-1.4h6.5l0,21l2.2,0
				c0.8,0,1.4,0.6,1.4,1.4l0,0c0,0.8-0.6,1.4-1.4,1.4h-8.7c-0.8,0-1.4-0.6-1.4-1.4l0,0C523.4,35.2,524.1,34.6,524.8,34.6z"/>
			<path class="st1" d="M553.3,21L553.3,21c-0.9,0-1.6-0.7-1.6-1.6l0-1.2c-0.5-0.5-2.8-1.6-5.1-1.6c-1.5,0-2.7,0.3-3.4,1
				c-0.7,0.7-1.1,1.5-1.1,2.4c0,0.9,0.3,1.7,1,2.2c0.7,0.5,2,1,4,1.5c3,0.6,5.2,1.5,6.7,2.6c1.5,1.1,2.2,2.6,2.2,4.4
				c0,2.1-0.9,3.8-2.6,5.1c-1.7,1.3-3.9,2-6.7,2c-1.8,0-3.4-0.2-4.9-0.6c-1.4-0.4-2.7-1-3.8-1.8l0-3.8c0-0.9,0.7-1.6,1.6-1.6l0,0
				c0.9,0,1.6,0.7,1.6,1.6v1.6c0.5,0.5,2,0.8,2.8,1c0.9,0.2,1.7,0.3,2.6,0.3c1.5,0,2.7-0.3,3.6-0.9c0.9-0.6,1.3-1.4,1.3-2.5
				c0-1-0.4-1.7-1.1-2.4c-0.7-0.6-2.1-1.2-4.1-1.6c-2.9-0.6-5.1-1.5-6.5-2.6s-2.2-2.5-2.2-4.4c0-1.9,0.8-3.6,2.5-4.9
				c1.6-1.4,3.8-2,6.4-2c1.8,0,3.9,0.2,5.5,1c1.7,0.8,2.9,1.9,2.9,1.9l0,3.4C554.9,20.3,554.2,21,553.3,21z"/>
			<path class="st1" d="M560.1,34.6l2.2,0V16.4l-2.2,0c-0.8,0-1.4-0.6-1.4-1.4v0c0-0.8,0.6-1.4,1.4-1.4h6.5l0,21l2.2,0
				c0.8,0,1.4,0.6,1.4,1.4l0,0c0,0.8-0.6,1.4-1.4,1.4h-8.7c-0.8,0-1.4-0.6-1.4-1.4l0,0C558.7,35.2,559.4,34.6,560.1,34.6z"/>
			<path class="st1" d="M571.9,25.2c0-3.5,1-6.4,2.9-8.7c1.9-2.3,4.5-3.4,7.8-3.4c3.3,0,5.9,1.1,7.8,3.4c1.9,2.3,2.9,5.2,2.9,8.7
				v0.5c0,3.5-1,6.4-2.9,8.7s-4.5,3.4-7.8,3.4c-3.3,0-5.9-1.1-7.8-3.4c-1.9-2.3-2.9-5.2-2.9-8.7V25.2z M576.2,25.7
				c0,2.5,0.5,4.6,1.6,6.2c1.1,1.6,2.6,2.5,4.7,2.5c2,0,3.6-0.8,4.7-2.5s1.6-3.7,1.6-6.2v-0.5c0-2.5-0.5-4.6-1.6-6.2
				s-2.6-2.5-4.7-2.5s-3.6,0.8-4.7,2.5s-1.6,3.7-1.6,6.2V25.7z"/>
			<path class="st1" d="M595.7,34.6l2.2,0V16.4l-2.2,0c-0.8,0-1.4-0.6-1.4-1.4v0c0-0.8,0.6-1.4,1.4-1.4h6.4l0,3.5
				c0.8-1.3,1.8-2.2,3-2.9c1.2-0.7,2.6-1,4.1-1c2.6,0,4.5,0.8,6,2.3c1.4,1.5,2.1,3.8,2.1,7l0,12.2l2.2,0c0.8,0,1.4,0.6,1.4,1.4l0,0
				c0,0.8-0.6,1.4-1.4,1.4h-8.7c-0.8,0-1.4-0.6-1.4-1.4l0,0c0-0.8,0.6-1.4,1.4-1.4l2.2,0l0-12.2c0-2.1-0.4-3.6-1.2-4.5
				c-0.8-0.9-2.1-1.3-3.8-1.3c-1.2,0-2.3,0.3-3.3,0.9c-1,0.6-1.7,1.4-2.3,2.5l0,14.6l2.2,0c0.8,0,1.4,0.6,1.4,1.4l0,0
				c0,0.8-0.6,1.4-1.4,1.4h-8.7c-0.8,0-1.4-0.6-1.4-1.4l0,0C594.3,35.2,594.9,34.6,595.7,34.6z"/>
			<path class="st1" d="M529.2,7.5L529.2,7.5c-1.2,0-2.2-1-2.2-2.2V5.2c0-1.2,1-2.2,2.2-2.2l0,0c1.2,0,2.2,1,2.2,2.2v0.1
				C531.3,6.5,530.4,7.5,529.2,7.5z"/>
			<path class="st1" d="M564.5,7.5L564.5,7.5c-1.2,0-2.2-1-2.2-2.2V5.2c0-1.2,1-2.2,2.2-2.2l0,0c1.2,0,2.2,1,2.2,2.2v0.1
				C566.6,6.5,565.7,7.5,564.5,7.5z"/>
			<path class="st1" d="M443.7,13.6h-6.5c-0.8,0-1.4,0.6-1.4,1.4v0c0,0.8,0.6,1.4,1.4,1.4l0.6,0c0.7,0,1,0.7,0.6,1.7l-4.7,12.5
				c-0.3,0.6-0.8,0.6-1.1,0L428,18c-0.5-1.2,0-1.7,0.7-1.7h0.5c0.8,0,1.4-0.6,1.4-1.4v0c0-0.8-0.6-1.4-1.4-1.4h-6.5
				c-0.8,0-1.4,0.6-1.4,1.4v0c0,0.8,0.6,1.4,1.4,1.4l0.8,0l7.8,20.5l-1,2.5c-0.4,1-0.9,2-1.5,2.8c-0.6,0.8-1.3,1.2-2.2,1.2
				c0,0-0.1,0-0.2,0c-0.9,0-1.7,0.5-1.9,1.3c-0.3,1.1,0.4,2.1,1.5,2.3c0.4,0.1,0.7,0.1,0.8,0.1c1.9,0,3.4-0.6,4.5-1.8s2-2.6,2.6-4.2
				l9.1-24.6l0.7,0c0.8,0,1.4-0.6,1.4-1.4v0C445.1,14.2,444.4,13.6,443.7,13.6z"/>
		</g>
		<g>
			<path class="st1" d="M347.7,12.2L340,3.3c-0.5-0.5-1.2-0.5-1.7,0l-7.7,8.9c-0.7,0.8-0.2,2,0.9,2l3,0c-0.4,5,1.7,8.4,4.6,10.7h4.2
				V14.2l3.5,0C347.9,14.2,348.4,12.9,347.7,12.2z"/>
			<path class="st2" d="M353.9,9.1l-11.7,0.9c-1.1,0-1.6,1.3-0.8,2l2.2,2.1c-3.8,3.3-4.8,7.1-4.3,10.9l2.9,2.9l7.6-7.6l2.5,2.5
				c0.8,0.7,2,0.2,2-0.9l0.8-11.7C355,9.6,354.5,9.1,353.9,9.1z"/>
			<path class="st1" d="M360.8,24.1l-8.9-7.7c-0.8-0.7-2-0.2-2,0.9l0,3c-5-0.4-8.4,1.7-10.7,4.6v4.2l10.8,0l0,3.5
				c0,1.1,1.3,1.6,2,0.8l8.8-7.7C361.3,25.3,361.3,24.6,360.8,24.1z"/>
			<path class="st2" d="M354.2,28c0-1.1-1.3-1.6-2-0.8l-2.1,2.2c-3.3-3.8-7.1-4.8-10.9-4.3l-2.9,2.9l7.6,7.6l-2.5,2.5
				c-0.8,0.8-0.2,2,0.9,2l11.7,0.8c0.7,0,1.2-0.5,1.2-1.2L354.2,28z"/>
			<path class="st1" d="M346.8,35.7l-3,0c0.4-5-1.7-8.4-4.6-10.7l-4.2,0v10.8l-3.5,0c-1.1,0-1.6,1.3-0.8,2l7.7,8.8
				c0.5,0.5,1.2,0.5,1.7,0l7.7-8.9C348.4,37,347.9,35.7,346.8,35.7z"/>
			<path class="st2" d="M334.9,35.9c3.8-3.3,4.8-7.1,4.3-10.9l-2.9-2.9l-7.6,7.6l-2.5-2.5c-0.8-0.7-2-0.2-2,0.9l-0.8,11.7
				c0,0.7,0.5,1.2,1.2,1.2l11.7-0.9c1.1,0,1.6-1.3,0.8-2L334.9,35.9z"/>
			<path class="st1" d="M339.2,21.7v-0.9l-10.8,0l0-3.5c0-1.1-1.3-1.6-2-0.8l-8.8,7.7c-0.5,0.5-0.5,1.2,0,1.7l8.9,7.7
				c0.8,0.7,2,0.2,2-0.9l0-3c5,0.4,8.4-1.7,10.7-4.6C339,23.9,339,22.8,339.2,21.7z"/>
			<path class="st2" d="M334.5,14.5L334.5,14.5L334.5,14.5c0-0.1,0-0.1,0-0.2l-3,0c-1.1,0-1.6-1.3-0.9-2l2.2-2.6l-8.4-0.6
				c-0.7,0-1.2,0.5-1.2,1.2l0.9,11.7c0,1.1,1.3,1.6,2,0.8l2.1-2.2c3.3,3.8,7.1,4.8,10.9,4.3C336.2,22.7,334.2,19.4,334.5,14.5z"/>
		</g>
	</g>
	<rect x="305.2" y="-88" class="st0" width="332.4" height="68"/>
	<g>
		<path class="st1" d="M388.7-41.7l0-3.3c-0.8,1.1-1.9,2-3.1,2.7c-1.3,0.7-2.6,1.1-4,1.1c-2.5,0-4.4-0.6-5.6-1.8
			c-1.3-1.2-1.9-2.9-1.9-5.1c0-2.3,0.9-4,2.7-5.2c1.8-1.2,4.3-1.8,7.5-1.8h4.5v-2.8c0-1.4-0.4-2.5-1.3-3.3c-0.9-0.8-2.1-1.2-3.7-1.2
			c-1.1,0-2,0.1-2.9,0.4c-0.8,0.3-1.5,0.7-2,1.1l0,1.1c0,0.8-0.6,1.4-1.4,1.4h-1c-0.8,0-1.4-0.6-1.4-1.4V-63
			c1.1-0.9,2.4-1.6,3.9-2.1c1.5-0.5,3.2-0.8,5-0.8c2.7,0,4.9,0.7,6.5,2.1s2.5,3.3,2.5,5.9l0,13.5l0.4,0c0.8,0,1.4,0.6,1.4,1.4v0
			c0,0.8-0.6,1.4-1.4,1.4H388.7z M382.2-44.8c1.4,0,2.7-0.3,3.9-1s2-1.5,2.5-2.5v-3.9h-4.6c-1.8,0-3.2,0.4-4.2,1.2
			c-1,0.8-1.5,1.8-1.5,3c0,1,0.3,1.8,1,2.4C380-45.1,380.9-44.8,382.2-44.8z"/>
		<path class="st1" d="M397.9-44.4l2.2,0v-18.2l-2.2,0c-0.8,0-1.4-0.6-1.4-1.4v0c0-0.8,0.6-1.4,1.4-1.4h6.4l0,3.5
			c0.8-1.3,1.8-2.2,3-2.9c1.2-0.7,2.6-1,4.1-1c2.6,0,4.5,0.8,6,2.3c1.4,1.5,2.1,3.8,2.1,7l0,12.2l2.2,0c0.8,0,1.4,0.6,1.4,1.4v0
			c0,0.8-0.6,1.4-1.4,1.4h-8.7c-0.8,0-1.4-0.6-1.4-1.4v0c0-0.8,0.6-1.4,1.4-1.4l2.2,0l0-12.2c0-2.1-0.4-3.6-1.2-4.5
			c-0.8-0.9-2.1-1.3-3.8-1.3c-1.2,0-2.3,0.3-3.3,0.9S405-60,404.4-59l0,14.6l2.2,0c0.8,0,1.4,0.6,1.4,1.4v0c0,0.8-0.6,1.4-1.4,1.4
			h-8.7c-0.8,0-1.4-0.6-1.4-1.4v0C396.5-43.8,397.2-44.4,397.9-44.4z"/>
		<path class="st2" d="M454.7-44.5c-0.8,1.1-1.7,1.9-2.8,2.5s-2.4,0.8-3.9,0.8c-2.9,0-5.2-1.1-6.8-3.2c-1.6-2.1-2.4-4.9-2.4-8.3
			v-0.5c0-3.8,0.8-6.9,2.4-9.3s3.9-3.5,6.8-3.5c1.4,0,2.6,0.3,3.7,0.8c1.1,0.5,2,1.3,2.8,2.3l0-10.3l-2.2,0c-0.8,0-1.4-0.6-1.4-1.4
			v0c0-0.8,0.6-1.4,1.4-1.4h6.5l0,31.5l2.2,0c0.8,0,1.4,0.6,1.4,1.4l0,0c0,0.8-0.6,1.4-1.4,1.4h-6.3L454.7-44.5z M443-52.6
			c0,2.4,0.5,4.3,1.5,5.8c1,1.5,2.5,2.2,4.5,2.2c1.3,0,2.4-0.3,3.3-0.9s1.6-1.4,2.2-2.5v-11c-0.6-1-1.3-1.8-2.2-2.4s-2-0.9-3.2-0.9
			c-2.1,0-3.6,0.9-4.6,2.6c-1,1.7-1.5,3.9-1.5,6.7V-52.6z"/>
		<path class="st2" d="M474-41.2c-3.3,0-5.9-1.1-7.9-3.3c-2-2.2-2.9-5.1-2.9-8.6v-1c0-3.4,1-6.2,3-8.4c2-2.2,4.4-3.4,7.2-3.4
			c3.2,0,5.6,1,7.3,2.9c1.6,1.9,2.5,4.5,2.5,7.7v2.7h-15.4l-0.1,0.1c0,2.3,0.6,4.2,1.7,5.6c1.1,1.5,2.7,2.2,4.7,2.2
			c1.5,0,2.8-0.2,3.9-0.6c0.6-0.2,1.2-0.5,1.8-0.9c0.6-0.4,1.5-0.2,1.9,0.5l0.3,0.5c0.4,0.6,0.2,1.4-0.4,1.8
			c-0.7,0.5-1.5,0.9-2.4,1.3C477.7-41.5,476-41.2,474-41.2z M473.4-62.5c-1.4,0-2.7,0.6-3.7,1.8c-1,1.2-1.7,2.8-1.9,4.6l0,0.1h11
			v-0.6c0-1.7-0.5-3.1-1.4-4.3S475.2-62.5,473.4-62.5z"/>
		<path class="st2" d="M496.7-44.6c1.4,0,2.7-0.4,3.8-1.3c0.7-0.6,1.2-1.3,1.5-2.1c0.2-0.7,0.9-1.2,1.6-1.2l0,0c1.1,0,1.9,1,1.7,2.1
			c-0.2,1.3-0.8,2.5-2,3.5c-1.9,1.6-4.1,2.4-6.6,2.4c-3.5,0-6.1-1.1-7.9-3.4c-1.8-2.3-2.7-5.1-2.7-8.5V-54c0-3.4,0.9-6.2,2.7-8.5
			c1.8-2.3,4.5-3.4,7.9-3.4c1.9,0,4.1,0.5,5.7,1.3c1.9,1,2.8,2.2,2.8,2.2l0,3.5c0,1-0.8,1.7-1.7,1.7l0,0c-1,0-1.7-0.8-1.7-1.7l0-2
			c-0.5-0.5-2.2-1.7-5-1.7c-2.3,0-3.9,0.8-4.9,2.5c-1,1.6-1.5,3.6-1.5,6v0.9c0,2.4,0.5,4.5,1.4,6.1
			C492.8-45.4,494.4-44.6,496.7-44.6z"/>
		<path class="st2" d="M509.8-44.4l2.2,0v-18.2l-2.2,0c-0.8,0-1.4-0.6-1.4-1.4v0c0-0.8,0.6-1.4,1.4-1.4h6.5l0,21l2.2,0
			c0.8,0,1.4,0.6,1.4,1.4l0,0c0,0.8-0.6,1.4-1.4,1.4h-8.7c-0.8,0-1.4-0.6-1.4-1.4l0,0C508.4-43.8,509.1-44.4,509.8-44.4z"/>
		<path class="st2" d="M538.3-58L538.3-58c-0.9,0-1.6-0.7-1.6-1.6l0-1.2c-0.5-0.5-2.8-1.6-5.1-1.6c-1.5,0-2.7,0.3-3.4,1
			c-0.7,0.7-1.1,1.5-1.1,2.4c0,0.9,0.3,1.7,1,2.2c0.7,0.5,2,1,4,1.5c3,0.6,5.2,1.5,6.7,2.6c1.5,1.1,2.2,2.6,2.2,4.4
			c0,2.1-0.9,3.8-2.6,5.1c-1.7,1.3-3.9,2-6.7,2c-1.8,0-3.4-0.2-4.9-0.6c-1.4-0.4-2.7-1-3.8-1.8l0-3.8c0-0.9,0.7-1.6,1.6-1.6l0,0
			c0.9,0,1.6,0.7,1.6,1.6v1.6c0.5,0.5,2,0.8,2.8,1c0.9,0.2,1.7,0.3,2.6,0.3c1.5,0,2.7-0.3,3.6-0.9c0.9-0.6,1.3-1.4,1.3-2.5
			c0-1-0.4-1.7-1.1-2.4c-0.7-0.6-2.1-1.2-4.1-1.6c-2.9-0.6-5.1-1.5-6.5-2.6s-2.2-2.5-2.2-4.4c0-1.9,0.8-3.6,2.5-4.9
			c1.6-1.4,3.8-2,6.4-2c1.8,0,3.9,0.2,5.5,1c1.7,0.8,2.9,1.9,2.9,1.9l0,3.4C539.9-58.7,539.2-58,538.3-58z"/>
		<path class="st2" d="M545.1-44.4l2.2,0v-18.2l-2.2,0c-0.8,0-1.4-0.6-1.4-1.4v0c0-0.8,0.6-1.4,1.4-1.4h6.5l0,21l2.2,0
			c0.8,0,1.4,0.6,1.4,1.4l0,0c0,0.8-0.6,1.4-1.4,1.4h-8.7c-0.8,0-1.4-0.6-1.4-1.4l0,0C543.7-43.8,544.4-44.4,545.1-44.4z"/>
		<path class="st2" d="M556.9-53.8c0-3.5,1-6.4,2.9-8.7c1.9-2.3,4.5-3.4,7.8-3.4c3.3,0,5.9,1.1,7.8,3.4c1.9,2.3,2.9,5.2,2.9,8.7v0.5
			c0,3.5-1,6.4-2.9,8.7s-4.5,3.4-7.8,3.4c-3.3,0-5.9-1.1-7.8-3.4c-1.9-2.3-2.9-5.2-2.9-8.7V-53.8z M561.2-53.3
			c0,2.5,0.5,4.6,1.6,6.2c1.1,1.6,2.6,2.5,4.7,2.5c2,0,3.6-0.8,4.7-2.5s1.6-3.7,1.6-6.2v-0.5c0-2.5-0.5-4.6-1.6-6.2
			s-2.6-2.5-4.7-2.5s-3.6,0.8-4.7,2.5s-1.6,3.7-1.6,6.2V-53.3z"/>
		<path class="st2" d="M580.7-44.4l2.2,0v-18.2l-2.2,0c-0.8,0-1.4-0.6-1.4-1.4v0c0-0.8,0.6-1.4,1.4-1.4h6.4l0,3.5
			c0.8-1.3,1.8-2.2,3-2.9c1.2-0.7,2.6-1,4.1-1c2.6,0,4.5,0.8,6,2.3c1.4,1.5,2.1,3.8,2.1,7l0,12.2l2.2,0c0.8,0,1.4,0.6,1.4,1.4l0,0
			c0,0.8-0.6,1.4-1.4,1.4h-8.7c-0.8,0-1.4-0.6-1.4-1.4l0,0c0-0.8,0.6-1.4,1.4-1.4l2.2,0l0-12.2c0-2.1-0.4-3.6-1.2-4.5
			c-0.8-0.9-2.1-1.3-3.8-1.3c-1.2,0-2.3,0.3-3.3,0.9c-1,0.6-1.7,1.4-2.3,2.5l0,14.6l2.2,0c0.8,0,1.4,0.6,1.4,1.4l0,0
			c0,0.8-0.6,1.4-1.4,1.4h-8.7c-0.8,0-1.4-0.6-1.4-1.4l0,0C579.3-43.8,579.9-44.4,580.7-44.4z"/>
		<path class="st2" d="M514.2-71.5L514.2-71.5c-1.2,0-2.2-1-2.2-2.2v-0.1c0-1.2,1-2.2,2.2-2.2l0,0c1.2,0,2.2,1,2.2,2.2v0.1
			C516.3-72.5,515.4-71.5,514.2-71.5z"/>
		<path class="st2" d="M549.5-71.5L549.5-71.5c-1.2,0-2.2-1-2.2-2.2v-0.1c0-1.2,1-2.2,2.2-2.2l0,0c1.2,0,2.2,1,2.2,2.2v0.1
			C551.6-72.5,550.7-71.5,549.5-71.5z"/>
		<path class="st1" d="M443.7-65.4h-6.5c-0.8,0-1.4,0.6-1.4,1.4v0c0,0.8,0.6,1.4,1.4,1.4l0.6,0c0.7,0,1,0.7,0.6,1.7l-4.7,12.5
			c-0.3,0.6-0.8,0.6-1.1,0L428-61c-0.5-1.2,0-1.7,0.7-1.7h0.5c0.8,0,1.4-0.6,1.4-1.4l0,0c0-0.8-0.6-1.4-1.4-1.4h-6.5
			c-0.8,0-1.4,0.6-1.4,1.4v0c0,0.8,0.6,1.4,1.4,1.4l0.8,0l7.8,20.5l-1,2.5c-0.4,1-0.9,2-1.5,2.8c-0.6,0.8-1.3,1.2-2.2,1.2
			c0,0-0.1,0-0.2,0c-0.9,0-1.7,0.5-1.9,1.3c-0.3,1.1,0.4,2.1,1.5,2.3c0.4,0.1,0.7,0.1,0.8,0.1c1.9,0,3.4-0.6,4.5-1.8s2-2.6,2.6-4.2
			l9.1-24.6l0.7,0c0.8,0,1.4-0.6,1.4-1.4v0C445.1-64.8,444.4-65.4,443.7-65.4z"/>
	</g>
	<g>
		<path class="st1" d="M347.7-66.8l-7.7-8.8c-0.5-0.5-1.2-0.5-1.7,0l-7.7,8.9c-0.7,0.8-0.2,2,0.9,2l3,0c-0.4,5,1.7,8.4,4.6,10.7h4.2
			v-10.8l3.5,0C347.9-64.8,348.4-66.1,347.7-66.8z"/>
		<path class="st2" d="M353.9-69.9l-11.7,0.9c-1.1,0-1.6,1.3-0.8,2l2.2,2.1c-3.8,3.3-4.8,7.1-4.3,10.9l2.9,2.9l7.6-7.6l2.5,2.5
			c0.8,0.7,2,0.2,2-0.9l0.8-11.7C355-69.4,354.5-69.9,353.9-69.9z"/>
		<path class="st1" d="M360.8-54.9l-8.9-7.7c-0.8-0.7-2-0.2-2,0.9l0,3c-5-0.4-8.4,1.7-10.7,4.6v4.2h10.8l0,3.5c0,1.1,1.3,1.6,2,0.8
			l8.8-7.7C361.3-53.7,361.3-54.4,360.8-54.9z"/>
		<path class="st2" d="M354.2-51c0-1.1-1.3-1.6-2-0.8l-2.1,2.2c-3.3-3.8-7.1-4.8-10.9-4.3l-2.9,2.9l7.6,7.6l-2.5,2.5
			c-0.8,0.8-0.2,2,0.9,2l11.7,0.8c0.7,0,1.2-0.5,1.2-1.2L354.2-51z"/>
		<path class="st1" d="M346.8-43.3l-3,0c0.4-5-1.7-8.4-4.6-10.7l-4.2,0v10.8l-3.5,0c-1.1,0-1.6,1.3-0.8,2l7.7,8.8
			c0.5,0.5,1.2,0.5,1.7,0l7.7-8.9C348.4-42,347.9-43.3,346.8-43.3z"/>
		<path class="st2" d="M334.9-43.1c3.8-3.3,4.8-7.1,4.3-10.9l-2.9-2.9l-7.6,7.6l-2.5-2.5c-0.8-0.7-2-0.2-2,0.9l-0.8,11.7
			c0,0.7,0.5,1.2,1.2,1.2l11.7-0.9c1.1,0,1.6-1.3,0.8-2L334.9-43.1z"/>
		<path class="st1" d="M339.2-57.3v-0.9h-10.8l0-3.5c0-1.1-1.3-1.6-2-0.8l-8.8,7.7c-0.5,0.5-0.5,1.2,0,1.7l8.9,7.7
			c0.8,0.7,2,0.2,2-0.9l0-3c5,0.4,8.4-1.7,10.7-4.6C339-55.1,339-56.2,339.2-57.3z"/>
		<path class="st2" d="M334.5-64.5L334.5-64.5L334.5-64.5c0-0.1,0-0.1,0-0.2l-3,0c-1.1,0-1.6-1.3-0.9-2l2.2-2.6l-8.4-0.6
			c-0.7,0-1.2,0.5-1.2,1.2l0.9,11.7c0,1.1,1.3,1.6,2,0.8l2.1-2.2c3.3,3.8,7.1,4.8,10.9,4.3C336.2-56.3,334.2-59.6,334.5-64.5z"/>
	</g>
	<g>
		<g>
			<path class="st1" d="M60.8,34.1l0-2.4c-0.6,0.8-1.4,1.4-2.3,2c-0.9,0.5-1.9,0.8-2.9,0.8c-1.8,0-3.2-0.4-4.2-1.3
				c-0.9-0.9-1.4-2.1-1.4-3.8c0-1.7,0.7-2.9,2-3.8c1.3-0.9,3.2-1.3,5.5-1.3h3.3v-2c0-1-0.3-1.8-1-2.4c-0.6-0.6-1.5-0.9-2.7-0.9
				c-0.8,0-1.5,0.1-2.1,0.3c-0.6,0.2-1.1,0.5-1.5,0.8l0,0.8c0,0.6-0.5,1-1,1h-0.8c-0.6,0-1-0.5-1-1v-2.4c0.8-0.6,1.8-1.1,2.9-1.5
				c1.1-0.4,2.4-0.6,3.7-0.6c2,0,3.6,0.5,4.8,1.5c1.2,1,1.8,2.5,1.8,4.3l0,9.9l0.3,0c0.6,0,1,0.5,1,1v0c0,0.6-0.5,1-1,1H60.8z
				 M56,31.7c1.1,0,2-0.3,2.9-0.8c0.9-0.5,1.5-1.1,1.9-1.8v-2.9h-3.4c-1.3,0-2.3,0.3-3.1,0.9c-0.8,0.6-1.1,1.3-1.1,2.2
				c0,0.8,0.2,1.3,0.7,1.8C54.4,31.5,55.1,31.7,56,31.7z"/>
			<path class="st1" d="M67.6,32l1.6,0V18.6l-1.6,0c-0.6,0-1-0.5-1-1v0c0-0.6,0.5-1,1-1h4.7l0,2.6c0.6-0.9,1.3-1.6,2.2-2.2
				c0.9-0.5,1.9-0.8,3-0.8c1.9,0,3.3,0.6,4.4,1.7c1,1.1,1.6,2.8,1.6,5.1l0,9l1.6,0c0.6,0,1,0.5,1,1v0c0,0.6-0.5,1-1,1h-6.4
				c-0.6,0-1-0.5-1-1v0c0-0.6,0.5-1,1-1l1.6,0l0-8.9c0-1.5-0.3-2.6-0.9-3.3c-0.6-0.6-1.5-1-2.8-1c-0.9,0-1.7,0.2-2.4,0.7
				c-0.7,0.4-1.3,1-1.7,1.8l0,10.7l1.6,0c0.6,0,1,0.5,1,1v0c0,0.6-0.5,1-1,1h-6.4c-0.6,0-1-0.5-1-1v0C66.6,32.5,67,32,67.6,32z"/>
			<g>
				<path class="st2" d="M104.4,34.5c-2.2,0-3.9-0.8-5.1-2.4c-1.2-1.6-1.8-3.6-1.8-6.2v-0.3c0-2.8,0.6-5.1,1.8-6.9
					c1.2-1.7,2.9-2.6,5.1-2.6c1,0,2,0.2,2.8,0.6c0.7,0.3,1.4,0.8,1.9,1.5V11h-1.5c-0.6,0-1.1-0.5-1.1-1.1c0-0.6,0.5-1.1,1.1-1.1h4.9
					v23.2h1.5c0.6,0,1.1,0.5,1.1,1.1s-0.5,1.1-1.1,1.1h-4.7v-1.9c-0.5,0.7-1.2,1.2-2,1.6C106.4,34.3,105.5,34.5,104.4,34.5z
					 M105.2,18.9c-1.5,0-2.6,0.6-3.3,1.8c-0.7,1.2-1.1,2.9-1.1,4.9V26c0,1.7,0.4,3.1,1.1,4.2c0.7,1,1.8,1.6,3.3,1.6
					c0.9,0,1.7-0.2,2.3-0.6c0.6-0.4,1.2-1,1.6-1.8l0-8.1c-0.4-0.7-0.9-1.2-1.6-1.7C106.9,19.2,106.1,18.9,105.2,18.9z"/>
				<path class="st2" d="M112.3,8.9l0,23.2l1.6,0c0.6,0,1,0.5,1,1c0,0.6-0.5,1-1,1h-4.6l0-2.1c-0.6,0.8-1.3,1.4-2.1,1.8
					c-0.8,0.4-1.8,0.6-2.9,0.6c-2.1,0-3.8-0.8-5-2.3c-1.2-1.5-1.8-3.6-1.8-6.1v-0.3c0-2.8,0.6-5.1,1.8-6.8c1.2-1.7,2.9-2.6,5-2.6
					c1,0,1.9,0.2,2.7,0.6c0.8,0.4,1.5,0.9,2,1.7l0-7.6l-1.6,0c-0.6,0-1-0.5-1-1v0c0-0.6,0.5-1,1-1H112.3 M105.2,31.8
					c0.9,0,1.7-0.2,2.4-0.6c0.6-0.4,1.2-1,1.6-1.8v-8.1c-0.4-0.7-0.9-1.3-1.6-1.7c-0.7-0.4-1.4-0.6-2.4-0.6c-1.5,0-2.6,0.6-3.4,1.9
					c-0.7,1.3-1.1,2.9-1.1,4.9V26c0,1.8,0.4,3.2,1.1,4.2C102.5,31.3,103.7,31.8,105.2,31.8 M112.5,8.7h-0.2h-4.8
					c-0.7,0-1.2,0.5-1.2,1.2c0,0.7,0.5,1.2,1.2,1.2l1.4,0l0,6.9c-0.5-0.6-1.1-1-1.8-1.3c-0.8-0.4-1.8-0.6-2.8-0.6
					c-2.2,0-4,0.9-5.2,2.7c-1.2,1.7-1.8,4.1-1.8,6.9V26c0,2.6,0.6,4.6,1.8,6.2c1.2,1.6,3,2.4,5.1,2.4c1.1,0,2.1-0.2,2.9-0.6
					c0.7-0.3,1.3-0.8,1.8-1.4l0,1.6l0,0.2h0.2h4.6c0.7,0,1.2-0.5,1.2-1.2s-0.5-1.2-1.2-1.2l-1.4,0l0-23V8.7L112.5,8.7z M105.2,31.6
					c-1.5,0-2.5-0.5-3.2-1.5c-0.7-1-1.1-2.4-1.1-4.1v-0.3c0-2,0.4-3.6,1.1-4.8c0.7-1.2,1.7-1.8,3.2-1.8c0.9,0,1.6,0.2,2.3,0.6
					c0.6,0.4,1.1,1,1.5,1.6v8c-0.4,0.7-0.9,1.3-1.5,1.7C106.8,31.4,106.1,31.6,105.2,31.6L105.2,31.6z"/>
			</g>
			<g>
				<path class="st2" d="M123.5,34.5c-2.5,0-4.4-0.8-5.9-2.5c-1.4-1.6-2.2-3.8-2.2-6.4V25c0-2.5,0.8-4.6,2.2-6.3
					c1.5-1.7,3.3-2.5,5.3-2.5c2.4,0,4.2,0.7,5.4,2.2c1.2,1.4,1.8,3.4,1.8,5.7v2.1h-11.4c0.1,1.6,0.5,3,1.3,4.1
					c0.8,1.1,1.9,1.6,3.4,1.6c1.1,0,2-0.2,2.8-0.5c0.5-0.2,0.9-0.4,1.3-0.6c0.2-0.1,0.4-0.2,0.6-0.2c0.4,0,0.8,0.2,1,0.5l0.2,0.3
					c0.3,0.5,0.2,1.1-0.3,1.5c-0.5,0.4-1.1,0.7-1.8,0.9C126.3,34.3,125,34.5,123.5,34.5z M123.1,18.9c-1,0-1.9,0.4-2.7,1.3
					c-0.7,0.9-1.2,2-1.4,3.3l7.9,0v-0.3c0-1.2-0.3-2.3-1-3.1C125.3,19.3,124.3,18.9,123.1,18.9z"/>
				<path class="st2" d="M123.1,16.3c2.3,0,4.1,0.7,5.3,2.1c1.2,1.4,1.8,3.3,1.8,5.7v2h-11.3l0,0.1c0,1.7,0.5,3.1,1.3,4.1
					c0.8,1.1,2,1.6,3.4,1.6c1.1,0,2-0.2,2.8-0.5c0.5-0.2,0.9-0.4,1.3-0.6c0.2-0.1,0.3-0.2,0.5-0.2c0.3,0,0.7,0.2,0.9,0.5l0.2,0.3
					c0.3,0.5,0.2,1-0.3,1.3c-0.5,0.4-1.1,0.7-1.8,0.9c-1,0.4-2.3,0.6-3.7,0.6c-2.4,0-4.4-0.8-5.8-2.4c-1.4-1.6-2.2-3.7-2.2-6.3V25
					c0-2.5,0.7-4.6,2.2-6.2C119.3,17.1,121,16.3,123.1,16.3 M119,23.6h8.1v-0.4c0-1.2-0.3-2.3-1-3.1c-0.7-0.8-1.7-1.3-3-1.3
					c-1.1,0-2,0.5-2.7,1.3C119.6,21,119.1,22.1,119,23.6L119,23.6 M123.1,16.1c-2.1,0-3.9,0.9-5.4,2.5c-1.5,1.7-2.3,3.8-2.3,6.3v0.7
					c0,2.6,0.7,4.8,2.2,6.4c1.5,1.7,3.5,2.5,5.9,2.5c1.5,0,2.7-0.2,3.8-0.6c0.7-0.3,1.3-0.6,1.8-1c0.5-0.4,0.6-1.1,0.3-1.6l-0.2-0.3
					c-0.2-0.4-0.6-0.6-1-0.6c-0.2,0-0.4,0.1-0.6,0.2c-0.4,0.2-0.8,0.5-1.3,0.6c-0.8,0.3-1.7,0.4-2.8,0.4c-1.4,0-2.5-0.5-3.3-1.6
					c-0.8-1-1.2-2.3-1.2-3.9h11.2h0.2v-0.2v-2c0-2.4-0.6-4.4-1.9-5.8C127.3,16.8,125.5,16.1,123.1,16.1L123.1,16.1z M119.1,23.4
					c0.2-1.3,0.6-2.3,1.3-3.2c0.7-0.9,1.6-1.3,2.6-1.3c1.2,0,2.2,0.4,2.8,1.2c0.6,0.8,1,1.8,1,3v0.2H119.1L119.1,23.4z"/>
			</g>
			<g>
				<path class="st2" d="M140.2,34.5c-2.6,0-4.5-0.8-5.9-2.5c-1.3-1.7-2-3.8-2-6.3V25c0-2.5,0.7-4.6,2-6.3c1.4-1.7,3.3-2.5,5.9-2.5
					c1.4,0,3,0.4,4.2,1c1.4,0.7,2.1,1.6,2.1,1.7l0,2.7c0,0.8-0.6,1.4-1.4,1.4s-1.4-0.6-1.4-1.4V20c-0.1-0.1-1.3-1.1-3.6-1.1
					c-1.6,0-2.8,0.6-3.5,1.8c-0.7,1.2-1.1,2.7-1.1,4.4v0.7c0,1.8,0.4,3.3,1.1,4.4c0.7,1.2,1.9,1.7,3.5,1.7c1,0,1.9-0.3,2.7-1
					c0.5-0.4,0.9-0.9,1.1-1.5c0.2-0.5,0.7-0.9,1.3-0.9c0.4,0,0.8,0.2,1.1,0.5c0.3,0.3,0.4,0.7,0.3,1.1c-0.2,1.1-0.7,1.9-1.5,2.7
					C143.7,33.9,142.1,34.5,140.2,34.5z"/>
				<path class="st2" d="M140.2,16.3c1.4,0,3,0.4,4.2,1c1.4,0.7,2.1,1.6,2.1,1.6l0,2.6c0,0.7-0.6,1.3-1.3,1.3
					c-0.7,0-1.3-0.6-1.3-1.3l0-1.5c-0.4-0.4-1.6-1.2-3.7-1.2c-1.7,0-2.9,0.6-3.6,1.8c-0.7,1.2-1.1,2.7-1.1,4.4v0.7
					c0,1.8,0.4,3.3,1.1,4.5c0.7,1.2,1.9,1.8,3.6,1.8c1.1,0,2-0.3,2.8-1c0.5-0.4,0.9-1,1.1-1.5c0.2-0.5,0.7-0.9,1.2-0.9
					c0.8,0,1.4,0.7,1.3,1.5c-0.2,0.9-0.6,1.8-1.5,2.6c-1.4,1.2-3,1.8-4.9,1.8c-2.5,0-4.5-0.8-5.8-2.5c-1.3-1.7-2-3.7-2-6.3V25
					c0-2.5,0.7-4.6,2-6.2C135.7,17.1,137.7,16.3,140.2,16.3 M140.2,16.1c-2.6,0-4.6,0.9-6,2.6c-1.4,1.7-2.1,3.8-2.1,6.3v0.7
					c0,2.5,0.7,4.7,2.1,6.4c1.4,1.7,3.4,2.6,6,2.6c1.9,0,3.6-0.6,5-1.8c0.9-0.7,1.4-1.6,1.5-2.7c0.1-0.4-0.1-0.9-0.3-1.2
					c-0.3-0.3-0.7-0.5-1.1-0.5c-0.6,0-1.2,0.4-1.4,1c-0.2,0.5-0.5,1-1,1.4c-0.8,0.6-1.7,0.9-2.7,0.9c-1.6,0-2.7-0.6-3.4-1.7
					c-0.7-1.2-1-2.6-1-4.4V25c0-1.7,0.4-3.2,1-4.3c0.7-1.2,1.8-1.7,3.4-1.7c2.1,0,3.2,0.9,3.5,1.1l0,1.4c0,0.4,0.2,0.8,0.4,1
					s0.6,0.4,1,0.4c0.8,0,1.5-0.7,1.5-1.5l0-2.6v-0.1l0,0c0,0-0.7-1-2.1-1.7C143.3,16.5,141.6,16.1,140.2,16.1L140.2,16.1z"/>
			</g>
			<g>
				<path class="st2" d="M149.9,34.2c-0.6,0-1.1-0.5-1.1-1.1s0.5-1.1,1.1-1.1h1.5V18.7h-1.5c-0.6,0-1.1-0.5-1.1-1.1
					c0-0.6,0.5-1.1,1.1-1.1h4.9v15.4h1.5c0.6,0,1.1,0.5,1.1,1.1s-0.5,1.1-1.1,1.1H149.9z"/>
				<path class="st2" d="M154.7,16.6l0,15.4l1.6,0c0.6,0,1,0.5,1,1c0,0.6-0.5,1-1,1h-6.4c-0.6,0-1-0.5-1-1c0-0.6,0.5-1,1-1l1.6,0
					V18.6l-1.6,0c-0.6,0-1-0.5-1-1v0c0-0.6,0.5-1,1-1H154.7 M154.8,16.4h-0.2h-4.8c-0.7,0-1.2,0.5-1.2,1.2c0,0.7,0.5,1.2,1.2,1.2
					l1.4,0v13l-1.4,0c-0.3,0-0.6,0.1-0.8,0.4c-0.2,0.2-0.4,0.5-0.4,0.8c0,0.7,0.5,1.2,1.2,1.2h6.4c0.7,0,1.2-0.5,1.2-1.2
					s-0.5-1.2-1.2-1.2l-1.4,0l0-15.3V16.4L154.8,16.4z"/>
			</g>
			<g>
				<path class="st2" d="M165.9,34.5c-1.3,0-2.5-0.2-3.6-0.5c-1.1-0.3-2-0.8-2.9-1.3l-0.1-2.9c0-0.3,0.1-0.7,0.4-0.9
					s0.6-0.4,0.9-0.4c0.7,0,1.3,0.6,1.3,1.3V31c0.3,0.2,1.3,0.5,1.9,0.6l0.1,0c0.6,0.1,1.3,0.2,1.9,0.2c1.1,0,2-0.2,2.6-0.7
					c0.6-0.4,0.9-1,0.9-1.7c0-0.7-0.3-1.2-0.8-1.7c-0.5-0.4-1.5-0.8-3-1.2c-2.1-0.5-3.8-1.1-4.8-1.9c-1.1-0.8-1.7-1.9-1.7-3.3
					c0-1.4,0.6-2.7,1.9-3.7c1.2-1,2.8-1.5,4.8-1.5c1.1,0,2.7,0.1,4.1,0.7c1.3,0.6,2.1,1.4,2.2,1.4l0,2.6c0,0.7-0.6,1.3-1.3,1.3
					s-1.3-0.6-1.3-1.3l0-0.9c-0.3-0.3-2-1.1-3.7-1.1c-1.1,0-1.9,0.2-2.5,0.7c-0.5,0.5-0.8,1.1-0.8,1.7c0,0.7,0.2,1.2,0.7,1.6
					c0.5,0.4,1.5,0.7,2.9,1c2.2,0.5,3.9,1.1,5,1.9c1.1,0.8,1.7,2,1.7,3.3c0,1.6-0.6,2.9-1.9,3.8C169.6,34,168,34.5,165.9,34.5z"/>
				<path class="st2" d="M165.9,16.3c1.3,0,2.8,0.2,4,0.7c1.3,0.6,2.1,1.4,2.1,1.4l0,2.5c0,0.7-0.5,1.2-1.2,1.2
					c-0.7,0-1.2-0.5-1.2-1.2l0-0.9c-0.4-0.4-2-1.2-3.8-1.2c-1.1,0-2,0.2-2.5,0.7c-0.6,0.5-0.8,1.1-0.8,1.8c0,0.7,0.2,1.2,0.7,1.6
					c0.5,0.4,1.5,0.8,3,1.1c2.2,0.5,3.9,1.1,4.9,1.9c1.1,0.8,1.6,1.9,1.6,3.3c0,1.6-0.6,2.8-1.9,3.8c-1.3,1-2.9,1.4-4.9,1.4
					c-1.3,0-2.5-0.2-3.6-0.5c-1.1-0.3-2-0.8-2.8-1.3l0-2.8c0-0.7,0.5-1.2,1.2-1.2c0.7,0,1.2,0.5,1.2,1.2l0,1.1
					c0.4,0.3,1.5,0.6,2.1,0.7c0.6,0.2,1.3,0.2,1.9,0.2c1.1,0,2-0.2,2.7-0.7c0.6-0.5,1-1.1,1-1.8c0-0.7-0.3-1.3-0.8-1.7
					c-0.5-0.5-1.5-0.8-3-1.2c-2.1-0.5-3.7-1.1-4.8-1.9s-1.6-1.9-1.6-3.2c0-1.4,0.6-2.6,1.8-3.6C162.3,16.8,163.9,16.3,165.9,16.3
					 M165.9,16.1c-2,0-3.6,0.5-4.8,1.5c-1.3,1-1.9,2.3-1.9,3.8c0,1.4,0.6,2.5,1.7,3.4c1.1,0.8,2.7,1.5,4.9,1.9
					c1.4,0.3,2.4,0.7,2.9,1.1c0.5,0.4,0.7,0.9,0.7,1.6c0,0.7-0.3,1.2-0.9,1.7c-0.6,0.4-1.5,0.7-2.6,0.7c-0.6,0-1.3-0.1-1.9-0.2
					l-0.1,0c-0.6-0.1-1.5-0.3-1.8-0.6l0-1.1c0-0.4-0.1-0.7-0.4-1c-0.3-0.3-0.6-0.4-1-0.4c-0.4,0-0.7,0.1-1,0.4
					c-0.3,0.3-0.4,0.6-0.4,1l0,2.8l0,0.1l0.1,0.1c0.8,0.6,1.8,1,2.9,1.4c1.1,0.3,2.3,0.5,3.6,0.5c2.1,0,3.7-0.5,5-1.5
					c1.3-1,2-2.3,2-3.9c0-1.4-0.6-2.6-1.7-3.4c-1.1-0.8-2.8-1.5-5-2c-1.5-0.3-2.4-0.7-2.9-1c-0.4-0.4-0.7-0.9-0.7-1.5
					c0-0.7,0.2-1.2,0.8-1.7c0.5-0.5,1.3-0.7,2.4-0.7c1.6,0,3.1,0.8,3.6,1.1l0,0.8c0,0.4,0.1,0.7,0.4,1c0.3,0.3,0.6,0.4,1,0.4
					c0.8,0,1.4-0.6,1.4-1.4l0-2.5v-0.1l-0.1-0.1c0,0-0.9-0.9-2.2-1.5C168.6,16.2,167,16.1,165.9,16.1L165.9,16.1z"/>
			</g>
			<g>
				<path class="st2" d="M175.8,34.2c-0.6,0-1.1-0.5-1.1-1.1s0.5-1.1,1.1-1.1h1.5V18.7h-1.5c-0.6,0-1.1-0.5-1.1-1.1
					c0-0.6,0.5-1.1,1.1-1.1h4.9v15.4h1.5c0.6,0,1.1,0.5,1.1,1.1s-0.5,1.1-1.1,1.1H175.8z"/>
				<path class="st2" d="M180.6,16.6l0,15.4l1.6,0c0.6,0,1,0.5,1,1c0,0.6-0.5,1-1,1h-6.4c-0.6,0-1-0.5-1-1c0-0.6,0.5-1,1-1l1.6,0
					V18.6l-1.6,0c-0.6,0-1-0.5-1-1v0c0-0.6,0.5-1,1-1H180.6 M180.8,16.4h-0.2h-4.8c-0.7,0-1.2,0.5-1.2,1.2c0,0.7,0.5,1.2,1.2,1.2
					l1.4,0v13l-1.4,0c-0.3,0-0.6,0.1-0.8,0.4c-0.2,0.2-0.4,0.5-0.4,0.8c0,0.7,0.5,1.2,1.2,1.2h6.4c0.7,0,1.2-0.5,1.2-1.2
					s-0.5-1.2-1.2-1.2l-1.4,0l0-15.3V16.4L180.8,16.4z"/>
			</g>
			<g>
				<path class="st2" d="M192.3,34.5c-2.4,0-4.4-0.9-5.8-2.5c-1.4-1.7-2.1-3.8-2.1-6.5v-0.4c0-2.6,0.7-4.8,2.1-6.4
					c1.4-1.7,3.4-2.5,5.8-2.5c2.4,0,4.4,0.9,5.8,2.5c1.4,1.7,2.1,3.9,2.1,6.5v0.4c0,2.6-0.7,4.8-2.1,6.5
					C196.7,33.7,194.7,34.5,192.3,34.5z M192.3,18.9c-1.5,0-2.6,0.6-3.4,1.8c-0.8,1.2-1.1,2.7-1.1,4.5v0.4c0,1.8,0.4,3.4,1.2,4.5
					c0.8,1.2,1.9,1.8,3.4,1.8c1.5,0,2.6-0.6,3.4-1.8c0.8-1.2,1.2-2.7,1.2-4.5v-0.4c0-1.8-0.4-3.3-1.2-4.5
					C194.9,19.5,193.8,18.9,192.3,18.9z"/>
				<path class="st2" d="M192.3,16.3c2.4,0,4.3,0.8,5.7,2.5c1.4,1.7,2.1,3.8,2.1,6.4v0.4c0,2.6-0.7,4.7-2.1,6.4
					c-1.4,1.7-3.3,2.5-5.7,2.5c-2.4,0-4.3-0.8-5.7-2.5c-1.4-1.7-2.1-3.8-2.1-6.4v-0.4c0-2.6,0.7-4.7,2.1-6.4
					C188,17.1,189.9,16.3,192.3,16.3 M192.3,31.9c1.5,0,2.7-0.6,3.4-1.8c0.8-1.2,1.2-2.7,1.2-4.6v-0.4c0-1.8-0.4-3.4-1.2-4.6
					c-0.8-1.2-1.9-1.8-3.5-1.8s-2.7,0.6-3.5,1.8s-1.2,2.7-1.2,4.6v0.4c0,1.9,0.4,3.4,1.2,4.6C189.6,31.3,190.8,31.9,192.3,31.9
					 M192.3,16.1c-2.4,0-4.4,0.9-5.8,2.6c-1.4,1.7-2.1,3.9-2.1,6.5v0.4c0,2.6,0.7,4.8,2.1,6.5c1.4,1.7,3.4,2.6,5.9,2.6
					c2.4,0,4.4-0.9,5.8-2.6c1.4-1.7,2.1-3.9,2.1-6.5v-0.4c0-2.6-0.7-4.8-2.2-6.5C196.7,16.9,194.7,16.1,192.3,16.1L192.3,16.1z
					 M192.3,31.7c-1.5,0-2.6-0.6-3.3-1.7c-0.8-1.2-1.1-2.7-1.1-4.5v-0.4c0-1.8,0.4-3.3,1.1-4.5c0.7-1.2,1.8-1.7,3.3-1.7
					c1.5,0,2.6,0.6,3.3,1.7c0.8,1.2,1.1,2.7,1.1,4.5v0.4c0,1.8-0.4,3.3-1.1,4.5C194.9,31.2,193.8,31.7,192.3,31.7L192.3,31.7z"/>
			</g>
			<g>
				<path class="st2" d="M213,34.2c-0.6,0-1.1-0.5-1.1-1.1s0.5-1.1,1.1-1.1h1.5v-8.8c0-1.5-0.3-2.6-0.9-3.2
					c-0.6-0.6-1.5-0.9-2.7-0.9c-0.9,0-1.7,0.2-2.4,0.6c-0.7,0.4-1.2,1-1.7,1.8l0,10.6h1.5c0.6,0,1.1,0.5,1.1,1.1s-0.5,1.1-1.1,1.1
					H202c-0.6,0-1.1-0.5-1.1-1.1s0.5-1.1,1.1-1.1h1.5V18.7H202c-0.6,0-1.1-0.5-1.1-1.1c0-0.6,0.5-1.1,1.1-1.1h4.8v2.4
					c0.6-0.8,1.2-1.5,2.1-1.9c0.9-0.5,1.9-0.8,3-0.8c1.9,0,3.4,0.6,4.4,1.7c1,1.1,1.6,2.9,1.6,5.2l0,8.9h1.5c0.6,0,1.1,0.5,1.1,1.1
					s-0.5,1.1-1.1,1.1H213z"/>
				<path class="st2" d="M211.8,16.3c1.9,0,3.3,0.6,4.4,1.7c1,1.1,1.6,2.8,1.6,5.1l0,9l1.6,0c0.6,0,1,0.5,1,1c0,0.6-0.5,1-1,1H213
					c-0.6,0-1-0.5-1-1c0-0.6,0.5-1,1-1l1.6,0l0-8.9c0-1.5-0.3-2.6-0.9-3.3c-0.6-0.6-1.5-1-2.8-1c-0.9,0-1.7,0.2-2.4,0.7
					c-0.7,0.4-1.3,1-1.7,1.8l0,10.7l1.6,0c0.6,0,1,0.5,1,1c0,0.6-0.5,1-1,1H202c-0.6,0-1-0.5-1-1c0-0.6,0.5-1,1-1l1.6,0V18.6l-1.6,0
					c-0.6,0-1-0.5-1-1v0c0-0.6,0.5-1,1-1h4.7l0,2.6c0.6-0.9,1.3-1.6,2.2-2.2C209.7,16.5,210.7,16.3,211.8,16.3 M211.8,16.1
					c-1.1,0-2.2,0.3-3.1,0.8c-0.7,0.4-1.4,1-1.9,1.7l0-2v-0.2h-0.2H202c-0.7,0-1.2,0.5-1.2,1.2c0,0.7,0.5,1.2,1.2,1.2l1.4,0v13
					l-1.4,0c-0.3,0-0.6,0.1-0.8,0.4c-0.2,0.2-0.4,0.5-0.4,0.8c0,0.7,0.5,1.2,1.2,1.2h6.4c0.7,0,1.2-0.5,1.2-1.2s-0.5-1.2-1.2-1.2
					l-1.4,0l0-10.5c0.4-0.7,0.9-1.3,1.6-1.7c0.7-0.4,1.5-0.6,2.3-0.6c1.2,0,2.1,0.3,2.7,0.9c0.6,0.6,0.9,1.7,0.9,3.2l0,8.8l-1.4,0
					c-0.3,0-0.6,0.1-0.8,0.4c-0.2,0.2-0.4,0.5-0.4,0.8c0,0.7,0.5,1.2,1.2,1.2h6.4c0.7,0,1.2-0.5,1.2-1.2s-0.5-1.2-1.2-1.2l-1.4,0
					l0-8.8c0-2.3-0.5-4.1-1.6-5.2C215.3,16.7,213.8,16.1,211.8,16.1L211.8,16.1z"/>
			</g>
			<g>
				<path class="st2" d="M153.1,12.2c-0.9,0-1.7-0.8-1.7-1.7c0-1,0.8-1.7,1.7-1.7c0.9,0,1.7,0.8,1.7,1.7
					C154.7,11.5,154,12.2,153.1,12.2z"/>
				<path class="st2" d="M153.1,8.9c0.9,0,1.6,0.7,1.6,1.6v0.1c0,0.9-0.7,1.6-1.6,1.6h0c-0.9,0-1.6-0.7-1.6-1.6v-0.1
					C151.5,9.6,152.2,8.9,153.1,8.9L153.1,8.9 M153.1,8.7c-1,0-1.8,0.8-1.8,1.8v0.1c0,1,0.8,1.8,1.8,1.8s1.8-0.8,1.8-1.8v-0.1
					C154.8,9.5,154,8.7,153.1,8.7L153.1,8.7z"/>
			</g>
			<g>
				<path class="st2" d="M179,12.2c-0.9,0-1.7-0.8-1.7-1.7c0-1,0.8-1.7,1.7-1.7c0.9,0,1.7,0.8,1.7,1.7
					C180.7,11.5,179.9,12.2,179,12.2z"/>
				<path class="st2" d="M179,8.9c0.9,0,1.6,0.7,1.6,1.6v0.1c0,0.9-0.7,1.6-1.6,1.6h0c-0.9,0-1.6-0.7-1.6-1.6v-0.1
					C177.4,9.6,178.1,8.9,179,8.9L179,8.9 M179,8.7c-1,0-1.8,0.8-1.8,1.8v0.1c0,1,0.8,1.8,1.8,1.8s1.8-0.8,1.8-1.8v-0.1
					C180.8,9.5,180,8.7,179,8.7L179,8.7z"/>
			</g>
			<path class="st1" d="M101.2,16.6h-4.8c-0.6,0-1,0.4-1,1v0c0,0.6,0.5,1,1,1l0.5,0c0.5,0,0.8,0.5,0.5,1.2L93.9,29
				c-0.2,0.4-0.6,0.5-0.8,0l-3.4-9.1c-0.3-0.9,0-1.3,0.5-1.3h0.4c0.6,0,1-0.4,1-1v0c0-0.6-0.4-1-1-1h-4.8c-0.6,0-1,0.5-1,1v0
				c0,0.6,0.5,1,1,1l0.6,0l5.8,15.1l-0.8,1.8c-0.3,0.8-0.7,1.4-1.1,2c-0.4,0.6-1,0.9-1.6,0.9c0,0-0.1,0-0.1,0c-0.6,0-1.2,0.4-1.4,1
				c-0.2,0.8,0.3,1.6,1.1,1.7c0.3,0,0.5,0.1,0.6,0.1c1.4,0,2.5-0.4,3.3-1.3c0.8-0.9,1.5-1.9,1.9-3.1l6.7-18.1l0.5,0c0.6,0,1-0.5,1-1
				v0C102.2,17,101.8,16.6,101.2,16.6z"/>
		</g>
		<g>
			<path class="st1" d="M31.2,15.6l-5.7-6.5c-0.3-0.3-0.9-0.3-1.2,0l-5.6,6.5c-0.6,0.6-0.2,1.5,0.6,1.5l2.2,0
				c-0.3,3.7,1.2,6.2,3.4,7.9H28l0-7.9l2.6,0C31.4,17.1,31.8,16.1,31.2,15.6z"/>
			<path class="st2" d="M35.8,13.3l-8.6,0.6c-0.8,0-1.2,1-0.6,1.5l1.6,1.6c-2.8,2.4-3.5,5.2-3.2,8l2.2,2.2l5.6-5.6l1.8,1.8
				c0.6,0.6,1.5,0.2,1.5-0.6l0.6-8.6C36.7,13.7,36.3,13.3,35.8,13.3z"/>
			<path class="st1" d="M40.9,24.4l-6.5-5.6c-0.6-0.6-1.5-0.2-1.5,0.6l0,2.2c-3.7-0.3-6.2,1.2-7.9,3.4l0,3.1h7.9l0,2.6
				c0,0.8,1,1.2,1.5,0.6l6.5-5.7C41.2,25.3,41.2,24.7,40.9,24.4z"/>
			<path class="st2" d="M36,27.2c0-0.8-1-1.2-1.5-0.6L33,28.2c-2.4-2.8-5.2-3.5-8-3.2l-2.2,2.2l5.6,5.6l-1.8,1.8
				c-0.6,0.6-0.2,1.5,0.6,1.5l8.6,0.6c0.5,0,0.9-0.4,0.9-0.9L36,27.2z"/>
			<path class="st1" d="M30.6,32.9l-2.2,0c0.3-3.7-1.2-6.2-3.4-7.9l-3.1,0l0,7.9l-2.6,0c-0.8,0-1.2,1-0.6,1.5l5.7,6.5
				c0.3,0.3,0.9,0.3,1.2,0l5.6-6.5C31.8,33.8,31.4,32.9,30.6,32.9z"/>
			<path class="st2" d="M21.8,33c2.8-2.4,3.5-5.2,3.2-8l-2.2-2.2l-5.6,5.6l-1.8-1.8c-0.6-0.6-1.5-0.2-1.5,0.6l-0.6,8.6
				c0,0.5,0.4,0.9,0.9,0.9l8.6-0.6c0.8,0,1.2-1,0.6-1.5L21.8,33z"/>
			<path class="st1" d="M25,22.6v-0.7h-7.9l0-2.6c0-0.8-1-1.2-1.5-0.6L9,24.4c-0.3,0.3-0.3,0.9,0,1.2l6.5,5.6
				c0.6,0.6,1.5,0.2,1.5-0.6l0-2.2c3.7,0.3,6.2-1.2,7.9-3.4C24.9,24.2,24.9,23.4,25,22.6z"/>
			<path class="st2" d="M21.6,17.2L21.6,17.2L21.6,17.2c0-0.1,0-0.1,0-0.1l-2.2,0c-0.8,0-1.2-0.9-0.6-1.5l1.6-1.9l-6.2-0.4
				c-0.5,0-0.9,0.4-0.9,0.9l0.6,8.6c0,0.8,1,1.2,1.5,0.6l1.6-1.6c2.4,2.8,5.2,3.5,8,3.2C22.8,23.3,21.3,20.9,21.6,17.2z"/>
		</g>
	</g>
</g>
</svg>
